<?xml version="1.0" standalone="no"?>
<!DOCTYPE svg PUBLIC "-//W3C//DTD SVG 20010904//EN"
 "http://www.w3.org/TR/2001/REC-SVG-20010904/DTD/svg10.dtd">
<svg version="1.0" xmlns="http://www.w3.org/2000/svg"
 width="188.000000pt" height="188.000000pt" viewBox="0 0 188.000000 188.000000"
 preserveAspectRatio="xMidYMid meet">
<metadata>
Created by potrace 1.11, written by Peter Selinger 2001-2013
</metadata>
<g transform="translate(0.000000,188.000000) scale(0.100000,-0.100000)"
fill="#000000" stroke="none">
<path d="M40 1451 c14 -11 28 -21 32 -21 4 0 45 -24 90 -53 84 -54 524 -317
631 -377 32 -18 57 -34 55 -35 -2 -2 -552 -12 -782 -15 -11 0 -16 -3 -13 -6 9
-9 209 -16 534 -18 150 0 273 -3 273 -6 0 -3 -39 -27 -88 -55 -91 -52 -575
-341 -650 -389 -89 -56 -31 -33 109 42 164 90 623 348 656 369 11 8 23 10 26
6 2 -4 5 -73 7 -153 1 -80 4 -165 5 -190 2 -25 4 -67 4 -94 1 -27 3 -47 7 -44
7 7 14 125 19 318 2 85 4 158 4 162 1 10 28 -1 71 -27 54 -33 503 -286 605
-340 50 -26 118 -63 153 -82 34 -19 62 -33 62 -30 0 8 -499 312 -752 457 -43
25 -78 47 -78 50 0 3 105 5 233 6 360 2 525 6 539 15 8 5 -21 9 -67 10 -44 0
-129 2 -190 4 -60 1 -202 3 -315 4 l-205 1 45 26 c181 105 750 449 770 465 23
19 -40 -13 -165 -81 -27 -15 -77 -42 -110 -60 -33 -18 -94 -52 -135 -75 -41
-23 -95 -53 -120 -67 -25 -14 -110 -62 -189 -107 -79 -45 -146 -80 -149 -77
-3 3 -7 81 -9 173 -2 93 -5 191 -7 218 -3 28 -5 61 -5 74 -1 13 -4 22 -7 19
-3 -4 -8 -114 -11 -245 -3 -131 -7 -240 -9 -242 -1 -2 -76 38 -166 89 -90 51
-197 112 -238 135 -107 60 -419 229 -460 249 l-35 17 25 -20z"/>
<path d="M1816 938 c3 -5 10 -6 15 -3 13 9 11 12 -6 12 -8 0 -12 -4 -9 -9z"/>
<path d="M39 423 c-13 -17 -13 -17 6 -3 11 8 22 16 24 17 2 2 0 3 -6 3 -6 0
-17 -8 -24 -17z"/>
</g>
</svg>
