<svg xmlns="http://www.w3.org/2000/svg" viewBox="0 0 187.22 109.28"><defs><style>.cls-1{fill:#4CBDCC;}</style></defs><g id="Layer_2" data-name="Layer 2"><g id="Layer_1-2" data-name="Layer 1"><path class="cls-1" d="M134.78,76.74,129,73.35l-11.53-6.78L99.3,56,117,56l11.7-.12,5.85-.07,5.85-.1c15.61-.25,31.21-.63,46.81-1.34-15.6-.72-31.2-1.1-46.81-1.35l-5.85-.1-5.85-.07L117,52.69l-16.66-.06,17.11-10L129,35.88l5.76-3.4,5.74-3.43c15.32-9.14,30.58-18.39,45.67-27.93-15.8,8.3-31.44,16.89-47,25.59L133.3,30l-5.83,3.29-11.64,6.58L95,51.77c0-8.15-.12-16.3-.37-24.45C94.39,18.21,94,9.11,93.3,0,92.58,9.11,92.2,18.21,92,27.32q-.36,12.12-.37,24.26L71.09,39.88c-7.78-4.37-15.53-8.78-23.34-13.09C32.16,18.11,16.51,9.54.69,1.26,15.8,10.77,31.08,20,46.41,29.11c7.65,4.59,15.37,9.07,23,13.6l17.11,9.92-16.36.07c-7.8.09-15.6.12-23.41.28-15.6.26-31.2.63-46.8,1.35,15.6.71,31.2,1.08,46.8,1.34,7.81.16,15.61.19,23.41.28L87.66,56,69.48,66.61c-7.68,4.54-15.39,9-23,13.63C31.13,89.38,15.86,98.62.77,108.16c15.81-8.3,31.44-16.9,47-25.6,7.81-4.32,15.55-8.75,23.32-13.13L91.58,57.71q0,12.12.38,24.25c.25,9.1.62,18.21,1.34,27.32C94,100.17,94.38,91.06,94.64,82Q95,69.74,95,57.51L115.85,69.4,127.51,76l5.83,3.28,5.84,3.25c15.59,8.67,31.24,17.24,47.06,25.52-15.1-9.52-30.38-18.74-45.71-27.86Z"/></g></g></svg>
