<?xml version="1.0" encoding="utf-8"?>
<!-- Generator: Adobe Illustrator 25.2.3, SVG Export Plug-In . SVG Version: 6.00 Build 0)  -->
<svg version="1.1" id="Layer_1" xmlns="http://www.w3.org/2000/svg" xmlns:xlink="http://www.w3.org/1999/xlink" x="0px" y="0px"
	 viewBox="0 0 383.2 360.7" style="enable-background:new 0 0 383.2 360.7;" xml:space="preserve">
<style type="text/css">
	.st0{fill:#FFFFFF;}
	.st1{display:none;fill:#FFFFFF;}
</style>
<g id="Layer_2_1_">
	<g id="Layer_1-2">
		<g id="Layer_2-2">
			<g id="Layer_1-2-2">
				<path class="st0" d="M383.2,360.7H0V0h383.2V360.7z M6,354.7h371.2V6H6V354.7z"/>
				<path class="st0" d="M277.6,297.9c-1.9,0-3.8,0.9-5,2.4c-1.5,1.9-2.2,4.1-2.2,6.5h14.2c0-2.1-0.6-4.2-1.7-6
					C281.7,299,279.7,297.9,277.6,297.9z"/>
				<path class="st0" d="M245.2,312.8c-0.7,0.4-1.3,1-1.7,1.7c-0.4,0.8-0.6,1.6-0.6,2.5c-0.1,1.3,0.4,2.6,1.4,3.6
					c1,0.9,2.4,1.4,3.8,1.3c1.5,0,3-0.4,4.2-1.2c1.2-0.8,2.2-1.9,2.8-3.2c0.7-1.9,1-3.8,0.9-5.8v-1.9c-2.3,1-4.6,1.7-7.1,2
					C247.7,311.9,246.4,312.3,245.2,312.8z"/>
				<path class="st0" d="M178.9,297.9c-2.1,0.1-4.1,1.2-5.2,3c-1.5,2-2.2,5-2.2,9c0,4,0.7,7,2.2,9c1.2,1.8,3.3,2.9,5.4,3
					c2.1-0.1,4.1-1.2,5.2-3c1.4-2,2.2-5,2.2-9s-0.7-7-2.2-9C183.1,299,181,297.9,178.9,297.9z"/>
				<path class="st0" d="M77.9,297.9c-2,0-3.8,0.9-5,2.4c-1.5,1.9-2.2,4.1-2.2,6.5h14.3c0-2.1-0.6-4.2-1.7-6
					C82.1,299,80.1,297.9,77.9,297.9z"/>
				<path class="st0" d="M3.1,257.1v98.3h377.1v-98.3H3.1z M32.8,323.2c-1.9,1.9-4.4,3-7.1,2.9c-3.2,0-6.3-1.5-8.2-4.1
					c-2.2-2.7-3.2-6.8-3.2-12.2c0-5.4,1.1-9.4,3.3-12.2c2-2.6,5.1-4.1,8.4-4.1c2.5-0.1,4.8,0.8,6.7,2.4c1.8,1.6,3,4.1,3.5,7.4
					l-4.2,0.8c-0.2-1.7-1-3.4-2.1-4.7c-1-1-2.3-1.6-3.7-1.5c-2.1,0-4.1,1.1-5.3,2.8c-1.4,1.9-2.1,4.9-2.1,9c0,4.2,0.7,7.3,2,9.2
					c1.1,1.8,3.1,2.8,5.1,2.8c1.6,0,3.1-0.7,4.2-1.9c1.3-1.7,2.1-3.7,2.2-5.9l4.2,0.7C36,318.4,34.7,321.2,32.8,323.2z M60.9,325.4
					h-4.3v-19.7c0-2.7-0.5-4.6-1.4-5.8c-1-1.2-2.5-1.8-4-1.8c-1.9,0-3.6,0.8-4.8,2.3c-1.3,1.5-2,4.2-2,8v17h-4.2v-42.9h4.3v15.4
					c0.9-1.3,2.1-2.4,3.4-3.2c1.3-0.7,2.8-1.1,4.2-1.1c2.4-0.1,4.8,0.8,6.4,2.6c1.6,1.7,2.4,4.9,2.3,9.5L60.9,325.4z M89.5,311.2
					h-19c0.2,3.5,1,6.1,2.4,7.9c1.2,1.7,3.2,2.7,5.3,2.7c3.2,0,5.5-2.1,6.8-6.4l4.4,0.7c-0.5,2.9-1.9,5.5-4,7.5
					c-2,1.7-4.6,2.6-7.2,2.5c-3.4,0.1-6.7-1.4-8.8-4.1c-2.2-2.8-3.3-6.7-3.3-11.9c0-5.4,1.1-9.5,3.4-12.3c2-2.7,5.2-4.3,8.6-4.2
					c3.3,0,6.3,1.5,8.3,4.2c2.2,2.8,3.3,6.8,3.3,12L89.5,311.2z M112.1,323.2c-1.9,1.9-4.4,3-7.1,2.9c-3.3,0.1-6.3-1.5-8.2-4.1
					c-2.2-2.7-3.2-6.8-3.2-12.2c0-5.4,1.1-9.4,3.3-12.2c2-2.6,5.1-4.1,8.4-4.1c2.5-0.1,4.8,0.8,6.7,2.5c1.8,1.6,3,4.1,3.5,7.4
					l-4.2,0.8c-0.2-1.7-1-3.4-2.1-4.7c-1-1-2.3-1.6-3.7-1.6c-2.1,0-4.1,1.1-5.3,2.8c-1.4,1.9-2.1,4.9-2.1,9c0,4.2,0.7,7.3,2,9.2
					c1.1,1.8,3.1,2.8,5.1,2.8c1.6,0,3.1-0.7,4.2-1.9c1.3-1.7,2.1-3.7,2.2-5.9l4.2,0.7C115.3,318.4,114.1,321.2,112.1,323.2
					L112.1,323.2z M135.4,325.4l-8.5-16l-3,3.6v12.3h-4.3v-43h4.3V307l10.3-12.7h5.6l-9.8,11.5l10.7,19.6L135.4,325.4z M155.4,325.9
					c-0.8,2.8-1.8,5.6-3,8.2c-0.6,1.2-1.4,2.2-2.5,3c-0.9,0.6-2,0.9-3.1,0.9c-1,0-1.9-0.3-2.8-0.6l-0.5-5c0.8,0.3,1.6,0.4,2.5,0.5
					c0.8,0,1.6-0.2,2.3-0.6c0.6-0.4,1.2-1,1.5-1.7c0.1-0.3,0.7-2,1.7-5.2l-9.7-31.2h4.6l5.3,18c0.7,2.3,1.3,4.7,1.8,7.2
					c0.5-2.4,1.1-4.8,1.8-7.1l5.4-18.1h4.3L155.4,325.9z M187.6,322c-3.8,4.7-10.7,5.5-15.5,1.7c-0.6-0.5-1.2-1-1.7-1.7
					c-2.3-2.8-3.4-6.8-3.4-12.2s1.1-9.4,3.4-12.2c3.8-4.7,10.7-5.5,15.5-1.6c0.6,0.5,1.1,1,1.6,1.6c2.3,2.7,3.4,6.7,3.4,11.8
					C190.9,315.1,189.8,319.3,187.6,322L187.6,322z M216.6,325.4h-3.9v-4.6c-0.8,1.6-2,2.9-3.5,4c-1.4,0.9-2.9,1.3-4.6,1.3
					c-1.8,0.1-3.7-0.5-5.1-1.6c-1.4-1-2.4-2.5-2.9-4.1c-0.5-2.2-0.8-4.5-0.7-6.8v-19.3h4.3v17.2c-0.1,2.2,0.1,4.3,0.5,6.4
					c0.3,1,0.9,2,1.8,2.6c0.9,0.7,1.9,1,3,1c2,0,3.9-0.9,5.1-2.5c1.1-1.5,1.7-4.1,1.7-8v-16.7h4.3L216.6,325.4z M235.8,300.2
					c-0.9-0.7-2-1.1-3.1-1.1c-0.9,0-1.8,0.4-2.5,1c-0.8,0.7-1.4,1.6-1.6,2.7c-0.6,2.1-0.8,4.3-0.8,6.4v16.3h-4.3v-31.2h3.9v4.7
					c0.6-1.6,1.6-3.1,2.7-4.4c0.8-0.7,1.8-1.1,2.8-1.1c1.6,0.1,3.2,0.7,4.4,1.7L235.8,300.2z M257.2,325.4c-0.5-1.2-0.8-2.5-0.9-3.8
					c-1.3,1.4-2.8,2.5-4.5,3.4c-1.5,0.7-3.2,1.1-4.9,1.1c-2.4,0.1-4.7-0.8-6.4-2.4c-1.6-1.7-2.5-4.1-2.4-6.5c0-1.7,0.3-3.3,1.1-4.8
					c0.7-1.3,1.8-2.5,3.1-3.2c1.8-0.9,3.8-1.5,5.9-1.7c2.6-0.3,5.2-0.9,7.7-1.9v-1.3c0-2.1-0.4-3.6-1.1-4.5c-1.3-1.3-3.1-2-4.9-1.9
					c-1.6-0.1-3.2,0.3-4.5,1.2c-1,0.8-1.7,2.4-2.2,4.7l-4.2-0.7c0.6-3.3,1.8-5.8,3.7-7.3c1.9-1.5,4.5-2.3,7.9-2.3
					c2.2-0.1,4.4,0.4,6.3,1.5c1.4,0.8,2.4,2.2,2.9,3.7c0.5,2.1,0.7,4.3,0.6,6.5v7c-0.1,3.1,0,6.2,0.3,9.3c0.2,1.3,0.6,2.5,1.1,3.7
					L257.2,325.4z M289.1,311.2h-19c0.2,3.5,1,6.1,2.4,7.9c1.2,1.7,3.2,2.7,5.3,2.7c3.2,0,5.5-2.1,6.8-6.4l4.4,0.6
					c-0.5,2.9-1.9,5.5-4,7.5c-2,1.7-4.6,2.6-7.2,2.5c-3.4,0.1-6.7-1.4-8.8-4c-2.2-2.7-3.4-6.7-3.4-11.9c0-5.4,1.1-9.5,3.4-12.3
					c2-2.7,5.2-4.3,8.6-4.2c3.3,0,6.3,1.5,8.3,4.2c2.2,2.8,3.3,6.8,3.3,12L289.1,311.2z M306.9,300.2c-0.9-0.7-2-1.1-3.1-1.1
					c-0.9,0-1.8,0.4-2.5,1c-0.8,0.7-1.4,1.6-1.6,2.7c-0.6,2.1-0.8,4.3-0.8,6.4v16.3h-4.3v-31.2h3.9v4.7c0.6-1.6,1.6-3.1,2.7-4.4
					c0.8-0.7,1.8-1.1,2.8-1.1c1.6,0.1,3.2,0.7,4.4,1.7L306.9,300.2z M315.1,325.4h-4.3v-31.1h4.3V325.4z M315.1,288.5h-4.3v-6.1h4.3
					V288.5z M328,325.4h-4.9v-6h4.9V325.4z M352.9,325.4c-0.5-1.2-0.8-2.5-0.9-3.8c-1.3,1.4-2.8,2.5-4.5,3.4
					c-1.5,0.7-3.2,1.1-4.9,1.1c-2.4,0.1-4.7-0.8-6.4-2.4c-1.6-1.7-2.5-4.1-2.4-6.5c0-1.7,0.3-3.3,1.1-4.8c0.7-1.3,1.7-2.5,3-3.2
					c1.8-0.9,3.8-1.5,5.9-1.7c2.6-0.3,5.2-0.9,7.7-1.9v-1.3c0-2.1-0.4-3.6-1.1-4.5c-1.3-1.3-3.1-2-5-1.9c-1.6-0.1-3.2,0.3-4.5,1.2
					c-1,0.8-1.7,2.4-2.2,4.7l-4.2-0.7c0.6-3.3,1.8-5.8,3.7-7.3s4.5-2.3,7.9-2.3c2.2-0.1,4.4,0.4,6.3,1.5c1.4,0.8,2.4,2.2,2.9,3.7
					c0.5,2.1,0.7,4.3,0.6,6.5v7c-0.1,3.1,0,6.2,0.3,9.3c0.2,1.3,0.6,2.6,1.1,3.7L352.9,325.4z M366.9,325.4h-4.2v-43h4.3
					L366.9,325.4z"/>
				<path class="st0" d="M340.9,312.8c-0.7,0.4-1.3,1-1.7,1.7c-0.4,0.8-0.6,1.6-0.6,2.5c-0.1,1.3,0.4,2.6,1.4,3.6
					c1,0.9,2.4,1.4,3.8,1.3c1.5,0,3-0.4,4.2-1.2c1.2-0.8,2.2-1.9,2.8-3.2c0.7-1.9,1-3.8,0.9-5.8v-1.9c-2.3,1-4.6,1.7-7.1,2
					C343.4,311.9,342.1,312.3,340.9,312.8z"/>
				<path id="path3022" class="st0" d="M173.2,89.2h6.3c0.1,2.2,0.1,4.3,0.1,6.5h6.5v6.5h-6.5c0,30.4,0.1,60.9,0,91.3h6.5V187
					c2.2-0.2,4.3-0.1,6.5,0.2c0.2,2.1,0.3,4.3,0.1,6.4c-2.1,0-4.2,0.1-6.4,0c0,2.2,0,4.3-0.2,6.5h-13c-0.2-12.8,0-25.6-0.1-38.4
					C173.1,137.5,173,113.3,173.2,89.2z"/>
				<path id="path3024" class="st0" d="M186.2,102.2h6.5c0,2.2,0.1,4.3,0.1,6.4c2.1,0,4.3,0,6.5,0.1c0,2.2,0,4.3,0.1,6.5l6.5,0.1
					c0,2.1,0,4.3,0.1,6.4c2.1,0,4.2,0,6.4,0.1c0,2.2,0.1,4.3,0.2,6.4c2.1,0.1,4.3,0.1,6.4,0.1c0,2.1,0,4.3,0.1,6.5
					c2.1,0,4.3,0,6.4,0.1c0.1,2.1,0.1,4.2,0.1,6.4c2.2,0.1,4.3,0.1,6.4,0v6.5c-2.2,0.1-4.4,0.1-6.5,0v-6.5h-6.6v-6.6h-6.5v-6.5
					c-2.2-0.1-4.4-0.1-6.6,0v-6.6h-6.5v-6.5h-6.5v-6.5h-6.5C186.2,106.5,186.2,104.3,186.2,102.2L186.2,102.2z"/>
				<path id="path3028" class="st0" d="M231.9,147.8c2.2-0.1,4.3,0,6.5,0.1c0,2.1,0.1,4.3,0.1,6.4c2.1,0,4.3,0,6.4,0.1v6.5h6.5
					c0.1,4.3,0.1,8.7,0,13c-8.6,0.1-17.3,0.1-25.9,0.1c0,2.1,0,4.2-0.1,6.4c-2.2,0.1-4.4,0.1-6.5,0.1c-0.1-4.4-0.1-8.7,0-13.1
					c8.7,0,17.4,0,26.1,0v-6.5h-6.5v-6.5h-6.4C231.9,152.2,231.9,150,231.9,147.8L231.9,147.8z"/>
				<path id="path3032" class="st0" d="M199.2,173.9h6.5c0.1,2.2,0.1,4.5-0.1,6.7c-2,0.2-4.1,0.1-6.1,0.1c0,2.1,0,4.2-0.1,6.3
					c-2.2,0.2-4.3,0.1-6.5-0.1c-0.3-2.1-0.4-4.3-0.2-6.4h6.5L199.2,173.9L199.2,173.9z"/>
				<path id="path3034" class="st0" d="M205.6,180.6c2.2-0.2,4.5-0.2,6.7-0.1v13h6.5v13c4.4,0.1,8.7-0.1,13.1,0.1
					c0.2,2.2,0.2,4.4-0.1,6.5h-13.1c0-2.2,0-4.3-0.1-6.5c-2.1,0-4.3,0-6.4-0.1c-0.1-4.3,0-8.6-0.1-13c-2.1,0-4.3,0-6.5-0.1
					C205.9,189.2,205,184.9,205.6,180.6L205.6,180.6z"/>
				<path id="path3036" class="st0" d="M225.4,180.5c2.2-0.1,4.4,0,6.5,0c0,4.3,0,8.6,0.1,13c2.1,0,4.3,0,6.4,0.1
					c0,4.4,0.1,8.7,0,13.1c-2.1,0.1-4.3,0.1-6.4,0c-0.2-4.4,0-8.7-0.1-13c-2.2,0-4.4,0-6.6-0.1C225.3,189.2,225.3,184.9,225.4,180.5
					L225.4,180.5z"/>
				<path class="st1" d="M125,113.4c-12,0-23.4-0.8-24.8-6.9c-1.6-7,10.2-14.3,20.5-19.2c12.9-6.2,30.6-12.2,48.6-16.4
					s36.5-6.6,50.6-6.6c10.9,0,24.3,1.4,25.9,8.4l0.1,0.5l-0.3,0.1c1,6.8-10.2,13.7-19.9,18.3c-12.4,5.9-29.9,11.7-48,15.9
					C160.4,111.3,142.7,113.3,125,113.4z M222.4,67.6c-13.7,0-33,4-51.9,8.4s-36.3,10.1-48.6,16c-11.1,5.2-17.3,10.2-16.5,13.4
					c0.6,2.6,6.7,5.3,22,5.3c13.8,0,31.5-2.3,49.6-6.6c42.7-9.9,67.9-24.9,66.5-30.9C242.9,70.5,235.3,67.6,222.4,67.6L222.4,67.6z"
					/>
				<path class="st1" d="M219.9,64.8c14.1,0,24.1,2.4,25.4,8l-0.2,0.1c2.6,11.3-32.3,25.9-67.4,34.1c-17.3,3.9-34.9,5.9-52.7,6
					c-13.2,0-23.1-1.1-24.3-6.5c-2.6-11.3,33.6-26.8,68.7-35C187.1,67.4,205.6,64.9,219.9,64.8 M127.4,111.2c12.7,0,29.9-2,49.7-6.6
					c40.9-9.5,68.5-24.7,66.9-31.5c-0.8-3.3-9.3-6-21.7-6c-13,0-31,3.6-52,8.4c-40.9,9.5-67.1,23.1-65.5,29.9
					C105.7,109,114,111.2,127.4,111.2 M219.9,63.8L219.9,63.8c-14.1,0-32.6,2.4-50.7,6.6s-35.8,10.2-48.7,16.4
					c-10.4,5-22.4,12.5-20.7,19.8c1.5,6.4,13,7.3,25.3,7.3c17.8-0.1,35.5-2.1,52.9-6c28.4-6.6,69.3-21,68.3-34.3l0.3-0.1l-0.2-1
					C244.7,65.3,231.1,63.8,219.9,63.8L219.9,63.8z M127.4,110.1c-10.2,0-20.8-1.5-21.5-4.9c-1.2-5.4,22.8-18.9,64.8-28.7
					c18.8-4.4,38.1-8.4,51.8-8.4c13.4,0,20.2,3.1,20.7,5.2c0.8,3.2-8,9.2-17,13.6c-13,6.4-30.4,12.3-49.2,16.7
					C158.8,107.8,141.2,110.1,127.4,110.1L127.4,110.1z"/>
				<path class="st1" d="M108.9,122.3c-21.5,0-32.3-3.2-33.8-10c-2.2-9.5,14.4-18.7,27.2-24.8c22.7-10.9,46.5-19.4,71-25.2
					c26.2-6.1,53.1-9.6,73.8-9.6c15.2,0,33.7,1.9,36.4,10.8l0.6-0.1l0.1,0.5c3.7,15.9-48.4,38.4-98.8,50.1
					C162.2,119.3,134.4,122.3,108.9,122.3z M249.5,56.1c-19.3,0-46.1,3.7-75.3,10.5c-27.7,6.4-52.8,14.7-70.8,23.3
					c-15.8,7.6-25.2,16-24,21.3c1.2,5.1,12.9,8.1,31.4,8.1c20,0,46-3.5,73.4-9.8c58.3-13.5,96.7-33.9,95.7-44.2l-0.7,0.2l-0.1-0.5
					C278.1,60.9,269.8,56.1,249.5,56.1z"/>
				<path class="st1" d="M246.9,53.2c20.1,0,34.3,3.3,36,10.9l0.5-0.1c3.5,15.3-47.2,37.6-98.5,49.5c-26.9,6.3-55.2,8.4-76.2,8.4
					c-18.9,0-31.7-2.3-33.4-9.6c-2-8.8,13.4-17.8,26.9-24.3C125,77,148.8,68.6,173.2,62.8C199.2,56.8,226.2,53.2,246.9,53.2
					 M110.8,119.9c18.4,0,43.7-3,73.5-9.9c60.5-14.1,98.4-35,96-45.4l-0.7,0.2c-1.2-5.2-11.6-9.2-30.1-9.2
					c-18.7,0-44.9,3.5-75.4,10.6c-27.3,6.3-52.6,14.6-70.9,23.4c-17.2,8.3-25.5,16.6-24.3,21.9S91.8,119.9,110.8,119.9 M246.9,52.2
					c-20.7,0-47.6,3.5-73.9,9.6c-24.5,5.8-48.4,14.3-71.1,25.3c-8.8,4.2-15,7.8-19.5,11.4c-6.3,4.9-9,9.7-8,14
					c1.7,7.2,12.3,10.4,34.3,10.4c25.5,0,53.4-3.1,76.4-8.4c25.8-6,51.3-14.6,70-23.6c14.6-7,31.5-17.4,29.2-27.2l-0.2-1l-0.6,0.2
					C280.4,54.1,262.1,52.2,246.9,52.2z M110.8,118.9c-14.1,0-29.6-2-30.9-7.7c-1-4.2,6-12.2,23.8-20.7c18-8.6,43-16.9,70.7-23.3
					c29.2-6.8,55.9-10.5,75.2-10.5c8.6,0,16,0.9,21.2,2.6c4.6,1.5,7.4,3.6,7.9,5.8l0.2,1l0.5-0.1c-0.3,5.5-12.3,13.4-23.9,19.2
					c-18.1,9-43.5,17.5-71.4,24C156.8,115.5,130.7,119,110.8,118.9L110.8,118.9z"/>
				<path class="st1" d="M147.5,103.2c-7.9,0-12.7-2-13.6-5.8c-2-8.4,23.3-16.7,38.6-20.2c9.6-2.3,19.4-3.5,29.3-3.7h1.7
					c8.9,0,13.2,1.4,14,4.5c0.8,3.4-3,7-12,11.3c-8.9,4.4-18.2,7.8-27.9,10.2C167.8,101.7,157.7,103,147.5,103.2z M201.5,76
					c-8,0.1-18.8,2.5-28.2,4.7c-14.1,3.3-23.2,7-28.3,9.6c-6.7,3.3-8.9,5.8-8.7,6.6s2.8,1.7,9.4,1.7l0,0c8,0,18.9-1.5,30.7-4.2
					c10.4-2.4,20.4-4.9,27.5-8.3c7.4-3.6,8.6-6.1,8.4-6.8v-0.1c0-0.2,0.1-0.3,0.2-0.4c-0.9-0.5-3.4-1.2-10.3-1.2
					c-0.5,0-0.6-0.5-0.8-1.1C201.6,76.2,201.5,76.1,201.5,76z"/>
				<path class="st1" d="M203.5,74c8,0,12.8,1.1,13.5,4.1c0.8,3.3-3.6,6.8-11.7,10.7c-8.9,4.4-18.2,7.8-27.8,10.2
					c-9.8,2.3-19.9,3.5-30,3.8c-7.6,0-12.3-1.9-13.1-5.4c-1.8-7.7,21.5-15.8,38.2-19.6c9.6-2.3,19.3-3.5,29.2-3.7H203.5 M145.7,99.1
					c7,0,17.4-1.1,30.9-4.3c10.6-2.5,20.5-4.9,27.6-8.3c7.9-3.8,8.9-6.5,8.7-7.4l0.7-0.2c-0.2-0.9-2.9-2-11.2-2
					c-0.2,0-0.4-1.4-0.6-1.4l0,0c-7.9,0.1-18,2.2-28.6,4.7c-25.3,5.9-37.9,14.2-37.3,16.8C136.2,98.2,139.6,99.1,145.7,99.1
					 M203.5,73h-1.8c-9.9,0.2-19.8,1.4-29.4,3.7c-4.2,1-41.4,10-38.9,20.8c0.9,4,5.9,6.2,14.1,6.2c10.2-0.2,20.3-1.5,30.2-3.8
					c9.7-2.4,19.1-5.8,28-10.2c9.2-4.4,13.1-8.2,12.3-11.8C217,73.5,209.8,73,203.5,73L203.5,73z M136.9,96.7
					c0.1-0.5,1.8-2.8,8.9-6.3c5-2.5,13.9-6.1,27.6-9.3c9.3-2.2,19.8-4.5,27.7-4.6c0.2,0.6,0.4,1.4,1.2,1.4c5.8,0,8.4,0.5,9.5,0.9
					v0.1l0.1,0.4c0,0-0.2,2.4-8.2,6.3c-7.1,3.4-17,5.8-27.4,8.3c-11.8,2.7-22.6,4.2-30.6,4.2C139.5,98.1,137.3,97.1,136.9,96.7
					L136.9,96.7z"/>
			</g>
		</g>
	</g>
</g>
<g>
	<g>
		<path class="st0" d="M176.2,116.7l89.4-41.3l5.9-0.4l10.1-5.2c0.3-0.7,0.5-1.4,0.7-2.1l0,0c0.1-0.5,0.2-1,0.2-1.4l-113.3,51.9
			C171.7,117.6,173.9,117.2,176.2,116.7z"/>
		<path class="st0" d="M247.1,76.7l33.4-16.1c-0.3-0.4-0.8-0.8-1.2-1.1l-146.1,63.7c1.8-0.2,3.6-0.3,5.5-0.5l103.7-45.5L247.1,76.7z
			"/>
		<path class="st0" d="M210,79.5L240,66.1l27.9-11.4c-1.3-0.3-2.7-0.6-4.1-0.8l-32,14.1L96.4,122.9c1.2,0.2,2.5,0.3,3.7,0.5
			l106.7-43.7L210,79.5z"/>
		<path class="st0" d="M155.9,120.4l98-44.2l5.3-0.4l23.1-11.5c-0.2-0.7-0.4-1.3-0.7-2l-131.8,58.9
			C151.8,121,153.8,120.8,155.9,120.4z"/>
		<path class="st0" d="M201,110.7l78.2-37.1c0.5-0.7,1.1-1.4,1.5-2.1L193,112.8C195.7,112.1,198.4,111.4,201,110.7z"/>
		<path class="st0" d="M197.7,80.3l26.3-11.4l38.2-15.3c-1.7-0.2-3.5-0.5-5.4-0.6l-41.4,17.9l-127,50.4c1,0.2,2,0.5,3.1,0.7
			l103.5-41.5L197.7,80.3z"/>
		<path class="st0" d="M239.3,97.9L263.7,86c3-1.8,5.7-3.6,8-5.3l-46.9,22.7C229.9,101.6,234.7,99.8,239.3,97.9z"/>
		<path class="st0" d="M234.7,77.7l36.8-17.3L277,58c-0.6-0.3-1.2-0.7-1.9-1l-11,5.1l-145.3,61.8c1.6,0,3.2-0.1,4.9-0.2l106.9-45.8
			L234.7,77.7z"/>
		<path class="st0" d="M222.4,78.5l33.4-15.3l17-7.1c-0.9-0.3-1.9-0.6-3-0.9l-21.9,9.9l-141.4,58.7c1.4,0.1,2.9,0.1,4.3,0.1
			l107.8-45.1L222.4,78.5z"/>
		<path class="st0" d="M172.7,82.2l18.8-7.8l56.9-21.8c-1.1,0-2.3,0-3.4-0.1l-0.6,0c-2.5,0-5.2,0-8,0.1l-1.1,0.1
			c-2.8,0.1-5.7,0.3-8.7,0.5l-1.5,0.1c-3.2,0.3-6.4,0.6-9.7,1l-1.8,0.2c-3.7,0.5-7.6,1-11.6,1.6l-2.1,0.3c-4.8,0.8-9.9,1.7-15,2.7
			l-1.8,0.4c-0.3,0.1-0.6,0.1-0.9,0.2c-30.9,6.4-59.8,16.2-79.9,26.4l56.5-19.4l-55.3,20.4l0.4,0l-9.2,3.2c-2.2,1.3-4.3,2.6-6.1,3.9
			l86.6-30.2l-59,22.2l0.1,0L84.1,97.6c-1.3,1-2.3,2-3.4,3.1l41.5-14.8l0.3,0l3.6-1.4l65.1-23.1l-59,22.7l-53.9,19.3
			c-0.6,0.8-1.2,1.7-1.6,2.5L134.5,85l0.7-0.1l7.4-2.9l64.9-23.5l-58.6,23l-73.1,26.7l0,0.1c-0.2,0.7-0.3,1.3-0.3,1.9l71.2-26.3
			l1.1-0.1l11.2-4.4l64.6-23.8L165.6,79l-89.9,33.5c0.2,0.6,0.4,1.1,0.7,1.7l82.4-31l1.4-0.1l15-6.1l64-24.1l-57.1,23.5L77.8,116.1
			c0.5,0.5,0.9,0.9,1.6,1.4l91.5-35.1L172.7,82.2z"/>
		<path class="st0" d="M185.3,81.3l22.6-9.6l47.9-18.8c-1-0.1-2-0.1-3-0.2l-0.2,0c-1.2-0.1-2.3-0.1-3.5-0.2l-50.2,21.1L82.1,119
			c0.8,0.4,1.6,0.7,2.4,1.1l98.5-38.6L185.3,81.3z"/>
	</g>
</g>
</svg>
