<svg xmlns="http://www.w3.org/2000/svg" viewBox="0 0 383.17 360.69"><defs><style>.cls-1{fill:#fff;}</style></defs><g id="Layer_2" data-name="Layer 2"><g id="Layer_1-2" data-name="Layer 1"><g id="Layer_2-2" data-name="Layer 2"><g id="Layer_1-2-2" data-name="Layer 1-2"><path class="cls-1" d="M383.17,360.69H0V0H383.17ZM6,354.69H377.17V6H6Z"/><path class="cls-1" d="M277.56,297.91a6.26,6.26,0,0,0-4.95,2.42,10.58,10.58,0,0,0-2.25,6.51H284.6a12,12,0,0,0-1.73-6A6.31,6.31,0,0,0,277.56,297.91Z"/><path class="cls-1" d="M245.16,312.84a4.17,4.17,0,0,0-1.68,1.7,5.17,5.17,0,0,0-.6,2.53,4.76,4.76,0,0,0,1.37,3.56,5.25,5.25,0,0,0,3.81,1.33,7.71,7.71,0,0,0,4.21-1.2,7.43,7.43,0,0,0,2.82-3.21,14.17,14.17,0,0,0,.94-5.84v-1.94a27,27,0,0,1-7.06,2A13.15,13.15,0,0,0,245.16,312.84Z"/><path class="cls-1" d="M178.86,297.91a6.35,6.35,0,0,0-5.24,3q-2.18,3-2.17,8.95c0,4,.73,7,2.2,9a6.59,6.59,0,0,0,5.45,2.95,6.39,6.39,0,0,0,5.23-3c1.45-2,2.18-5,2.18-9s-.73-7-2.2-9A6.56,6.56,0,0,0,178.86,297.91Z"/><path class="cls-1" d="M77.91,297.91a6.27,6.27,0,0,0-5,2.42,10.58,10.58,0,0,0-2.25,6.51H84.94a11.88,11.88,0,0,0-1.73-6A6.31,6.31,0,0,0,77.91,297.91Z"/><path class="cls-1" d="M3.1,257.1v98.28H380.17V257.1Zm29.67,66.06a9.64,9.64,0,0,1-7.07,2.93A10.06,10.06,0,0,1,17.45,322q-3.24-4.12-3.24-12.18t3.27-12.17a10.32,10.32,0,0,1,8.39-4.06A9.56,9.56,0,0,1,32.54,296c1.81,1.64,3,4.11,3.47,7.39l-4.19.76a9.07,9.07,0,0,0-2.14-4.71A4.92,4.92,0,0,0,26,297.91a6.34,6.34,0,0,0-5.29,2.83q-2.09,2.82-2.09,9,0,6.34,2,9.2a6.06,6.06,0,0,0,5.14,2.84,5.5,5.5,0,0,0,4.2-1.89A10.31,10.31,0,0,0,32.2,314l4.25.68Q35.72,320.24,32.77,323.16Zm28.11,2.23h-4.3V305.67c0-2.69-.48-4.63-1.44-5.8a4.82,4.82,0,0,0-4-1.76,6.16,6.16,0,0,0-4.79,2.26q-2,2.25-2,8v17H40.11V282.44h4.31v15.41a10.6,10.6,0,0,1,3.44-3.21,8.59,8.59,0,0,1,4.24-1.07,8.28,8.28,0,0,1,6.43,2.6q2.36,2.58,2.35,9.5Zm28.6-14.21h-19c.17,3.5,1,6.13,2.43,7.91a6.56,6.56,0,0,0,5.27,2.67q4.86,0,6.77-6.39l4.45.67a13.48,13.48,0,0,1-4,7.52,10.6,10.6,0,0,1-7.22,2.53A10.77,10.77,0,0,1,69.34,322Q66,317.86,66,310.1q0-8.06,3.39-12.29a10.49,10.49,0,0,1,8.57-4.24,10.17,10.17,0,0,1,8.26,4.16q3.3,4.17,3.31,12Zm22.63,12a9.64,9.64,0,0,1-7.08,2.93A10,10,0,0,1,96.79,322q-3.24-4.12-3.24-12.18t3.27-12.17a10.29,10.29,0,0,1,8.39-4.06,9.56,9.56,0,0,1,6.67,2.46c1.8,1.64,3,4.11,3.47,7.39l-4.19.76a9.15,9.15,0,0,0-2.14-4.71,5,5,0,0,0-3.66-1.56,6.33,6.33,0,0,0-5.29,2.83q-2.1,2.82-2.1,9,0,6.34,2,9.2a6.07,6.07,0,0,0,5.14,2.84,5.54,5.54,0,0,0,4.21-1.89,10.31,10.31,0,0,0,2.21-5.88l4.25.68Q115.06,320.24,112.11,323.16Zm23.26,2.23-8.48-15.95-3,3.62v12.33h-4.3V282.44h4.3V307l10.27-12.69h5.6L130,305.83l10.72,19.56Zm20,.53a56.94,56.94,0,0,1-3,8.21,7.93,7.93,0,0,1-2.5,3,5.69,5.69,0,0,1-3.15.91,7.44,7.44,0,0,1-2.79-.65l-.47-4.95a8.27,8.27,0,0,0,2.47.47,4.27,4.27,0,0,0,2.27-.56,4.19,4.19,0,0,0,1.48-1.73c.14-.27.7-2,1.7-5.16l-9.7-31.16h4.65l5.34,18q1,3.38,1.84,7.21c.49-2.42,1.08-4.79,1.76-7.09l5.45-18.12H165Zm32.2-3.93a11,11,0,0,1-17.12,0Q167,317.86,167,309.83t3.38-12.16a11,11,0,0,1,17.1,0q3.42,4.11,3.42,11.84Q190.93,317.9,187.56,322Zm29,3.4h-3.87v-4.57a11.05,11.05,0,0,1-3.52,3.95,8.15,8.15,0,0,1-4.57,1.32,8.27,8.27,0,0,1-5.15-1.62,7.79,7.79,0,0,1-2.86-4.12,25.48,25.48,0,0,1-.72-6.8V294.28h4.31v17.25a27.38,27.38,0,0,0,.48,6.43,4.94,4.94,0,0,0,1.79,2.61,4.84,4.84,0,0,0,3,1,6.2,6.2,0,0,0,5.1-2.55c1.13-1.46,1.7-4.15,1.7-8.05V294.28h4.34Zm19.19-25.22a5.41,5.41,0,0,0-3.14-1.15,3.78,3.78,0,0,0-2.52,1,5.17,5.17,0,0,0-1.61,2.69,24.29,24.29,0,0,0-.82,6.42v16.29h-4.31V294.28h3.9V299a13.5,13.5,0,0,1,2.74-4.35,4.19,4.19,0,0,1,2.8-1.07,7.39,7.39,0,0,1,4.42,1.7Zm21.47,25.22a13.08,13.08,0,0,1-.88-3.84,15.94,15.94,0,0,1-4.51,3.4,11,11,0,0,1-4.86,1.14,8.53,8.53,0,0,1-6.36-2.4,8.81,8.81,0,0,1-2.37-6.47,10,10,0,0,1,1.11-4.78,8.24,8.24,0,0,1,3.05-3.25,16,16,0,0,1,5.86-1.73,32.63,32.63,0,0,0,7.73-1.85l0-1.34c0-2.13-.38-3.63-1.14-4.49a6.19,6.19,0,0,0-4.95-1.87,6.94,6.94,0,0,0-4.52,1.25c-1,.84-1.72,2.4-2.19,4.7l-4.25-.71q.9-5,3.68-7.29t7.92-2.29a11.37,11.37,0,0,1,6.3,1.51,6.52,6.52,0,0,1,2.89,3.74,26.57,26.57,0,0,1,.6,6.5v7a92.3,92.3,0,0,0,.27,9.3,14.31,14.31,0,0,0,1.1,3.74Zm31.88-14.21H270.09c.18,3.5,1,6.13,2.43,7.91a6.59,6.59,0,0,0,5.28,2.67q4.86,0,6.77-6.39L289,316a13.55,13.55,0,0,1-4,7.52,10.6,10.6,0,0,1-7.22,2.53A10.8,10.8,0,0,1,269,322q-3.35-4.12-3.35-11.88,0-8.06,3.38-12.29a10.52,10.52,0,0,1,8.57-4.24,10.16,10.16,0,0,1,8.26,4.16q3.31,4.17,3.32,12Zm17.75-11a5.38,5.38,0,0,0-3.13-1.15,3.78,3.78,0,0,0-2.52,1,5.18,5.18,0,0,0-1.62,2.69,24.71,24.71,0,0,0-.82,6.42v16.29h-4.3V294.28h3.89V299a13.5,13.5,0,0,1,2.74-4.35,4.21,4.21,0,0,1,2.8-1.07,7.37,7.37,0,0,1,4.42,1.7Zm8.29,25.22h-4.31V294.28h4.31Zm0-36.89h-4.31v-6.06h4.31Zm12.89,36.89h-4.92v-6h4.92Zm24.9,0a12.79,12.79,0,0,1-.87-3.84,16,16,0,0,1-4.52,3.4,11,11,0,0,1-4.86,1.14,8.53,8.53,0,0,1-6.36-2.4,8.81,8.81,0,0,1-2.37-6.47,10,10,0,0,1,1.11-4.78,8.31,8.31,0,0,1,3-3.25,16,16,0,0,1,5.86-1.73,32.63,32.63,0,0,0,7.73-1.85l0-1.34c0-2.13-.38-3.63-1.14-4.49a6.16,6.16,0,0,0-4.95-1.87,6.91,6.91,0,0,0-4.51,1.25c-1,.84-1.73,2.4-2.2,4.7l-4.25-.71c.61-3.34,1.83-5.77,3.68-7.29s4.49-2.29,7.92-2.29a11.37,11.37,0,0,1,6.3,1.51,6.48,6.48,0,0,1,2.89,3.74,26.57,26.57,0,0,1,.6,6.5v7a88,88,0,0,0,.28,9.3,13.59,13.59,0,0,0,1.1,3.74Zm14,0H362.7V282.44H367Z"/><path class="cls-1" d="M340.87,312.84a4.17,4.17,0,0,0-1.68,1.7,5.17,5.17,0,0,0-.6,2.53,4.73,4.73,0,0,0,1.38,3.56,5.21,5.21,0,0,0,3.8,1.33,7.68,7.68,0,0,0,4.21-1.2,7.51,7.51,0,0,0,2.83-3.21,14.37,14.37,0,0,0,.93-5.84v-1.94a27,27,0,0,1-7.06,2A13.35,13.35,0,0,0,340.87,312.84Z"/><path id="path3022" class="cls-1" d="M173.17,89.19h6.34c.09,2.16.13,4.32.14,6.48h6.5v6.46H179.6c0,30.44.06,60.88,0,91.32h6.48V187a32.64,32.64,0,0,1,6.48.16,34.64,34.64,0,0,1,.1,6.44c-2.12,0-4.24.05-6.36,0,0,2.16,0,4.32-.17,6.47h-13c-.18-12.81,0-25.62-.08-38.44C173.11,137.52,173,113.35,173.17,89.19Z"/><path id="path3024" class="cls-1" d="M186.18,102.18h6.49c0,2.15.06,4.29.07,6.44,2.15,0,4.3,0,6.46.07,0,2.15,0,4.31.11,6.47l6.47.07c0,2.14,0,4.3.05,6.44q3.19,0,6.37.07c0,2.15.09,4.3.16,6.45,2.15.05,4.3.05,6.45.06,0,2.15,0,4.31.05,6.46,2.15,0,4.3,0,6.44.15q.09,3.18.09,6.37,3.23.08,6.45,0v6.48c-2.18.11-4.36.09-6.54,0v-6.48h-6.56v-6.55h-6.49v-6.49c-2.19-.05-4.37-.05-6.56,0v-6.56h-6.48V115.1H192.7v-6.46h-6.46c-.06-2.18-.06-4.36-.05-6.53Z"/><path id="path3028" class="cls-1" d="M231.93,147.8c2.16-.06,4.32,0,6.48.14,0,2.14.06,4.27.09,6.41,2.15,0,4.29,0,6.45.07v6.48h6.47c.08,4.34.06,8.67,0,13-8.65.1-17.3.1-25.95.12,0,2.12,0,4.25-.1,6.38-2.18.11-4.36.08-6.54.07q-.09-6.54,0-13.06c8.69,0,17.39,0,26.08,0v-6.54h-6.52v-6.48h-6.45c-.08-2.2-.08-4.41,0-6.61Z"/><path id="path3032" class="cls-1" d="M199.22,173.94h6.48a39.47,39.47,0,0,1-.12,6.7c-2,.16-4.07.14-6.1.12,0,2.1,0,4.2-.1,6.3a31.19,31.19,0,0,1-6.48-.13,27.83,27.83,0,0,1-.2-6.45h6.49V174Z"/><path id="path3034" class="cls-1" d="M205.58,180.64a53.52,53.52,0,0,1,6.7-.13v13h6.52v13c4.36.06,8.72-.14,13.08.12a33.14,33.14,0,0,1-.07,6.53H218.68c0-2.16,0-4.31-.06-6.47-2.13,0-4.28,0-6.42-.07-.07-4.32,0-8.64-.1-13-2.15,0-4.31,0-6.46-.12.23-4.31-.62-8.62-.12-12.91Z"/><path id="path3036" class="cls-1" d="M225.36,180.46c2.17-.1,4.35,0,6.52,0,0,4.32,0,8.64.05,13,2.15,0,4.29,0,6.44.1,0,4.36.08,8.72,0,13.08-2.14.05-4.3.11-6.44,0-.25-4.35,0-8.7-.09-13-2.18,0-4.37,0-6.55-.06,0-4.36,0-8.73.06-13.09Z"/><path class="cls-1" d="M125,113.4c-12,0-23.39-.83-24.8-6.87-1.61-7,10.25-14.31,20.48-19.24,12.93-6.24,30.65-12.2,48.61-16.38s36.48-6.59,50.59-6.59c10.94,0,24.33,1.45,25.94,8.38l.11.48-.26.07c1,6.78-10.22,13.66-19.93,18.28-12.42,5.92-29.9,11.71-48,15.91A243.74,243.74,0,0,1,125,113.4Zm97.35-45.79c-13.68,0-33,4-51.86,8.43s-36.26,10.07-48.6,16c-11.08,5.25-17.27,10.25-16.55,13.36.6,2.57,6.7,5.31,22,5.31,13.83,0,31.46-2.33,49.63-6.55,42.69-9.92,67.93-24.9,66.54-30.86-.62-2.76-8.24-5.65-21.16-5.65Z"/><path class="cls-1" d="M219.93,64.82c14.09,0,24.15,2.4,25.45,8l-.24.06c2.62,11.28-32.31,25.93-67.42,34.08a243.77,243.77,0,0,1-52.67,6c-13.24,0-23.07-1.14-24.31-6.49-2.62-11.27,33.6-26.85,68.72-35,17.68-4.11,36.16-6.58,50.47-6.58m-92.51,46.32c12.65,0,29.88-2,49.75-6.56C218.1,95.14,245.66,80,244.08,73.18c-.77-3.32-9.33-6-21.68-6-13,0-31,3.58-52,8.45-40.94,9.51-67.1,23.08-65.52,29.89.81,3.5,9.09,5.69,22.52,5.69m92.53-47.39h0c-14.15,0-32.63,2.41-50.7,6.61s-35.76,10.16-48.72,16.41c-10.4,5-22.44,12.51-20.74,19.8,1.48,6.38,13,7.26,25.28,7.26a244.45,244.45,0,0,0,52.89-6c28.42-6.6,69.27-21,68.32-34.3l.32-.07-.22-1c-1.69-7.24-15.3-8.76-26.43-8.76Zm-92.51,46.32c-10.16,0-20.76-1.52-21.55-4.92-1.25-5.4,22.78-18.93,64.78-28.69,18.82-4.37,38.12-8.42,51.75-8.42,13.44,0,20.2,3.06,20.71,5.23.75,3.23-8,9.16-17,13.6-13,6.38-30.42,12.3-49.19,16.67-18.13,4.21-35.72,6.53-49.52,6.53Z"/><path class="cls-1" d="M108.93,122.35c-21.51,0-32.27-3.17-33.85-10-2.21-9.5,14.45-18.73,27.17-24.85a349.9,349.9,0,0,1,71-25.23c26.19-6.09,53.07-9.58,73.76-9.58,15.19,0,33.69,1.88,36.38,10.76l.57-.14.11.49c3.7,15.93-48.41,38.43-98.81,50.14C162.22,119.29,134.4,122.35,108.93,122.35ZM249.52,56.12c-19.31,0-46.05,3.74-75.3,10.54C146.56,73.08,121.43,81.39,103.44,90c-15.82,7.61-25.25,16-24,21.3,1.17,5.06,12.92,8.08,31.41,8.08,20,0,46-3.49,73.35-9.85C242.51,96,280.93,75.59,279.93,65.29l-.67.15-.11-.48C278.15,60.88,269.83,56.12,249.52,56.12Z"/><path class="cls-1" d="M246.93,53.2c20.07,0,34.27,3.31,36,10.85l.55-.13C287,79.24,236.25,101.57,185,113.46c-26.94,6.26-55.17,8.39-76.19,8.39-18.92,0-31.68-2.35-33.37-9.61-2-8.85,13.4-17.78,26.91-24.28a349.58,349.58,0,0,1,70.88-25.2c26-6,52.94-9.56,73.64-9.56M110.84,119.92c18.4,0,43.74-3,73.46-9.86,60.54-14.06,98.39-35,96-45.38l-.7.16c-1.19-5.15-11.62-9.22-30.06-9.22-18.72,0-44.93,3.47-75.41,10.55-27.32,6.35-52.6,14.62-70.89,23.42-17.19,8.26-25.51,16.64-24.31,21.86s12.83,8.47,31.9,8.47M246.93,52.2c-20.73,0-47.65,3.49-73.87,9.59A350.21,350.21,0,0,0,102,87.06C93.2,91.28,87,94.89,82.5,98.43c-6.3,4.95-9,9.67-8,14,1.67,7.18,12.26,10.38,34.34,10.38,25.54,0,53.39-3.06,76.42-8.42,25.83-6,51.33-14.58,70-23.55,14.58-7,31.49-17.44,29.23-27.18l-.23-1-.61.15C280.42,54.08,262.07,52.2,246.93,52.2ZM110.84,118.92c-14.08,0-29.61-2-30.93-7.7-1-4.16,6-12.19,23.75-20.73,18-8.64,43.05-16.93,70.67-23.35,29.22-6.78,55.92-10.52,75.19-10.52,8.62,0,16,.91,21.19,2.63,4.57,1.5,7.38,3.57,7.9,5.82l.23,1,.55-.13c-.3,5.52-12.29,13.41-23.94,19.18-18.15,9-43.5,17.52-71.37,24-27.32,6.34-53.33,9.83-73.24,9.83Z"/><path class="cls-1" d="M147.53,103.21c-7.9,0-12.72-2-13.59-5.79-2-8.45,23.31-16.7,38.55-20.24a139.79,139.79,0,0,1,29.31-3.66h1.74c8.94,0,13.25,1.39,14,4.5.78,3.37-3,7-12,11.26a134.87,134.87,0,0,1-27.88,10.16A146.32,146.32,0,0,1,147.53,103.21Zm54-27.21c-8,.12-18.77,2.46-28.22,4.66-14.14,3.28-23.17,7-28.26,9.57-6.66,3.34-8.85,5.82-8.67,6.6s2.79,1.73,9.36,1.73h0c8,0,18.93-1.51,30.74-4.25,10.44-2.42,20.39-4.89,27.5-8.31,7.4-3.56,8.6-6.14,8.44-6.84v-.11a.43.43,0,0,1,.25-.42c-.9-.47-3.42-1.24-10.28-1.24-.47,0-.6-.47-.76-1.06A1.18,1.18,0,0,1,201.53,76Z"/><path class="cls-1" d="M203.54,74c8,0,12.79,1.08,13.49,4.11.76,3.26-3.61,6.8-11.71,10.7A136.58,136.58,0,0,1,177.55,99a147.14,147.14,0,0,1-30,3.76c-7.55,0-12.29-1.92-13.1-5.4-1.78-7.66,21.49-15.77,38.18-19.64A138.65,138.65,0,0,1,201.81,74h1.73m-57.8,25.08c7,0,17.43-1.14,30.85-4.26,10.59-2.46,20.54-4.94,27.61-8.34,7.92-3.82,8.91-6.54,8.71-7.41l.71-.16c-.19-.86-2.89-2-11.24-2-.18,0-.37-1.39-.56-1.39h0c-7.85.06-18,2.21-28.62,4.67C147.93,86.08,135.29,94.36,135.93,97c.29,1.22,3.7,2.12,9.85,2.12M203.54,73h-1.75a139.35,139.35,0,0,0-29.41,3.68c-4.25,1-41.45,10-38.92,20.84.92,4,5.92,6.17,14.07,6.17a146.81,146.81,0,0,0,30.25-3.79,135.44,135.44,0,0,0,28-10.2c9.2-4.43,13.1-8.18,12.26-11.82-1-4.34-8.26-4.89-14.47-4.89ZM136.93,96.74c.12-.53,1.83-2.81,8.94-6.3,5-2.47,13.89-6.08,27.6-9.26,9.28-2.16,19.79-4.46,27.73-4.64.17.63.39,1.38,1.23,1.38,5.76,0,8.36.54,9.5.94v.06l.09.39s-.16,2.42-8.18,6.27c-7.06,3.4-17,5.85-27.39,8.27-11.77,2.74-22.65,4.24-30.63,4.24-6.35,0-8.53-1-8.86-1.35Z"/></g></g></g></g></svg>