<?xml version="1.0" encoding="utf-8"?>
<!-- Generator: Adobe Illustrator 25.2.2, SVG Export Plug-In . SVG Version: 6.00 Build 0)  -->
<svg version="1.1" id="Layer_1" xmlns="http://www.w3.org/2000/svg" xmlns:xlink="http://www.w3.org/1999/xlink" x="0px" y="0px"
	 viewBox="0 0 245 240" style="enable-background:new 0 0 245 240;" xml:space="preserve">
<style type="text/css">
	.st0{fill:#FFFFFF;}
</style>
<g>
	<g>
		<path class="st0" d="M107.7,230.5l98.7-67.6l6.3,3.7l13.7-11c0.8-2.5,1.5-5.1,2.1-7.7v-0.2c0.5-1.9,0.9-3.8,1.2-5.7l-128.4,87.4
			C103.5,229.9,105.6,230.3,107.7,230.5z"/>
		<path class="st0" d="M186.7,151.4l44.7-34.9c-0.1-2-0.3-4.1-0.5-6.1l-162.1,107c1.6,0.9,3.2,1.8,4.9,2.6l107.9-71.6L186.7,151.4z"
			/>
		<path class="st0" d="M147.6,128.4l36.8-27.5l37.4-23.7c-1.3-2.7-2.6-5.4-4.1-8l-43,32L35.8,188.6c1.1,1.5,2.3,2.9,3.4,4.3
			l105-66.5L147.6,128.4z"/>
		<path class="st0" d="M89.2,226.3L194,155.7l5.6,3.3l31.2-24.7c0.3-3,0.5-5.9,0.6-9L83.7,224.4C85.5,225.1,87.3,225.8,89.2,226.3z"
			/>
		<path class="st0" d="M131.1,231.2l90.3-62.7c1-2.2,2-4.5,2.9-6.8l-100.9,69.8C126,231.5,128.6,231.4,131.1,231.2z"/>
		<path class="st0" d="M134.6,120.7l31.3-23.1L216,66.3c-1.8-2.9-3.7-5.8-5.7-8.5l-54.4,39.9L28.1,177.1c1,1.6,1.9,3.2,3,4.8
			L131.7,119L134.6,120.7z"/>
		<path class="st0" d="M170.2,220.6l28.6-20.2c3.9-3.8,7.5-7.9,10.7-12.2l-54.8,38.5C160.1,225,165.2,223,170.2,220.6z"/>
		<path class="st0" d="M173.6,143.7l48.3-37.2l7.6-5c-0.4-2.1-0.9-4.2-1.4-6.3L212.6,107L56,208.9c1.4,1.1,2.9,2.2,4.4,3.2
			L169.2,141L173.6,143.7z"/>
		<path class="st0" d="M160.6,136l42.4-32.2l23.2-15c-0.8-2.5-1.7-4.9-2.7-7.3l-30.1,22.7L45,199.2c1.3,1.3,2.6,2.5,3.9,3.7
			l107.7-69.3L160.6,136z"/>
		<path class="st0" d="M108.5,105.4l21.1-15.2l71.5-43.3c-1.3-1.3-2.6-2.6-3.9-3.9l-0.7-0.7c-2.9-2.7-6-5.3-9.3-7.7l-1.3-0.9
			c-3.3-2.4-6.7-4.5-10.3-6.5l-1.8-1c-3.8-2-7.6-3.8-11.6-5.4L160,20c-4.5-1.6-9.1-3-13.9-4.1l-2.5-0.5c-5.8-1.2-11.8-1.8-18-2h-2.2
			c-0.4,0-0.7,0-1.1,0c-35.8,0-67.5,17.2-87.4,43.8l60-33.2L36.4,63l0.4,0.2l-8.9,5c-2,3.5-3.8,7-5.4,10.7l91.2-51.3L49.6,70.8h0.1
			L18.9,88.2c-1,3-1.8,6-2.6,9.1L56,74.6l0.3,0.2l3.6-2.5l72.5-41.4L66.2,76.2l-51.6,29.7c-0.4,2.6-0.7,5.3-0.9,8l55-31.9l0.7,0.4
			l7.7-5.3l74.6-43.2L83.7,81l-70.3,41v0.4c0,2.3,0.1,4.6,0.2,6.8l67.7-39.9l1.1,0.6l11.9-8.3L171,36.7l-69.6,48.9l-87,51.6
			c0.3,2.2,0.7,4.4,1.1,6.5L94,96.9l1.5,0.9l16.4-11.6l78.6-46.9L119.3,90l-102,61.4c0.6,2,1.1,4,1.8,5.9l87.5-53L108.5,105.4z"/>
		<path class="st0" d="M121.6,113.1l26.1-19l61.5-37.8c-1.1-1.4-2.2-2.8-3.3-4.1l-0.2-0.2c-1.3-1.5-2.6-3-3.9-4.4L137.5,94
			L21.9,164.6c0.8,1.8,1.6,3.6,2.4,5.4l94.8-58.3L121.6,113.1z"/>
	</g>
</g>
</svg>
