<svg xmlns="http://www.w3.org/2000/svg" viewBox="0 0 434.05 253.34"><defs><style>.cls-1{fill:#1d1d1b;}</style></defs><g id="Layer_2" data-name="Layer 2"><g id="Layer_1-2" data-name="Layer 1"><path class="cls-1" d="M312.47,177.91,299.1,170l-26.74-15.71-42.14-24.44,41.06-.16,27.13-.28L312,129.3l13.56-.23c36.17-.59,72.35-1.46,108.52-3.12-36.17-1.67-72.35-2.54-108.52-3.13L312,122.59l-13.56-.15-27.13-.28L232.66,122l39.66-23.08L299,83.18l13.35-7.88,13.32-8C361.23,46.15,396.62,24.72,431.6,2.6c-36.65,19.23-72.9,39.16-109,59.33L309,69.48l-13.51,7.63-27,15.26L220.28,120c-.05-18.9-.29-37.79-.86-56.68C218.83,42.22,218,21.11,216.3,0c-1.67,21.11-2.54,42.22-3.12,63.34-.57,18.74-.81,37.49-.86,56.23L164.81,92.46c-18-10.12-36-20.37-54.11-30.36C74.56,42,38.28,22.11,1.61,2.92c35,22.06,70.44,43.43,106,64.57C125.34,78.12,143.22,88.51,161,99l39.66,23-37.93.15c-18.09.22-36.17.3-54.26.67C72.34,123.43,36.17,124.29,0,126c36.17,1.65,72.34,2.52,108.51,3.11,18.09.36,36.17.45,54.26.66l40.46.17-42.15,24.53c-17.8,10.53-35.67,20.94-53.39,31.6-35.53,21.19-70.91,42.62-105.9,64.73,36.65-19.25,72.9-39.18,109-59.35,18.09-10,36-20.29,54.06-30.44l47.46-27.18q.09,28.13.87,56.23c.59,21.11,1.45,42.22,3.11,63.33,1.65-21.11,2.52-42.22,3.11-63.33q.78-28.35.86-56.69l48.31,27.58,27,15.22,13.51,7.6,13.56,7.54c36.14,20.11,72.43,40,109.11,59.17-35-22.07-70.44-43.45-106-64.58Z"/></g></g></svg>