      <svg xmlns="http://www.w3.org/2000/svg" width="561.629" height="327.811" viewBox="0 0 561.629 327.811"><defs><style>.a{fill:white;}</style></defs><g transform="translate(-480.735 -76.304)"><path class="a" d="M482.341,79.221c47.453,24.832,94.4,50.549,141.162,76.579,23.431,12.932,46.676,26.184,70.01,39.285l69.72,39.785,69.443,40.269,34.606,20.334,17.3,10.176,17.243,10.271c46.007,27.345,91.832,55.009,137.142,83.568-47.461-24.823-94.407-50.535-141.17-76.566l-17.546-9.746-17.491-9.842-34.971-19.7-69.714-39.8-69.435-40.28c-23.053-13.588-46.194-27.024-69.148-40.782-46.006-27.347-91.833-55.008-137.15-83.553" transform="translate(0.472 0.857)"/><path class="a" d="M482.525,399.994c45.275-28.613,91.061-56.341,137.025-83.757,22.935-13.793,46.054-27.263,69.087-40.886l69.376-40.384,69.654-39.9,34.943-19.752,17.476-9.866,17.53-9.772c46.725-26.1,93.634-51.883,141.057-76.774-45.268,28.623-91.052,56.355-137.018,83.771l-17.229,10.3-17.282,10.2-34.578,20.386-69.382,40.371-69.662,39.89c-23.313,13.135-46.538,26.423-69.95,39.389-46.725,26.1-93.632,51.886-141.048,76.789" transform="translate(0.526 0.764)"/><path class="a" d="M480.735,203.425c46.8-2.141,93.6-3.262,140.408-4.023,23.4-.477,46.8-.584,70.2-.863l70.2-.287,70.2.273,35.1.365,17.551.194,17.551.3c46.8.758,93.6,1.884,140.406,4.038-46.8,2.154-93.6,3.28-140.406,4.038l-17.551.3-17.551.194-35.1.365-70.2.273-70.2-.287c-23.4-.279-46.8-.386-70.2-.863-46.8-.761-93.606-1.881-140.408-4.023" transform="translate(0 35.845)"/><path class="a" d="M698.207,404.115c-2.141-27.316-3.262-54.635-4.023-81.953s-1.159-54.635-1.152-81.953.316-54.635,1.135-81.953c.76-27.318,1.885-54.634,4.04-81.953,2.154,27.319,3.281,54.635,4.04,81.953.819,27.318,1.13,54.637,1.135,81.953s-.393,54.637-1.152,81.953-1.881,54.637-4.023,81.953" transform="translate(62.403)"/></g></svg>
