<?xml version="1.0" encoding="utf-8"?>
<!-- Generator: Adobe Illustrator 24.3.0, SVG Export Plug-In . SVG Version: 6.00 Build 0)  -->
<svg version="1.1" id="Layer_1" xmlns="http://www.w3.org/2000/svg" xmlns:xlink="http://www.w3.org/1999/xlink" x="0px" y="0px"
	 viewBox="0 0 475.7 691.1" style="enable-background:new 0 0 475.7 691.1;" xml:space="preserve">
<style type="text/css">
	.st0{fill:#FFFFFF;}
	.st1{fill:#DBDBDB;}
</style>
<g id="Layer_2_1_">
	<g id="Layer_1-2">
		<g id="Layer_2-2">
			<g id="Layer_1-2-2">
				<path class="st0" d="M382.1,484.8c1.8,0,3.3,0.2,3.3,0.5c-0.4,0.9-1,1.8-1.7,2.4c-0.9,0.9-3.6,5.4-3.6,7.6v64.1
					c0,2.2,0.6,4.6,1.3,5.4c1.9,1.5,4.1,2.4,6.5,2.7h19.7c2.3,0,4.5,0.8,6.3,2.3c1.3,1.3,4.6,5,4.6,5.5c0.2,1.4,0.8,2.8,1.6,4
					c0.9,1.2,5.3,2.8,5.6,3.6c1.3,1.9,2.9,3.6,4.8,5l2.1,5.2c1.4,1.7,3.7,4.4,5.2,6l2.5,2.6c1.2,1.2,2.2,2.7,3,4.3
					c0.3,0.9,1.5,2.8,2.1,2.8c1.9,0.5,3.6,1.5,5,2.8l3.9,4.1c1.5,1.6,3.9,3.9,5.2,5.2s5,7.2,6.6,8.5s4.8,6.4,5.3,7.5
					s2.4,4.4,2.6,5.3c0.8,2.3,1.3,4.7,1.5,7.1c0.1,2.2,0.5,8.2-0.1,8.9h-0.3c-5.5,0-12.4,0-12.4,0c-2.2,0-4.5,0.4-5,1
					c-1.8,1.1-3.9,1.8-6.1,1.9h-11.3c-2.2,0-4.3,0.3-4.6,0.7s-1.5,1.5-1.6,1.7c-1.5,0.3-3.1,0.5-4.7,0.4h-27.6
					c-2.2,0-4.3,0.3-4.7,0.7c-1.7,1-3.7,1.6-5.7,1.7h-8c-2.2,0-4.5,0.4-5.1,0.8c-2.1,1.2-4.5,1.9-6.9,2.2h-33
					c-2.2,0-4.4,0.4-4.9,0.9c-1.7,1.1-3.7,1.8-5.8,2c-2.1,0-7.7,0.4-8.2,0.9c-1.7,1-3.6,1.6-5.6,1.6h-22.4c-2.2,0-4.4-0.4-4.9-0.9
					s-2.2-1.5-2.6-1.2c-1.8,1.1-3.9,1.8-6,1.9l-11.6,0.4c-2.2,0-4.3,0.3-4.6,0.6c-1.7,1-3.6,1.5-5.6,1.6h-30c-2.2,0-4.5,0.4-5.1,0.8
					c-2.1,1.2-4.5,1.9-6.9,2.2h-11c-2.2,0-4.4,0.4-4.9,0.9c-1.7,1-3.7,1.6-5.7,1.7H165c-2.2,0-4.5,0.4-5.1,0.9
					c-1.9,1.1-4,1.8-6.2,1.9h-13.8c-2.2,0-4.5,0.4-5,1c-1.8,1.1-3.9,1.8-6,1.9h-11.3c-2.2,0-4.3,0.3-4.7,0.7
					c-1.7,0.9-3.5,1.3-5.4,1.3c-2.2-0.1-7.9,0.6-8.4,0.2c-1.8-1-3.8-1.6-5.8-1.7H82.5c-2.6-0.1-5-1.1-7-2.7l-2.9-4.2
					c-1.5-2.1-3.2-4.2-4.9-6.2c-1.4-1.6-4.4-7.5-4.9-8.3l-0.1-0.8l-0.2-1.3c-0.1-2.3-0.7-4.6-1.8-6.7l-7.1-8.8
					c-0.6-1.8-1.2-3.6-1.6-5.5c-0.2-0.9-1.5-5.2-2.5-6s-3.1-4.7-3.4-5.9s-2.7-5-2.7-7.2V596c0-2.3-0.5-4.5-1.4-6.7
					c-0.8-1.5-3-5-3.4-5.1c-2.1-0.7-4.1-1.7-5.8-3.1l-3-3.7c-1.8-1.9-3.9-3.5-6.3-4.7l-3.8-4.7c-2-1-3.5-2.9-3.5-4.3
					s-0.4-5.6-0.9-6.2c-1.1-2-1.8-4.3-2-6.6V470c0-2.2,1-4.7,2.1-5.5s8.1-4.7,10.3-4.7H80c2.2,0,4.1-0.6,4.3-1.5
					c0-2-0.6-3.9-1.7-5.6c-1.2-1.6-7.1-4.6-8.3-5.2s-5.6-3.3-6.2-4.4s-2.6-6.9-2.6-9.1v-4.6c0-2.2-0.4-4.5-0.9-5
					c-0.9-1.1-1.6-2.4-1.9-3.8c0-1-0.7-4.4-1.6-5.3s-3-4.7-2.8-6.6s-3.6-7-3.6-9.2v-7.1c0-2.2-0.7-4.3-2-6c-1.1-1.1-0.5-5.6-0.1-6.1
					c0.9-1.4,1.6-3,1.8-4.7c0-1.5-0.4-6-0.9-6.5c-1.1-1.8-1.7-3.9-1.8-6v-38.9c0-2.2-0.3-4.3-0.7-4.6c-0.6-0.7-1.2-1.4-1.7-2.1
					c-0.3-1.9-0.4-3.7-0.4-5.6v-9.7c0.1-2.5,0.6-4.9,1.5-7.2c0.8-1.8,5.1-6.8,6-8.2s2.9-5.6,2.5-6.1c-1-1.8-1.6-3.8-1.7-5.8v-8.4
					c0-2.2,0.4-4.4,0.9-5s1.4-2.3,1-2.6c-0.8-1.2-1.3-2.6-1.6-4c-0.1-1.4,2.2-7.9,2.2-10.1v-4.9c0-2.3,0.7-4.6,1.9-6.6
					c1-1.4,6.2-3.8,7.2-4.6s4.6-3.3,6.1-3.3s6.1,0.3,6.6,0.7c1.4,0.9,3,1.5,4.7,1.8c1.4,0,6.4-0.6,6.9-1.2s2.6-5.1,2.6-7.3V123
					c0-2.2-0.8-4.4-1.8-5s-1.7-6.1-3.3-7.6c-1-0.8-2-1.5-3.1-2.2c-2.6-1.6-2.4-4.6-3.8-6.8c-1.2-1.9-2.9-3.4-5-4.3
					c-2.5-0.7-5.1-0.7-7.5,0.1l-6.8,4.2c-1.7,1.4-4.4,2.4-6,2.1s-6.3,1.2-8.3,1.7s-7.2,4.3-9.4,4.3H10c-2.3,0-4.5-0.8-6.3-2.2
					c-1.2-1.2-4.4-6-3.6-7.2s2.4-5,3.4-5.5c1.9-1.3,3.6-2.8,5.2-4.5c1.1-1.2,6.9-4.3,8.4-5.9c1.7-1.5,3.7-2.5,5.9-2.8
					c2.8-0.6,3.5-5.1,7.6-5.1c1.4,0,1.5-0.3,1.5-0.3c1.4-1.7,3.7-4.5,5.1-6.1l5.6-3.6c1.8-1.3,4-2.7,4.8-3.3s0.2-4.4-1.2-5.8
					s-4.7-5.3-5.5-5.5s-2.9-2-2.9-3.5s0.5-6.6,1.1-7.2s4.3-2.7,6.4-2.7s8,1.4,8.2,3.1s1.8,7.3,3.2,8.7s5.6,3.1,6.9,1.3h6.6
					c1.6-1.4,3.1-3.3,3.1-4.1s1.8-3.4,3.7-4.4l7.5-3.8c2-1,3.7-1.7,3.8-1.5s1.6-0.7,3.1-2.4l5-5c1.9-1.9,3.9-3.6,6-5.2l5.7-4.3
					c1.7-1.2,3.6-1.9,5.7-2.2c1.3,0,5.4,0.3,5.8,0.7s0.7,3.2,0.7,5.4v12.5c-0.1,2.6-0.6,5.2-1.6,7.7c-0.7,1.6-1.7,3-3,4.2
					c-1.3,1.1-2.4,2.5-3.2,4c-0.9,2-2.1,4.9-2.6,6.5s-4.6,6.5-5.8,8.4c-0.9,1.4-1.9,2.7-3,4c-1.1,1.5-2.4,2.9-3.7,4.2
					c-1.6,1.5-4,3.7-5.2,5s-4.8,5.9-4.8,7.3s1,6.7,2.2,8.1s4.3,7.3,5.5,8.4c2,2.1,3.9,4.3,5.5,6.7c0.7,1.2,2.9,7.4,2.9,9.6v96.2
					c0,2.2,1.1,4.8,2.4,5.7s7.2,4.7,8.1,4.7s5.7-0.8,6.2-1.8s4.5-0.3,5,0.1c1.1,0.9,2.4,1.5,3.8,1.8c1,0,4.2-0.5,4.9-1
					s3.5-1.8,4.4-1.1c1.7,1.1,3.6,1.8,5.6,2.1c1.5,0,5.7-0.3,6.1-0.7c1.7-1,3.6-1.5,5.5-1.6c2.1,0,8.1,0.3,8.5,0.7
					c1.4,0.9,2.9,1.4,4.5,1.5c1.6,0,6.2-0.4,6.6-0.8c1.2-0.9,2.7-1.4,4.2-1.6c1.5,0,6.1,0.4,6.6,0.8s2.3,1.3,2.9,0.8
					c1.8-1.1,3.9-1.7,6-1.8h25c2.2,0,4.4,0.4,5,0.9s2.3,1.4,2.6,1c1.7-1,3.6-1.7,5.6-1.8c2.1,0,7.7-0.4,8.2-0.9
					c1.7-1,3.7-1.6,5.7-1.7h14.6c2.2,0,4.4,0.4,4.8,0.8c1.2,0.9,2.7,1.4,4.2,1.6c1.5,0,6.1-0.4,6.6-0.8c1.1-0.9,2.4-1.5,3.7-1.8
					c1,0,4.3-0.6,5-1.3s2.7-4.1,2.7-5.5s-0.3-5.9-0.7-6.4c-1-1.9-1.6-3.9-1.8-6V195c0-2.2,0.4-4.4,0.9-4.9c0.9-1.1,1.5-2.4,1.8-3.8
					c0-1-0.4-4.1-0.9-4.6s-1.3-2.8-0.8-3.9s0.9-5.5-0.2-7.4l1-9.5c-0.6-2.1-0.8-4.1-0.5-4.4c0.8-1.7,1.3-3.5,1.3-5.3v-41.7
					c0-2.2-0.8-4.6-1.8-5.2s-0.3-4.7,0.1-5.2c1-1.8,1.6-3.9,1.7-5.9v-8.5c0-2.2-0.6-4.6-1.3-5.3s-4.1-1.6-5.7,0l-8.7,8.7
					c-1.5,1.6-4.2,4-5.8,5.5l-6.8,11.6c-1.2,2.3-1.8,4.9-2,7.5v8c0,2.4-0.6,4.8-1.7,7c-0.9,1.7-6.1,0.6-6.3,0.4
					c-0.3-1.5-0.4-3.1-0.4-4.7v-17.6c0-2.4,0.3-4.7,0.9-7c0.5-1.7,3.5-5.8,5.1-7.3l8.9-9c1.6-1.5,3.3-2.8,3.8-2.8
					c1.2-0.3,2.2-1,2.9-2c0.5-1,2.2-3.7,2.7-3.7c1.7-0.5,3.3-1.4,4.6-2.7l1.2-1.4c1.1-1.3,2.9-2,3.2-4.2l0.2-1.6
					c1.1-1.4,1.4-3.2,0.8-4.9c-0.6-1.3-2.8-4.6-3.2-4.6c-1.6-0.7-3.1-1.6-4.4-2.9l-29-29c-1.7-1.9-2.7-4.3-2.8-6.8V4.4
					c0-2.2,1-4.2,2.3-4.3s5.1,1,5.1,3.2l1.3,8.1c-0.1,2.2,0.6,4.3,1.5,4.8c0.9,0.4,2,4.7,3.5,6.2l12.5,12.5c1.5,1.5,3.3,2.7,5.4,3.5
					l1.2,1.1l0.7,0.7c0.1,1.7,2,3.5,4.1,4.1c1.7,0.6,3,2.1,3.3,3.9c0.5,3.3,1.1,3.8,1.1,3.8c1.7,1.4,4,2.5,5.1,2.5s5.4-1.3,7-2.9
					l10.2-10.4c1.8-1.8,3.9-3.3,6.2-4.4c1.9-0.8,5.5-7.2,7-8.8l7.5-7.3c1.7-1.9,2.7-4.3,2.8-6.8l0.9-9.8c0-2.2,1.2-3.6,2.7-3.1
					s5.1,4.3,5.1,6.5V16c-0.1,2.5-1.1,4.9-2.8,6.8l-9,9c-1.7,1.7-3.5,3.3-5.4,4.8c-1.4,1.1-2.9,6.5-3.6,7.5s-5.2,3.2-6.6,4.5
					s-6.5,5.6-7.6,7.2s-2.9,7.6-2,9.7l3.2,5.3c1.6,2.1,3.4,4.1,5.2,6.1l7.5,7.5c1.5,1.6,4.1,4.1,5.7,5.6l7.6,3.3
					c1.4,2.2,2.2,4.7,2.3,7.3v23.1c0,2.2-0.7,4.4-1.5,4.9s-3.7-2.4-3.7-4.7v-8.5c0-2-0.4-4.1-1.3-5.9c-0.7-1-2.8-6.6-4.4-8.2
					l-13.8-13.7c-0.9-1-2-2-3.1-2.8c-1-0.9-1.8-2.1-2.2-3.5c-0.6-1.9-5.4-4.7-5.9-4.6c-0.7,0.1-1.5,0.3-2.2,0.6
					c-0.2,0.2-0.4,2.5-0.5,4.7v135.4c0,2.2,0.6,4.6,1.3,5.3s4.5,2.7,6.7,2.7h24.8c2.2,0,4.3,0.5,6.2,1.4c1.2,0.8,5.1,4.4,5.1,6.6
					v66.7c0,2.2,0.4,4.4,0.9,4.9c1,1.7,1.6,3.7,1.7,5.7v35.9c0,2.2,0.4,4.5,0.9,5c1.1,1.9,1.8,4,1.9,6.2v5.5c0,2.2,0.4,4.5,0.9,5
					c0.9,1.1,1.6,2.4,1.9,3.8c0,1-0.4,4-0.9,4.6c-0.9,1.1-1.5,2.4-1.7,3.8c0,1,0.3,4,0.7,4.3c1,1.7,1.6,3.7,1.6,5.7v14.3
					c0.1,1.6-0.1,3.2-0.5,4.7c-0.9,1.5-1.7,3.2-2.2,4.9c-0.4,1.6,2.9,7.1,2.9,9.3v6c0,2.2-0.5,4.5-1.1,5.1s-4.4,2.7-6.5,2.7h-9.2
					c-2.2,0-4.8,1.1-5.7,2.4s-4.8,7.5-4.9,8.5s-0.8,5-1.6,5.9s-3.4,2.9-4.4,2.9s-4.3,0.5-4.5,1.2c-0.1,1.6,0.6,3.1,1.8,4
					c1.4,0.8,6.2,3,7.5,3s6.4,0.9,7.1,1.9s3.5,3.7,4.2,3s2.8-1.7,3.3-1.2c1.1,0.9,2.4,1.5,3.8,1.9c1,0,4.3,0.8,5.2,1.7
					s4.8,3.1,6.6,2.9s7,3.5,9.2,3.5h6.3c2.2,0,4.7,0.9,5.6,2S380.3,484.8,382.1,484.8z M229.6,644.6c2.2,0.1,4.4,0.8,4.8,1.6
					s3.7,0,2.7-0.4s-4.2-2.2-4.9-3.3s-4.9-3.6-6.6-3.9s-5.8,2.6-5.7,3.2s2.2,2.6,4.4,2.6L229.6,644.6z M246.8,650.1
					c1.8,0.1,1.8,0.9-0.1,1.8s-7.4,2.8-7.4,3.5c0.1,0.9,0.3,1.9,0.7,2.7c1.6,0.4,3.2,0.5,4.9,0.4h22c2.2,0,4.3-0.3,4.7-0.7
					c1.8-1,3.7-1.6,5.8-1.8h49.9c2.2,0,4.4-0.4,4.9-0.8c1.8-1.2,3.9-1.8,6-2h4.1c2.5-0.1,5-0.6,7.4-1.5c1.5-0.6,3-1.3,4.4-2l0.6-0.3
					c0.1-2.1,0.7-2.7,1.3-1.3s4.6,0.6,4.5-0.2s-1.2-3.3-2.2-3.1s-3.8,2.2-4.5,1.6c-2.3-1-4.8-1.6-7.3-1.8h-7.6
					c-2.2,0-4.7-0.5-5.6-1.1c-1.5-0.7-3.2-0.5-4.5,0.5c-1.2,1.2-4.9,3.1-7.1,3.1H305c-2.2,0-4.8-1.1-5.8-2.4s-5.8-2.7-6.4-2.4
					c-1.2,1.1-2.2,2.3-3,3.6c-0.7,1.2-4.5,4.3-6.7,4.3h-16.5c-2.2,0-4.5,0.4-5.1,1c-1.4,0.9-3,1.4-4.7,1.5c-1.6,0-5.7-0.4-5.9-0.9
					s0-1.7,0.8-1.7c1.5-0.1,3-0.5,4.4-1.2c1-0.7,0-4.3-2.2-4.3h-4.2c-2.2,0-4.8,0-5.8,0.1L243,645l-0.4,0.1
					C242.3,645.6,245,649.9,246.8,650.1z M167,268.7c-1.2,0.8-2.5,1.3-3.9,1.4c-1.6,0.3-6.1-1.1-8.2-1.7l-6.3-2
					c-2.2,0.2-5.8,0.4-8,0.4h-18.2c-1.6,0-3.2,0-4.8,0.2c-1.1,0.3-2.1,0.9-3,1.7c-1.2,1.9-2,4-2.2,6.3v19.7c0,2.2,0.3,4.3,0.7,4.7
					c1.1,1.8,1.7,3.8,1.8,5.9v36.1c0,2.2,0.4,4.4,0.9,4.9c1.2,1.8,1.8,3.9,2,6v36.9c0.1,2.6,0.9,5.1,2.3,7.2l2.3,3.2
					c0.8,1.2,3.3,2.1,5.5,2.1h80.2c2.1,0,4.1-0.4,6-1.1c1.1-0.6,4-1.4,4.7-0.8c2,1.2,4.2,1.9,6.4,2.1h42.7c1.6,0,3.2-0.1,4.8-0.3
					c0.8-0.3,1.6-0.7,2.3-1.2c1.6-0.8,3.5-1.3,5.3-1.3h19.6c2.2,0,4.6-0.6,5.3-1.3s2.7-3.5,2.7-4.5s-0.4-4.2-0.8-4.7
					c-1-1.8-1.6-3.9-1.8-6v-80c0-2.2-0.9-4.7-1.9-5.5s-0.5-4.7,0-5.2c1-1.8,1.6-3.8,1.7-5.9v-11.3c0-2.2-0.6-4.6-1.3-5.4
					s-4.5-2.7-6.7-2.7H195c-2.2,0-4.4,0.4-5,0.9c-1.1,0.9-2.4,1.5-3.8,1.8c-1,0-4-0.4-4.6-0.9c-1.7-1-3.6-1.5-5.6-1.6
					C173.9,267,167.5,268.2,167,268.7z M142.9,254.1c0.7-0.6,3-1.1,5.2-1.1h138c1.4-0.1,2.9,0,4.3,0.3c0.2,0.2,0.6,0.6,1.1,1
					c1.7,0.9,3.7,1.4,5.6,1.5h16.6c2.2,0,4.6,0.6,5.3,1.3s2.7,4.5,2.7,6.7v55.3c-0.1,1.5,0,2.9,0.3,4.3c0.1,0.2,1.2,1.4,1.5,1.6
					c0.7,1.5,1,3.2,1,4.9v72.2c0,2.2-0.6,4.6-1.3,5.3s-3.5,2.7-4.5,2.7s-4.7,0.5-5.6,1.1s-1.2,4.3-0.3,5.2s3.5,4.7,3.8,6.4
					s-2.3,6.3-3.7,6.6s-4.5,1.7-3,2.5s7.4,3.1,9.3,3.1s7.2-0.6,7.8-1.2c1-0.8,2.2-1.4,3.5-1.6c1,0,4.7-0.8,5.8-1.9
					c1.5-1.6,3-3.3,4.2-5.2c0.3-0.6,0.4-2.7-0.1-3.3c-1.2-1.8-1.8-3.9-2-6.1v-30.5c0-2.2,0.4-4.5,0.9-5s1.4-2.3,1-2.6
					c-1-1.8-1.7-3.8-1.8-5.8v-11.3c0-2.2-0.4-4.4-0.9-4.9c-1.1-1.8-1.8-3.9-2-6v-52.5c0-2.2-0.6-4.8-1.3-5.8s-1-6.8-0.5-7.3
					c1.1-1.9,1.7-4,1.9-6.1V258c-0.4-0.8-0.9-1.6-1.5-2.3c-0.8-1.6-1.2-3.3-1.2-5.1v-11.4c0-2.2-0.6-4.4-1.6-6.3
					c-0.9-1.3-5.5-1.4-6-0.9c-1.8,1.1-3.9,1.7-6,1.8h-8.5c-2.2,0-4.4-0.4-5-0.9c-1.4-1-3-1.6-4.7-1.8c-1.5,0-5.9,0.4-6.4,0.9
					s-2.7,1.1-3.8,0.6c-2.3-0.8-4.6-1.3-7.1-1.3h-33c-2.1,0-4.1,0.3-6,1.1c-1.1,0.6-3.9,1.4-4.6,0.9c-1.9-1.2-4.1-1.9-6.4-2.1H195
					c-2.2,0-4.6,0.4-5.3,1s-2.9,1.1-3.9,0.6c-2.2-0.9-4.6-1.5-7-1.7c-2,0-7.7,0.4-8.2,0.9c-1.5,0.9-3.3,1.4-5.1,1.4
					c-1.8-0.2-7.2-2.2-9.4-2.2h-41.5c-2.2,0-4.3,0.3-4.8,0.8c-1.7,0.9-3.5,1.4-5.4,1.5c-2.2,0-8-0.4-8.5-0.8
					c-1.2-0.9-2.7-1.4-4.2-1.6c-1.5,0-6.5,0.6-7.7,1.2s-4.7,4.2-4.7,6.4V281c0,2.2,0.3,4.3,0.8,4.8c0.9,1.7,1.4,3.5,1.4,5.4v3.2
					c0,1.9-0.4,3.7-1.1,5.4c-0.6,1.3-1.2,4.2-0.6,4.9c1.2,1.9,1.9,4,2.1,6.2v41.5c0,2.2,0.4,4.5,0.9,5c1.1,1.8,1.8,3.9,1.9,6v44.2
					c0,2.2,0.4,4.5,0.9,5.1c1,1.8,1.6,3.7,1.7,5.8c0,2.1-0.1,9.2-0.3,11.4l1.1,4c0.3,2.2,2.1,3.9,4.4,4h98.4c1.6,0,3.2,0,4.8-0.3
					c0.8-0.3,1.6-0.7,2.2-1.2c1.7-0.8,3.5-1.3,5.3-1.3h44.3c2.2,0,4.5-0.4,5-0.9c1.8-1,3.8-1.6,5.9-1.7h22.2c2.2,0,4.5,0.4,5,0.9
					c1,0.6,2.2,0.8,3.3,0.4c0.9-0.5,3.6-1.4,4.3-0.8s2.8,1.6,3.3,1.2s3-1.5,4.2-1.3s4.4-3.4,4.4-5.6v-9.2c0-2.2-0.6-4.6-1.4-5.3
					s-3.9-1.9-5.4-1.1s-6.1,0.6-6.6,0.2s-2.2-1-2.6-0.6s-2,1.2-2.5,0.8c-1.8-1-3.9-1.6-6-1.8h-13.9c-2.2,0-4.4,0.4-5,0.9
					c-1.1,0.9-2.4,1.5-3.8,1.8c-1,0-4-0.4-4.6-0.9c-1.8-1-3.8-1.6-5.8-1.7h-22.4c-2.3,0-4.6,0.5-6.7,1.4c-1.5,0.8-6.1,0.5-6.7,0
					c-1.7-0.8-3.6-1.3-5.6-1.3h-25.3c-2.2,0-4.4,0.4-4.8,0.8c-1.7,1-3.7,1.6-5.7,1.7h-57.8c-1.5,0.1-2.9,0-4.4-0.2
					c-0.7-0.8-1.2-1.7-1.7-2.7c-0.7-1.3-2.7-7.3-2.7-9.5v-37.4c0-2.2-0.4-4.6-1-5.2c-1.1-2-1.7-4.2-1.9-6.4v-49.4
					c0-2.2-0.4-4.4-0.8-4.8c-1-1.7-1.6-3.7-1.7-5.7v-15.1c0-1.6,0.1-3.2,0.2-4.8c0.3-0.8,0.6-1.6,1.1-2.3c0.4-0.4,0.9-1.8,0.4-2.3
					s-1.6-2.6-1.4-3.6s1.8-3.9,2.1-4.7c1.2-1.7,3.1-2.9,5.2-3.1h30.8C138.9,255.8,141,255.2,142.9,254.1L142.9,254.1z M297.5,535.3
					c0.5-0.5,2.8-0.9,5-0.9h5.7c2.2,0,4.5,0.4,5,0.9c1.1,0.9,2.4,1.5,3.8,1.7c1,0,4-0.4,4.6-0.9c1.5-1,3.1-1.7,4.9-1.9
					c1.5,0,5.4-0.5,6.4-1.1s4.4-1.1,5.9-0.1s7.1,0.2,8.4-1.2s5.4-5.7,7.4-5.7s8.2,1.6,9.2,3.6l1.8,3.6c1,2,2.5,3,3.3,2.2
					c1.5-1.8,2.4-4,2.6-6.3v-21.6c0-2.3-0.5-4.6-1.4-6.7c-0.8-1.5-4.2-5-6.2-5s-7.9,0.4-8.4,0.9c-1.2,0.6-2.5,0.9-3.8,0.8
					c-1.5-0.1-4.9,3.4-5.2,5.1s3.3,7.3,3.4,9.5c0.2,2.1-2.8,8.3-4.8,8.1l-1.6,0.5l-1.6,0.5c-2,1.4-4.4,2.1-6.8,2.2h-4.4
					c-2.4,0-4.9,0.4-7.2,1.2c-2.4,0.9-4.8,1.8-7.1,2.9l-0.3,0.3l-0.3,0.3c-0.4,0.4-2.5,0.7-4.7,0.7h-11.4c-2.2,0-4.4-0.4-4.9-0.9
					c-1.4-1-3-1.6-4.7-1.8c-1.5,0-5.9-0.4-6.4-0.9s-2.4-1.1-3.2-0.5s-3.4,1.4-4.3,0.8s-3.3-1.4-3.7-1c-1.3,0.8-2.9,1.3-4.4,1.3
					c-1.7,0-7.6-1.8-7.8-4l2-5.5c0-2.2,1.8-4,4-4h11.4c1.5,0.1,2.9,0,4.3-0.3c0.2-0.1,1.3-1.1,1.5-1.3c1.6-0.7,3.3-1.1,5.1-1.1h8.5
					c2.2,0,4.5-0.4,5-0.9c1.4-1,3-1.6,4.7-1.7c1.5,0,5.8,0.3,6.2,0.7c1.7,1,3.7,1.6,5.7,1.7h5.5c2.4-0.1,4.8-0.9,6.7-2.3
					c1.5-1.3,4.9-5,4.7-5.8s-2.6-2.6-4.8-2.6h-61.3c-2.2,0-4.4,0.4-4.9,0.9c-1.7,1.1-3.6,1.7-5.6,1.8c-2,0-7.7-0.4-8.3-0.9
					c-1.4-1-3-1.5-4.7-1.7c-1.6,0-5.8,0.3-6.2,0.7c-1.8,1.1-3.8,1.7-5.8,1.8h-5.8c-2.2,0-4.4,0.4-4.9,0.9c-1.8,1.2-3.9,1.8-6,2
					h-38.9c-2.2,0-4.4,0.4-4.9,0.9c-1.7,1-3.6,1.5-5.5,1.5h-6.4c-2.2,0-4.4-0.4-4.8-0.8s-2-1.1-2.5-0.6c-1.4,1-3,1.6-4.7,1.8
					c-1.5,0-5.9,0.4-6.4,0.9c-1.8,1-3.8,1.6-5.9,1.7h-8.4c-2.2,0-4.5-0.4-5-0.9c-1-0.6-2.2-0.8-3.3-0.4c-0.9,0.5-3.6,0.8-4.6-0.2
					s-5.6-0.2-6.3,0.7s-4.6,0.4-5.1-0.1c-1.1-0.9-2.4-1.5-3.7-1.8c-1,0-4,0.4-4.6,0.9c-1.4,1-3.1,1.6-4.8,1.7c-1.6,0-7-0.1-8.7-0.5
					s-6.2,3.7-6.2,5.9v38.7c0.1,1.5,0,2.9-0.2,4.4c-0.4,0.5-0.7,1-1.2,1.4c-0.8,1.2-1.2,2.6-1.3,4.1c0,1.5,0.4,6,0.9,6.5
					c1.1,1.8,1.7,3.9,1.8,6c0,0,0,6.1,0.1,11.2v0.8c0.9,1.1,2.3,1.7,3.8,1.7c3.1-0.1,6.2-0.6,9.2-1.4c2-0.8,6.4-7.5,6.4-9.7v-22.3
					c0-2.2,0.7-4.7,1.5-5.4c1.9-1.3,4.2-2.1,6.5-2.3h5.8c2.2,0,4.5,0.4,5.1,0.8s2.3,1.2,2.7,0.7c1.8-1.1,3.8-1.8,5.9-1.9h22.3
					c2.2,0,4.4-0.4,4.9-0.9c1.7-1,3.7-1.6,5.7-1.7h27.6c1.5,0.1,2.9,0,4.4-0.3c0.2-0.1,1.1-0.9,1.4-1.2c1.6-0.8,3.4-1.2,5.2-1.2h8.5
					c2.2,0,4.4-0.4,5-0.9c1.4-1,3-1.6,4.7-1.7c2.5,0.1,4.9,0.6,7.2,1.4c1.5,0.8,5,4.4,5,6.6v22.5c0,2.2,0.6,4.5,1.3,5.2
					c2,1.4,4.3,2.2,6.8,2.5h6.2c2.2,0,4.4-0.4,4.8-0.8c1.7-1,3.6-1.5,5.6-1.6h52.4c1.5,0.1,2.9,0,4.4-0.2c0.5-0.4,0.9-0.8,1.4-1.2
					c1.6-0.8,3.5-1.3,5.3-1.3H347c2.2,0,4.5-0.4,5-0.9c1.8-1.1,3.9-1.8,6-1.9h5.6c2.2,0,4.6-0.6,5.3-1.3s3.1-3.8,3.3-5
					s-2.3-4-3.5-3.9s-5.9,2.2-8.1,2.2h-11.3c-2.2,0-4.4,0.4-4.9,0.9c-1.7,1-3.6,1.5-5.5,1.5l-17.2,0.4c-2.2,0-4.4,0.4-5,0.9
					c-1.7,1-3.6,1.6-5.6,1.6h-22.2c-2.2,0-4.5-0.4-5-0.9c-1.4-1-3-1.6-4.7-1.8c-1.5,0-5.9,0.4-6.5,1c-1.5,1-3.1,1.6-4.9,1.9
					c-1.5,0-5.4,0.5-6.4,1.1s-4.2,1.3-5.2,0.4s-3.4-4.4-3.4-5.3c-0.1-1.5-0.5-3.1-1.1-4.5c-0.6-0.9-1.4-3.6-0.9-4.5s1.1-3.2,0.6-4.2
					s-1.1-3.7-0.6-4.4s1.9-3.3,1.6-4.5s3.3-5,5-5.3c1.7-0.3,7.2-1.8,9.5-1.8h22.4c2.2,0,4.4,0.4,4.8,0.8S297,535.8,297.5,535.3z
					 M20.3,493.5c0.5,0.5,0.9,2.8,0.9,5v41.6c0.1,2.5,1.1,4.9,2.8,6.8l10.9,10.8c1.6,1.5,2.8,3,2.8,3.3c0.7,1.4,1.7,2.7,2.8,3.8
					l3.7,5.6c1.7,1.4,4.4,3.5,5.9,4.7s7,3.3,7.6,3s2.1-1.7,2.1-2.8s0.4-4.2,0.9-4.7s1.5-2.3,1.1-2.6c-1-1.8-1.6-3.8-1.8-5.8v-55.8
					c-0.1-2.4-1.5-4.5-3.7-5.6l-3.4-3.7c-1.4-2.2-3.4-3.8-5.8-4.8l-4.1-2.6c-2.4-1.2-4.6-2.6-6.8-4.1l-5.5-4.1
					c-1.8-1.2-4-2.2-4.9-2.2s-4,1.2-4.7,2.7s-2.7,5.9-2.7,6.7C18.8,490.4,19.4,492,20.3,493.5z M61.3,93.1c2.2-0.2,4.4-0.9,6.3-2.1
					l5.3-5.8c2.4-1.2,4.5-2.7,6.4-4.6c0,0,4.9-5,8.9-8.8l0.5-0.5c1.9-0.4,3.7-1.2,5.4-2.2c0,0,1.1-0.6,1.6-3.7c0.5-2.6,1.6-5,3.3-7
					c1.5-1.6,3-3.2,3.3-3.6s1.7-1.7,2.2-2.3c1.1-1.4,1.7-3,2-4.7c0-1.5,1.2-6,2.6-7s-1.7-4.7-3-4.3s-5.7,2-7,2.5s-7.6,4.1-8.7,5.2
					s-6.1,6.3-7.7,7.8s-8.2,4.6-10.1,5.2l-1.2,1l-1.7,1.5c-1.2,1.8-3.3,3.2-4.6,3.2s-5.8,1.2-7.4,2.6l-7.1,8.4
					c-2.1,0.5-4.2,1.9-4.7,3.1s-2.5,3.2-4,4.6s-7.3,4-9,5.1s-7.2,4.9-9.3,5.5c-2.2,0.8-3.9,2.5-4.8,4.7l-0.3,0.8
					c-0.1,1.2,1.1,2.9,2.6,3.7s6.6,2.6,7.4,2.1s4.4-2.2,5.8-2.2s5.3-0.4,6-1c1.5-1,3.3-1.6,5.1-1.9c1.5,0,5.8-0.8,6.8-1.8
					S59.7,93.1,61.3,93.1L61.3,93.1z M71.4,499.5c2.4,1.1,4.9,1.7,7.6,1.8h11.2c2.2,0,4.5,0.4,5,0.9c1.1,0.9,2.4,1.5,3.8,1.7
					c1,0,4-0.4,4.6-0.9c1.9-1.1,4-1.7,6.1-1.8h5c2.2,0,4.7-0.6,5.6-1.4c0.9-1,0.8-2.6-0.2-3.5l0,0c-0.1-0.1-0.3-0.2-0.4-0.3
					c-1.6-1-6.5-6-8-7.6c0,0-0.7-0.7-3.8-1.3c-1.7-0.4-3.4-1.2-4.6-2.5c-1.8-1.9-3.8-3.6-6-5.1c-1.8-1.3-3.2-3-4-5
					c-1-2.9-1.6-3.5-1.6-3.5c-2-1.6-4.5-2.5-7-2.6H47c-2.1,0-4.1,0.4-6,1.1c-1.7,0.8-3.3,1.6-4.8,2.6c-0.7,0.6,0.1,1.5,1.8,2.9
					l7.8,10c2,0.9,4.5,2,5.6,2.5s5.5,2.5,7.6,3.3c2.3,0.9,4.4,2.2,6.3,3.9C67,496.6,69.1,498.2,71.4,499.5z M357.8,541.3
					c-0.8-0.8-3.2-1.4-5.4-1.4H319c-2.2,0-4.5,0.4-5,0.9c-1.8,1.1-3.9,1.7-6,1.8h-22.1c-2.2,0-4.5,0.4-5,0.9c-1.8,1.1-3.9,1.7-6,1.8
					h-7.2c-1.6-0.1-3.2,0.1-4.8,0.4c-0.4,0.2-1.5,2.5-1.5,4.7v4c0.1,2.3,1.6,4.3,3.9,5c0.8,0.5,1.6,1.1,2.3,1.8
					c1.3,1.2,1.6,1.2,1.6,1.2c2.2-0.2,4.6-0.8,5.3-1.4c2-1.1,4.1-1.8,6.4-2H300c2.2,0,4.3-0.3,4.8-0.7c1.7-1,3.6-1.5,5.6-1.6h33.8
					c2.2,0,4.3,0.3,4.7,0.7c1.1,0.6,2.4,0.8,3.6,0.4c2-0.9,3.9-2.1,5.6-3.4c1.1-1.5,1.8-3.2,2-5.1
					C360.3,547.8,358.5,542.1,357.8,541.3z M67,617.4c-0.9-0.9-1.6-3.4-1.6-5.6v-8.5c0.1-1.4,0-2.9-0.3-4.3
					c-0.9-0.5-1.9-0.7-2.9-0.8c-1.2,0-4.7,0.6-5.4,1.4s-2,4.6-1,6.6l6.7,13.4c1.2,2.4,2.6,4.7,4.1,6.9l0.6,4.9
					c0.4,1.7,1.1,3.4,2,4.9c0.9,1.3,1.5,2.8,1.7,4.3c0,1.3,0.1,4.9,0.1,5.1s0.8,0.8,2,2.6c0.5,1.4,1,2.8,1.6,4.1
					c1.1,2,2.5,3.8,4.2,5.4c1.5,1.3,4.2,7.5,5.5,9s4.8,5.2,5.4,4.7c1.1-0.9,2.4-1.5,3.8-1.7c1.6,0.1,3.3,0.4,4.8,1.1
					c0.9,0.6,3.6,0.3,5-1.4c0,0,3.2,1.2,4.7-0.1s3.1-2.1,3.6-1.6c1.8,1.1,3.9,1.8,6,2c2.2,0.1,7.7-0.6,8.2-1.2s2-1.2,2.6-0.7
					c1.8,1,3.8,1.6,5.9,1.7h5.7c2.2,0,4.5-0.4,5.1-1c1.9-1.1,4-1.7,6.2-1.9h8.2c2.2,0,4.3-0.3,4.7-0.7c1.7-0.8,3.5-1.1,5.4-0.9
					l5.1-2.2c2.2-0.1,3.9-0.8,3.7-1.5s-1.9-2.6-3.5-2.6s-6.4,0.3-6.8,0.8c-1.1,0.8-2.4,1.5-3.7,1.8c-1,0-4.1-0.4-4.6-0.9
					c-1.8-1.1-3.8-1.7-5.9-1.8h-8.4c-2.2,0-4.4,0.4-5,0.9s-2.4,1-2.9-0.1s-2.6-3.7-3.3-3.4s-2.2,1.4-2.4,2.2s-1.5,2.7-2.7,2.8
					s-5.5-1.7-5.7-2.4c-0.8-1.4-2.3-2.3-3.9-2.4c-1.8,0-7.3,1.2-8.2,2.7s-4.9,5.2-7.1,5.2H92.8c-1.5,0.1-2.9,0-4.3-0.3
					c-0.9-1.4-1.6-2.8-2.2-4.3l-10.7-15.9c-1-2.1-1.8-4.3-2.4-6.5c-0.3-1.6-2.5-7.6-2.5-9.4S67.9,618.3,67,617.4z M145.6,467.8
					c0.2,1.4,1.2,2.5,2.6,2.8c1.4,0.4,6,3,8.2,3H231c2.5-0.1,4.8-0.9,6.8-2.3c1.6-1.3,3.4-6,2.6-7.2s-4.5-4.3-6.7-4.3H224
					c-1.6,0-3.2,0-4.8,0.2c-0.8,0.3-1.6,0.6-2.3,1.1c-1.7,0.9-3.5,1.3-5.4,1.4h-63c-0.7,0-1.5,0.1-2.2,0.3
					C146.1,464.5,145.7,466.2,145.6,467.8L145.6,467.8z M351.1,484.8c-2-0.1-4-0.6-5.9-1.3c-1.8-0.7-6.5-4.1-7.4-4.2
					s-5.8-0.9-6.4-1.9s-4.1-3.8-6.3-3.8h-3.9c-1.9,0-3.8-0.3-4.2-0.7c-1.4-1-3-1.6-4.7-1.9c-2.5-0.2-4.8-0.9-7-2.1l-8.2-2.2
					c-1.7-0.5-3.3-1.2-4.8-2.1c-1.1-0.9-2.4-1.5-3.8-1.9c-1,0-4.4-0.8-5.5-1.9s-4.9-3.9-6.2-4.2s-2.8,2.4-1.1,3.4s6.5,5,8.5,6
					s7,4.9,8,4.9s5,1.3,6.5,2.9l4.1,4.2c1.5,1.6,2.8,3.6,2.8,4.5c0.3,2,1.1,4,2.3,5.6c1.3,1.3,6,4.9,7.7,5.1s6.2-1.2,6.6-1.6
					c1.7-0.9,3.5-1.4,5.4-1.4h26c0.9,0.1,1.8,0.1,2.7,0h0.4c0.7-0.6,1.1-1.5,1.1-2.5C357.5,487,352.5,484.8,351.1,484.8L351.1,484.8
					z M434.6,638.3c-0.8,0.6-1.8,0.9-2.8,0.9s-4-0.5-4.8-1.1s-3.7-1.5-4.8-0.9s-4.8,1.6-5.8,1s-4.3-1.8-5-1.2
					c-2,1.2-4.2,1.9-6.5,2.1h-19.1c-2.2,0-4.5,0.4-5,0.9c-1.2,0.9-2.5,1.6-3.9,1.9c-2,0.1-3.9,0.6-5.7,1.3c-1.2,0.7-4.6,3.1-4.6,3.8
					c0,0.9,0.2,1.9,0.5,2.7c0.3,0.3,2.6,0.5,4.8,0.5h11c2.2,0,4.5-0.5,5.1-1c1.9-1.1,4-1.8,6.2-1.9h8.3c2.2,0,4.3-0.3,4.7-0.7
					c1.8-1.1,3.8-1.7,5.9-1.9h33.4c2.2,0,4.5-0.5,5.2-1.1l0.3-0.4c1.8-2.2,2.4-2.1,2.4-2.1c2.2,0.4,4.3,0.3,4.7-0.2s1.2-2.1,0.9-2.7
					c-1.1-1.6-2.4-3.1-3.8-4.5c-1.5-1.6-6.4-4.1-7.2-2l-2.7,4.2c-1.1,1.9-3,2.9-4.4,2.3S435.1,637.8,434.6,638.3L434.6,638.3z
					 M61.4,329.2c-0.3-0.7-0.8-1.2-1.1-1s-0.5,2.5-0.5,4.7v11c0,2.2-0.5,4.7-1.1,5.5s-1.5,3.7-0.9,4.8s1.7,4.6,1.2,5.4
					s-1.3,3.1-1,3.5c1.1,1.8,1.7,3.8,1.9,5.8v22.9c0,2.2,0.3,3.8,0.6,3.5c0.7-0.3,1.5,0,1.8,0.7l0,0c0,0,0,0,0,0.1
					c0.3,1,1.5,3.1,2,2.8s0.9-2.8,0.9-5v-27.8c0-2.2-0.4-4.5-0.9-5c-0.9-1.1-1.5-2.4-1.8-3.8c0.1-2.2,0.6-4.3,1.4-6.3
					c0.8-1.5,0.6-5.8,0-6.8s-1.3-3.8-0.7-4.7s1.5-3.6,1.1-4.5S61.8,330,61.4,329.2z M228.4,654.7c-0.8-0.7-2-0.9-3-0.3
					c-1,0.6-3.8,1.2-4.7,0.6c-1.7-0.9-3.5-1.5-5.4-1.6c-1.7,0-5.8,0.4-6.2,0.8c-1.7,0.9-3.5,1.4-5.4,1.4l-9.2,1.2
					c-2,0.1-4,0.5-5.9,1.1c-1.1,0.4-4.2,2.2-4.2,2.9c0.1,1.2,0.3,2.3,0.8,3.3h0.3c6.9,0.1,13.7,0.1,20.5,0h0.8
					c0.8-0.4,1.6-0.9,2.3-1.5c1.6-0.8,3.3-1.2,5.1-1.2h8.6c2.2,0,4.6-0.6,5.2-1.3S229.1,655.4,228.4,654.7z M115.1,471.1
					c-0.1,0.6,0.6,2.1,1.7,3.2s6,3.5,7,4.6s5.7,3.9,7.5,5.2c1-0.4,2.2-0.4,3.3-0.1c1.7,0.5,3.5,0.3,4.9-0.6c1-0.9,2.7-4.6,1.2-6.1
					l-9.1-5.3c-1-2.2-3.1-3.6-5.4-3.8h-5.6c-1.5-0.1-2.9,0-4.3,0.3C115.7,469.3,115.4,470.2,115.1,471.1z M250.2,470.5
					c0.2,1.4,0.8,2.8,1.8,3.8c1.4,1.4,2.9,2.7,4.4,4c0.6,0.2,1.3,0.1,1.9-0.2c1.8-1,3.7-1.6,5.8-1.8h6.5c2.2,0,4.1-0.6,4.1-1.4
					s-1.4-3.3-3.5-4.2l-11-6c-1.4-0.8-2.9-1.4-4.4-1.8c-1.1,0.2-2.1,0.7-3,1.4C251.6,466.1,250.7,468.3,250.2,470.5L250.2,470.5z
					 M398.2,575.1c-1,0.7-2.3,0.7-3.4,0.2c-0.9-0.6-3.6-1.2-4.3-0.4s-2.5,3.4-2.3,4.1s2.6,2.4,4.8,2.4h6.1c2.5,0.1,4.9,1.1,6.8,2.8
					l5,5c1.5,1.6,3.6,2.3,4.5,1.6s1.9-3.5,0.4-5s-5.5-5.8-5.6-6.5c-0.7-1.5-1.9-2.8-3.3-3.7C405.4,574.8,399.2,574.4,398.2,575.1
					L398.2,575.1z M342.7,579.7c-0.8,1.2-0.9,2.7,0,3.9c0.8,1.2,3.8,3.8,4.8,3.1s5.9-2.8,7.7-2.8s6.7-0.5,7.9-1.2s4.2-1.4,4.8-0.8
					s2.7,1.6,3.2,1.2c1.5-1,3.3-1.6,5.1-1.8c1.8,0,4.6-2,2.6-2.1c-3.6-0.2-7.1-0.3-10.7-0.2c-2.6-0.1-5.1-0.7-7.5-1.7
					c-0.5-0.4-1.9-1-2.4-0.5c-1.4,1-3,1.6-4.7,1.8c-1.5,0-5.8-0.4-6.4-0.9S343.5,578.8,342.7,579.7L342.7,579.7z M166.6,597.3
					c0.4-0.5,0.4-1.3,0-1.8c-1.5-1.3-3-2.3-4.8-3.2c-1.6-0.9-6.9-2.4-7.8-1.5s-2.7,5.2-1.7,7.1l3.8,7.4c1,2,2.9,3.8,4.1,4
					s4.6-3.2,4.6-4.8C165.1,602.1,165.7,599.7,166.6,597.3z M91.2,614.1c0.4-0.1,0.9-0.3,1.2-0.5c0.2-0.2,0.4-2.5,0.4-4.7v-8.2
					c0.1-1.5,0-2.9-0.3-4.3c-1.3-0.7-2.8-1.2-4.3-1.3c-2.5,0-5.1,0.2-7.6,0.5c-0.4,0.2-1.2,2.7-0.2,4.6l3.1,7.5
					c0.9,1.7,1.9,3.3,3,4.8C88.1,613.2,89.6,613.8,91.2,614.1z M294.5,620.4c0,1.2,1.5,2.3,3.4,2.3s6.7-0.6,7.4-1.3s1.7-4.2,0.4-6
					s-7.3-3.2-8.3-2.4S294.5,619.2,294.5,620.4L294.5,620.4z M325.2,633.4c1.2,1.3,3.3,1,4.7-0.7l3-3.5c1.2-1.4,1.6-3.2,1-3.9
					c-1.6-1.4-3.5-2.5-5.6-3.1c-1.8-0.3-6.3,2.5-6.3,3.4S324,632.1,325.2,633.4L325.2,633.4z M267.9,449.3c-0.9,0.4-1.2,1-0.8,1.5
					s2.9,0.9,5.1,0.9h10.9c2.2,0,4.2-0.3,4.5-0.5c0.4-0.8,0.2-1.7-0.3-2.4c-1.9-1.4-4.2-2.4-6.6-2.7c0,0-0.5,0-2.8,0.1
					c-1,0-2.1,0.1-3.1,0.3C272.8,447.3,268.8,448.9,267.9,449.3z M367.5,625.5c1.5,0,3.1-1.4,3.7-3.2s-1.8-5.1-2.8-5.1
					c-2.3,0.4-4.5,1.4-6.3,3c0,0-1.9,3-1.2,3.8S366,625.5,367.5,625.5L367.5,625.5z M227.3,584.1c-0.6,0-1.4,1.1-1.7,2.4
					s0.6,5.2,1.4,6s3.2,2.7,3.8,2.6s2.6-1.6,2.6-2.8s-0.6-4.7-1.4-5.5C230.6,585.6,229,584.7,227.3,584.1z M156,677.3
					c2.1-0.5,3.1-2,2.1-3.2s-6.9-1-7.5-0.3s-0.8,3.5,1.2,3.9C153.2,678,154.7,677.8,156,677.3z M358,590.8c0,1,1.3,2,2.8,2.2
					s5.1-2.5,5-3.3s-1.7-3.1-3.1-3.3S358,589.8,358,590.8L358,590.8z M191.1,652.5c2.1-0.5,2.8-1.2,1.4-1.6s-8.5,1.3-8.4,2
					c0.5,1.1,1.9,1.6,3,1l0,0c0.2-0.1,0.3-0.2,0.5-0.3l1.4-0.4C190.9,652.5,191.1,652.5,191.1,652.5z M294.2,588.1
					c0.8,0.8,2,0.8,2.8,0.1l0,0l0,0c0.8-0.8,2.1-3.4,1.3-4.1s-3.3-2.2-4-1.5S293.4,587.3,294.2,588.1L294.2,588.1z M394,589.5
					c1,0,1.9-0.5,2.4-1.3c0.6-0.8,1.1-3.7-0.3-4.2s-5.3,2.1-5.1,2.8C391.6,588,392.7,588.9,394,589.5L394,589.5z M101.3,452.4
					c-0.2,1.1,0.9,2,2.3,2.1l0.4-0.1l0.7-0.2c0.8-0.3,1.2-1.2,0.9-2l-0.4-0.5l-0.8-1C103.1,449.4,101.5,451.3,101.3,452.4z
					 M94.4,680.7c0.9-0.6,0.9-1.6-0.2-2.1s-3.9,1.2-3.8,2S93.4,681.2,94.4,680.7z M360.5,599.7c0.2-1.3-0.5-2.1-1.7-1.9
					s-3.7,1.6-2.8,2.5S360.2,600.9,360.5,599.7L360.5,599.7z M131.7,457.1c0.7,0.1,1.7-0.6,2.2-1.7s-2-3.5-2.9-2.8
					S131,457,131.7,457.1z M272.2,665.5c1.8,2,3.7,2,5.5,0C275.9,663.5,274.1,663.5,272.2,665.5z M382.6,588.2c-1.8-2-3.7-2-5.5,0
					C378.9,590.2,380.7,590.2,382.6,588.2L382.6,588.2z M58.5,311c2-1.8,2-3.7,0-5.5C56.5,307.3,56.5,309.1,58.5,311z M139.9,592.4
					c-1.3,0.3-2.4,0.8-2.4,1.1c0.2,0.6,0.7,1.1,1.3,1.4c1.1,0.1,2.3,0,3.4-0.4l-0.1-0.2c-0.2-0.7-0.6-1.7-1-1.7L139.9,592.4z
					 M98.4,653c1.3-0.3,2.4-0.8,2.4-1.1c-0.6-0.9-1.5-1.4-2.5-1.6h-1.2c-0.3,0-0.9,0.7-0.9,0.9c0.2,0.7,0.6,1.7,1,1.7L98.4,653z
					 M334.5,662c-0.3-0.2-0.6-0.2-0.9,0c-0.2,0.5,0.1,1.1,0.6,1.4l0.6,0.2h0.2C335.4,663.1,334.8,662.2,334.5,662L334.5,662z
					 M141.4,677.2c0.6-0.3,0.8-0.9,0.6-1.5l0,0c0,0,0-0.1-0.1-0.1h-0.2l-0.6,0.1c-0.6,0.3-0.8,0.9-0.6,1.5c0,0,0,0.1,0.1,0.1h0.2
					L141.4,677.2z M290.4,635.8c0.6-0.3,0.8-0.9,0.6-1.5c0,0,0-0.1-0.1-0.1h-0.2l-0.6,0.1c-0.6,0.3-0.8,0.9-0.6,1.5l0,0v0.1h0.2
					L290.4,635.8z"/>
				<path class="st1" d="M148.1,253.1c-2.2,0-4.5,0.5-5.2,1.1c-1.8,1.1-3.8,1.7-5.9,1.7h-30.8c-2.2,0-4.2,0.8-4.4,1.7
					c-0.6,1.6-1.5,3-2.6,4.3c-0.7,0.7-0.3,3.9,0.2,4.4s1.5,2.2,1.1,2.6c-0.6,0.6-1.2,1.4-1.7,2.1c-0.3,1.9-0.4,3.7-0.4,5.6v15.1
					c0,2.2,0.3,4.4,0.8,4.8c1,1.7,1.6,3.7,1.7,5.7v49.4c0,2.2,0.4,4.5,0.8,5.1c1.1,2,1.8,4.2,2,6.5v37.4c0,2.3,0.5,4.5,1.3,6.7
					c0.7,1.5,2.7,5.3,2.8,5.5c1.5,0.2,3.1,0.3,4.6,0.2h57.8c2.2,0,4.4-0.4,4.8-0.8c1.7-1,3.7-1.6,5.7-1.7H206c2.2,0,4.3,0.3,4.8,0.6
					c1.6,0.9,3.2,1.7,5,2.1c1.7,0.3,7-2.9,9.2-2.9h22.4c2.2,0,4.4,0.4,4.9,0.8c1.1,0.9,2.4,1.5,3.8,1.8c1,0,4.1-0.4,4.6-0.9
					c1.8-1.1,3.8-1.7,5.9-1.8h13.9c2.2,0,4.5,0.4,5,0.9s2.3,1.4,2.7,1s2.1-1.4,2.6-1c1.6,0.9,3.2,1.6,5,2.1c1.7,0.3,5.9-2.4,6.6-1.8
					s2.7,4.4,2.7,6.6v9.2c0,2.2-1,4.1-2.3,4.3c-1.8,0.3-3.6,0.9-5.3,1.8c-0.5,0.5-2.4,1.2-3,0.7s-3.2-1.7-4-1.3s-3.6,1.6-4,1.3
					c-1.8-0.9-3.8-1.4-5.9-1.6h-22.3c-2.2,0-4.4,0.4-4.9,0.8c-1.8,1.1-3.9,1.7-6,1.8h-44.2c-2.2,0-4.3,0.3-4.7,0.6
					c-0.7,0.6-1.4,1.2-2.1,1.7c-1.8,0.3-3.7,0.5-5.6,0.4H92.4c-2.3-0.1-4.1-1.8-4.4-4l-1.1-4c0.2-2.2,0.4-5.6,0.4-7.6
					s-0.4-8-0.8-8.5c-1-1.8-1.7-3.9-1.8-6v-44.2c0-2.2-0.4-4.5-0.9-5c-1.1-1.8-1.8-3.9-1.9-6v-41.6c0-2.2-0.4-4.5-0.9-5
					s-1.9-3.1-1.6-3.9s2.2-6,2.2-7.7s-0.3-7.4-0.6-7.8c-0.9-1.7-1.5-3.6-1.5-5.6v-42.2c0-2.2,1.2-4.3,2.6-4.8s5.5-2.9,7-2.9
					s5.7,0.3,6.1,0.7c1.7,1,3.6,1.5,5.5,1.6c2.1,0,8.1-0.3,8.5-0.7c1.7-0.9,3.6-1.5,5.6-1.6h41.5c2.2,0,4.5,0.5,6.5,1.5
					c1.4,0.8,6.4,0.6,6.9,0.2c1.7-1,3.6-1.7,5.6-1.8c2,0,7.8,0.7,8.3,1.5s4.6,0.7,5.2,0.3c2-1,4.1-1.6,6.3-1.8h38.7
					c2.2,0,4.5,0.4,5.1,0.9s3.2,1.8,4,1.4s5.7-2.2,7.9-2.2h33c2.2,0,4.4,0.8,5,1.8s4.5,0.3,5-0.1c1.4-0.9,3-1.6,4.7-1.8
					c1.5,0,6,0.4,6.5,0.9c1.8,1.1,3.8,1.7,5.9,1.8h8.5c2.2,0,4.5-0.4,5-0.9s3-1.2,4.3-0.5s4.4,4.6,4.4,6.9v11.4
					c0,2.2,0.3,4.3,0.6,4.6c0.8,0.9,1.5,1.8,2.1,2.9v0.8c0.1,7.8,0,19.2,0,19.2c0,2.2-0.4,4.5-1,5.1c-0.9,1.3-1.5,2.7-1.7,4.3
					c0,1.2,2.7,7.7,2.7,9.9v52.5c0,2.2,0.4,4.4,0.9,4.9c1.1,1.8,1.8,3.9,2,6v11.3c0,2.2,0.4,4.4,0.9,4.9s1.3,2.1,0.8,2.6
					c-1,1.8-1.6,3.9-1.8,6v30.5c0,2.2,0.4,4.5,0.9,5s2,2.8,1.8,3.5c-0.8,1.5-1.8,2.9-3,4.1c-1,1.1-4.6,3.9-5.7,3.9s-4,0.3-4.4,0.7
					c-1.7,1.1-3.6,1.8-5.6,2c-2,0-7.8-0.7-9.3-1.4s-4.5-3.2-3-3.5s5.5-2.4,5.7-4.1s-0.3-6.9-1.2-7.8s-2.7-4-1.9-4.8s3.1-3.2,4.2-3.2
					s4.3-0.6,5-1.4s2.7-4.5,2.7-6.7V330c0-2.2-0.3-4.2-0.6-4.6s-1-1-1.4-1.3s-0.7-2.8-0.7-5v-55.2c0-2.2-0.6-4.6-1.3-5.3
					s-4.5-2.7-6.7-2.7h-16.5c-2.2,0-4.3-0.3-4.7-0.6c-0.7-0.6-1.3-1.2-1.9-1.9c-1.5-0.2-2.9-0.3-4.4-0.3H148.1z"/>
				<path class="st1" d="M302.5,534.4c-2.2,0-4.4,0.4-5,0.9s-2.2,1.5-2.6,1.1c-1.7-1-3.7-1.6-5.7-1.7h-22.4c-2.3,0-4.6,0.7-6.5,2
					c-1.4,1.1-6.1,1.4-6.4,2.7c-0.4,1.9-1.1,3.8-2,5.5c-0.5,0.6-1.9,3.1-1.5,3.9s1.5,4,1.1,4.5s-1.4,3.5-1,4.2s2.1,3.9,2.1,4.8
					c0.2,1.7,0.7,3.3,1.6,4.7c0.9,1,4.1,3.3,5,2.8s4.7-2.3,6-2.3s5.5-0.4,6.1-0.9c1.4-1,3.1-1.7,4.8-1.9c1.5,0,6,0.4,6.5,0.9
					c1.8,1.1,3.9,1.7,6,1.8H311c2.2,0,4.3-0.3,4.6-0.7c1.8-1.1,3.8-1.7,5.9-1.9l17.2-0.4c2.2,0,4.3-0.2,4.6-0.6
					c1.8-1,3.7-1.6,5.8-1.8h11.4c2.2,0,4.8-0.9,5.7-2s4.5,0.6,4.5,1.8s0.2,4.7-0.6,5.5s-4.6,2.8-6.8,2.8h-5.6c-2.2,0-4.5,0.4-5,1
					c-1.8,1.1-3.9,1.8-6,1.9h-33.4c-2.2,0-4.3,0.3-4.6,0.7s-1.5,1.5-1.6,1.7c-1.5,0.3-3.1,0.5-4.7,0.4H250c-2.2,0-4.3,0.3-4.7,0.7
					c-1.7,1-3.7,1.6-5.7,1.7h-6.2c-2.2,0-4.6-0.6-5.4-1.3c-1.5-1.9-2.4-4.1-2.7-6.5V548c0-2.2-1-4.5-2.3-5.2s-6.5-2.8-7.7-2.8
					s-5.5,0.4-6,0.9c-1.8,1.1-3.8,1.7-5.9,1.8h-8.5c-2.2,0-4.3,0.3-4.6,0.7l-1.5,1.7c-0.2,0.2-2.6,0.5-4.8,0.5h-27.6
					c-2.2,0-4.3,0.3-4.7,0.7c-1.8,1.1-3.8,1.7-5.9,1.9h-22.4c-2.2,0-4.4,0.4-4.9,0.9s-2.2,1.5-2.7,1.1c-1.9-1-4-1.5-6.1-1.7h-5.8
					c-2.2,0-4.5,0.5-5.1,1.1s-2.9,4.5-2.9,6.7v22.2c-0.1,2.4-1.4,4.7-3.5,6c0,0-0.9,3-2.9,3.8s-4.2,1.2-6.4,1.3
					c-1.5,0-5.9-0.8-6.5-1.7V587c-0.1-5.1-0.1-11.2-0.1-11.2c0-2.2-0.4-4.5-0.9-5c-1-1.4-1.6-3-1.8-4.7c0-1.5,0.3-5.8,0.7-6.1
					l1.6-1.7c0.3-1.5,0.4-3.1,0.4-4.7V515c0-2.2,1.4-4.2,3.2-4.5s7.5-0.8,9-0.8s6-0.4,6.6-0.9s2.8-1.9,3.8-1.9s4.1,0.4,4.6,0.9
					s2.7,1.4,3.9,1s4.3-1.2,5.5-0.8s5.3,1.6,6,1.2s3.4-1.6,3.9-1.2c1.8,0.9,3.8,1.5,5.9,1.6h8.4c2.2,0,4.4-0.4,4.9-0.9
					c1.4-1,3-1.6,4.7-1.8c1.5,0,5.9-0.4,6.4-0.9s2.3-1.5,2.6-1.1c1.7,1,3.7,1.5,5.7,1.7h6.4c2.2,0,4.3-0.3,4.6-0.6
					c1.8-1,3.7-1.6,5.8-1.8h38.9c2.2,0,4.4-0.4,4.9-0.9c1.8-1.1,3.9-1.8,6-2h5.8c2.2,0,4.4-0.4,4.9-0.9c1.3-0.9,2.8-1.5,4.3-1.6
					c1.5,0,6,0.4,6.5,0.9c1.7,1,3.6,1.6,5.6,1.8c2,0,7.7-0.4,8.3-0.9c1.8-1,3.8-1.6,5.9-1.8h61.4c2.2,0,4.2,0.5,4.4,1.2
					s-0.2,3.8-1.5,4.9s-7.2,4.6-9.4,4.6h-5.5c-2.2,0-4.4-0.4-4.8-0.8c-1.2-0.9-2.7-1.4-4.2-1.5c-1.5,0-6,0.4-6.5,0.8
					c-1.8,1.1-3.9,1.7-6,1.8h-8.5c-2.2,0-4.3,0.3-4.6,0.6l-1.4,1.5c-0.3,0.3-2.7,0.6-4.9,0.6h-11.4c-2.2,0-4,1.8-4,4l-2,5.5
					c0.2,2.2,1.9,3.9,4.1,4c2,0,7.1-0.3,7.4-0.6s2-1.1,2.8-0.6s3.8,1.6,4.5,1.1s3.3-1.6,3.7-1.2c1.4,0.9,2.9,1.5,4.6,1.7
					c1.5,0,5.9,0.4,6.4,0.9c1.8,1.1,3.8,1.7,5.9,1.8h11.3c2.2,0,4.3-0.3,4.7-0.7l0.3-0.3l0.3-0.3c0.4-0.3,2.3-0.6,4.3-0.7
					s7.8-3.4,10-3.4h4.4c2.4-0.1,4.8-0.8,6.8-2.2l1.6-0.5l1.6-0.5c1.9,0.1,3.6-1.3,3.7-3.2l0,0c0-0.1,0-0.3,0-0.4
					c0.7-1.4,1.1-2.9,1.1-4.5c-0.2-2.3-0.8-4.6-1.8-6.7c-0.8-1.5,0-6,1.2-6s5.4-2,5.7-2.2c1.6-0.8,3.4-1.3,5.2-1.3
					c2.1,0,7.9,1,8.5,2.3s2.8,7.2,2.8,9.4v21.6c0,2.2-0.6,4.5-1.3,5.1s-3.7,0.9-4.7-1s-5.3-7.2-7.3-7.2s-7.9,1.5-8.6,3.3
					s-6.1,4.8-7.7,4.6s-6.6-2.4-7.4-1.9s-4.6,2.1-5.8,2.1s-5.5,0.4-6,0.9s-3,1.9-3.9,1.9s-4.1-0.4-4.6-0.9c-1.8-1.1-3.8-1.7-5.9-1.8
					L302.5,534.4z"/>
				<path class="st1" d="M21.2,498.5c0-2.2-0.4-4.5-0.9-5c-0.8-1-1.5-2.1-1.8-3.4c0.2-1.9,0.6-3.7,1.3-5.5c0.7-1.5,3.5-5.3,4.5-5.3
					c2.3,0.3,4.5,1,6.5,2.2l5.5,4.1c2.2,1.5,4.5,2.9,6.8,4.1l4.1,2.6c2.4,1,4.4,2.6,5.8,4.8l3.4,3.6c2.1,1.1,3.5,3.2,3.7,5.6v55.8
					c0,2.2,0.4,4.4,0.9,4.9s1.2,2,0.7,2.6c-0.9,1.1-1.5,2.4-1.8,3.8c0,1-0.5,4.1-1.1,4.4s-3.1-0.6-4.3-2.4s-8.5-3.6-10.2-5l-3.7-5.6
					c-1-1-2-2.1-2.7-3.4c-0.7-1.4-1.7-2.7-2.8-3.8L24,546.9c-1.7-1.9-2.7-4.3-2.8-6.8V498.5z"/>
				<path class="st1" d="M79,501.3c-2.6-0.1-5.2-0.7-7.6-1.8c-2.3-1.3-4.4-2.9-6.3-4.8c-1.8-1.7-3.9-3-6.3-3.9c-2-0.7-4-1.4-6-1.9
					c-1.2-0.3-5.2-2.9-7.2-3.8L37.8,475c-1.1-0.9-2.2-1.9-3.1-3c0-0.2,3.2-1.3,4-1.7c2.6-1,5.4-1.6,8.1-1.9h37.7c2.5,0.1,5,1,7,2.6
					c0,0,0.6,0.5,1.6,3.5c0.8,2,2.2,3.8,4,5c2.2,1.5,4.2,3.3,6,5.1c1.3,1.3,2.9,2.1,4.6,2.5c3.1,0.6,3.8,1.3,3.8,1.3
					c1.8,1.8,4.1,3,6.5,3.5c2.1,0.4,3.9,6.3,3.3,6.8s-4.6,2.4-6.8,2.4h-5c-2.2,0-4.5,0.4-5,0.9c-1.2,0.9-2.5,1.6-3.9,1.9
					c-0.9,0-4.1-0.4-4.6-0.9c-1.8-1.1-3.9-1.7-6-1.8L79,501.3z"/>
				<path class="st1" d="M352.4,539.9c2.2,0,4.6,0.6,5.4,1.4s2.5,3.7,2.5,5.1s-0.4,6.6-0.9,7.2c-1.4,1.2-2.9,2.2-4.6,3.1
					c-1.2,0.5-4.7,1.7-5.1,1.4c-1.7-0.9-3.5-1.4-5.4-1.4h-33.8c-2.2,0-4.3,0.3-4.8,0.8c-1.7,1-3.6,1.5-5.6,1.6H281
					c-2.2,0-4.5,0.4-5,0.8c-2,1.2-4.3,2.1-6.7,2.5c0,0-0.4,0-1.6-1.2c-0.7-0.7-1.4-1.3-2.3-1.8c-2.2-0.7-3.8-2.7-3.9-5
					c0-2.2,0.3-8.2,0.7-8.5c1.8-0.4,3.7-0.6,5.5-0.5h7.2c2.2,0,4.4-0.4,5-0.9c1.8-1.1,3.9-1.7,6-1.8h22.2c2.2,0,4.4-0.4,5-0.9
					c1.8-1.1,3.9-1.7,6-1.9L352.4,539.9z"/>
				<path class="st1" d="M65.3,611.8c0,2.2,0.7,4.7,1.6,5.6s3.6,5.1,3.6,7s0.8,7.8,1.9,9.3s2,7.8,3,9.8l10.8,15.9
					c0.6,1.4,1.2,2.7,1.9,4c1.5,0.5,3.1,0.7,4.7,0.7h11.3c2.2,0,4.7-1.2,5.5-2.6s4.6-5.3,6.3-5.3s6.8,0.5,7,1.2s1.4,2.8,2.3,3.2
					s6-0.2,6.1-0.9s1.1-3.1,1.6-3.3s3,0,3.5,1s2.4,3.5,2.9,3c1.8-1.1,3.9-1.7,6-1.8h8.5c2.2,0,4.4,0.4,5,0.9
					c1.1,0.9,2.4,1.5,3.8,1.8c1,0,4-0.4,4.6-1c1.4-0.9,3-1.5,4.7-1.6c1.6,0,6.1,0.6,6.3,1.3s-1.1,2.7-3.4,2.8l-5.2,2.2
					c-2.2-0.2-4.3-0.2-4.6,0.2c-1.7,0.9-3.6,1.4-5.5,1.5h-8.2c-2.2,0-4.5,0.4-5.1,0.9c-1.9,1.1-4,1.8-6.2,1.9h-5.7
					c-2.2,0-4.4-0.4-4.9-0.9s-2.2-1.5-2.6-1.2c-1.7,1.1-3.6,1.8-5.6,2c-2,0-8-0.5-8.6-1s-3.1-0.6-4.6,0.7s-7.7,2.8-8.3,2.4
					s-3.7-2-4.5-2s-3.9,0.4-4.4,0.9s-3.4,0.8-5.1-0.3s-4.8-7.1-6.2-8.4s-3.9-7.8-4.8-9.4s-3.8-7.2-3.8-7.1s0-1.1,0-2.4
					s-0.4-5.2-0.8-5.8c-1.2-1.8-2.2-3.8-2.8-5.9l-0.6-4.9c-1.5-2.2-2.9-4.5-4.1-6.9l-6.8-13.4c-1-1.9-1.3-4.2-0.5-5s3.8-3,4.9-3
					c1.6,0,3.1,0.1,4.6,0.4c0.3,0.2,0.5,2.5,0.6,4.7L65.3,611.8z"/>
				<path class="st1" d="M148.2,470.7c-1.4-0.3-2.4-1.4-2.6-2.8c0-1.5,0.1-3.1,0.5-4.5c0.8-0.4,1.8-0.6,2.7-0.6h62.9
					c2.2,0,4.3-0.3,4.7-0.7c0.7-0.6,1.4-1.2,2.2-1.7c1.9-0.3,3.8-0.4,5.6-0.4h9.7c2.1,0,4.1,0.4,6,1.4c1.1,0.8,1,6-0.3,7.3
					s-6.3,5.1-8.5,5.1h-74.6C154.2,473.7,149.7,471,148.2,470.7z"/>
				<path class="st1" d="M353.6,646.5c0.8,0.8,1.2,1.9,0.9,3l-0.6,0.3c-1.4,0.7-2.9,1.4-4.4,2c-2.4,0.9-4.9,1.3-7.4,1.5
					c-2,0-8.5,0.4-9,0.9c-1.8,1.1-3.8,1.8-5.9,1.9h-49.9c-2.2,0-4.4,0.4-4.8,0.8c-1.7,1-3.7,1.6-5.7,1.7h-22c-1.5,0-2.9,0-4.4-0.2
					c-0.5-0.5-0.9-1.1-1.1-1.8c0.5-1.9,1.5-3.6,3-4.8c1.4,0.5,2.9,0.6,4.3,0.1c1.9-0.8,3.6-1.2,3.8-0.8c0.8,1,2.1,1.6,3.4,1.8
					c1.5,0,6.2-0.3,6.7-0.7c1.9-1,3.9-1.6,6.1-1.7H283c2.2,0,4.6-1,5.3-2.2c1.1-1.8,2.4-3.4,3.8-5c1.3-0.5,2.9-0.3,4.1,0.4
					c1.3,0.9,6.7,3.6,8.9,3.6h16.4c2.2,0,4.6-0.7,5.4-1.4s4.3-3.5,4.9-3.1c2.2,1.1,4.5,1.7,6.9,2h7.6
					C348.8,644.8,351.3,645.4,353.6,646.5z"/>
				<path class="st1" d="M345.1,483.5c1.9,0.7,3.9,1.2,5.9,1.3c1.5,0,6.2,0.7,6.3,1.5s-0.2,3.2-0.9,3.8H356c-0.9,0.1-1.8,0.1-2.7,0
					h-26c-2.2,0-4.3,0.3-4.7,0.7c-1.3,0.9-2.8,1.5-4.4,1.7c-1.7,0.2-6.9-0.9-8.2-2.1s-4.7-5.5-4.7-6.4c-0.4-2.2-1.3-4.3-2.8-6.1
					l-4.1-4.2c-1.5-1.6-3.6-2.9-4.7-2.9c-2.5-0.2-4.9-0.7-7.2-1.6c-2-0.9-7.6-5.6-9.4-6.2s-3.7-4.9-2.6-5.1s5.2,0,6.3,1
					s4.7,3.7,5.7,3.7s4,0.4,4.5,0.9c1.8,1.3,3.7,2.3,5.8,3l8.2,2.2c1.6,1.1,3.4,1.8,5.3,2.1c1,0,4.9,0.4,5.4,0.9
					c1.6,1,3.4,1.6,5.2,1.7c1.9,0,8.5,1,9.2,2.2s3.5,3.4,5.2,3.2S343.4,482.8,345.1,483.5z"/>
				<path class="st1" d="M431.8,639.2c1,0,2-0.3,2.8-0.9c0.5-0.5,3.4-1.8,4.6-1.2s5.6,0.8,6.7-1.1l2.7-4.2c0.8-2,2.8-2.5,4.3-0.9
					c0,0,1.3,1.4,2.9,2.9c1.2,1.1,2.2,2.3,3.2,3.6c0.2,0.4,0.8,2.4,0.5,3s-3.3,1.1-5.5,0.7c0,0-0.6-0.1-2.4,2.1l-0.3,0.4
					c-0.6,0.6-3,1.1-5.2,1.1h-33.4c-2.2,0-4.4,0.4-4.9,0.9c-1.7,1-3.7,1.6-5.7,1.7h-8.3c-2.2,0-4.5,0.4-5,0.9
					c-1.9,1.1-4.1,1.8-6.3,2h-10.9c-1.5,0.1-2.9,0-4.4-0.3c-0.5-0.5-0.8-1.2-1-1.9c0.3-1.4,1.3-2.5,2.6-3c1.4-0.4,5.1-3.2,6.1-3.2
					s3.9-0.4,4.5-1c1.9-1.1,4-1.7,6.2-1.9h19.1c2.2,0,4.5-0.4,5.2-1s3.4-1.6,4.4-1s4.7,1.8,5.7,1.3s4.8-1.9,5.5-1.3
					C427.5,638,429.6,638.8,431.8,639.2z"/>
				<path class="st1" d="M60.3,328.2c0.3-0.2,0.8,0.3,1.1,1c0.8,1.4,1.7,2.6,2.8,3.7c0.8,0.6,0.6,4.3,0.1,5s-1.8,3.9-1.4,4.6
					c1.1,2,2,4,2.6,6.2c0.3,1.5-3,5.7-3,6.7s0.4,4.2,0.9,4.7c1.1,1.8,1.7,3.8,1.8,5.9v27.8c0.1,1.5,0,2.9-0.3,4.3
					c-0.2,0.2-1.7,0.6-2-0.3s-1.4-3.3-1.8-3s-1.2-0.8-1.2-3V369c0-2.2-0.4-4.4-0.9-4.9s-1.3-2.3-0.9-3s1.3-3.8,0.8-4.7
					s-1.9-4.8-1.3-5.5c1.2-2.1,1.9-4.5,2.2-6.9v-11C59.9,330.7,60.1,328.5,60.3,328.2z"/>
				<path class="st1" d="M225.3,654.4c1-0.6,2.2-0.4,3,0.3c0.7,0.7,1.7,3.2,1,3.9c-1.9,1.5-4.2,2.4-6.6,2.7H214
					c-2.2,0-4.3,0.3-4.6,0.6c-0.9,0.8-1.8,1.5-2.8,2.1h-0.8c-6.8,0.1-13.7,0.1-20.5,0H185c-0.5-0.7-0.7-1.5-0.8-2.3
					c0.2-1.3,1-2.4,2.1-3.1c2.6-0.9,5.3-1.6,8-2l9.2-1.2c2.2,0,4.3-0.2,4.6-0.6c1.2-0.9,2.6-1.4,4.1-1.6c1.4,0,6.5,0.3,7,0.7
					S224.4,655,225.3,654.4z"/>
				<path class="st1" d="M116.8,474.3c-1.1-1.1-1.9-2.6-1.7-3.2c0.2-0.8,0.4-1.6,0.8-2.4c1.5-0.4,3.1-0.5,4.7-0.4h5.6
					c2.4,0.1,4.5,1.6,5.4,3.8l9.1,5.3c1.6,1.6,2,3.5,1.1,4.3s-5.5,3-7.2,2.4s-7.4-3.2-8.5-4.5S117.9,475.5,116.8,474.3z"/>
				<path class="st1" d="M252,474.3c-1-1-1.7-2.4-1.8-3.8c0-1.1,0.6-4.3,1.3-5c1.1-1.1,2.3-2,3.6-2.9c0.6-0.1,3.2,1,5.1,2l11,6
					c2,0.9,3.6,2.1,3.6,2.8s-2,2.8-4.2,2.8h-6.5c-2.2,0-4.4,0.4-4.9,0.9s-1.9,1.5-2.3,1.5C255.2,477.3,253.5,475.8,252,474.3z"/>
				<path class="st1" d="M394.8,575.2c1.1,0.6,2.4,0.5,3.4-0.2s4.3-1.6,5.9-0.9s5.6,3,5.8,3.7c0.8,1.8,1.9,3.5,3.2,5
					c1.4,1.4,4.8,5.9,4,6.5s-4.6,1.2-6.1-0.3l-5-5c-1.9-1.7-4.3-2.7-6.8-2.8H393c-2.2,0-4.2-0.5-4.4-1.2s-0.2-3.1,0.5-3.8
					S393.9,574.6,394.8,575.2z"/>
				<path class="st1" d="M342.6,583.6c-0.8-1.2-0.8-2.7,0-3.9c0.8-1,2.8-3.6,3.4-3.1c1.4,1,3,1.6,4.8,1.9c1.5,0,5.9-0.4,6.4-0.9
					s2.2-1.5,2.6-1.2c1.5,0.9,3.2,1.5,5,1.6c1.8,0,8.5,0.3,10.4,0s6.5,1.7,5.6,2.2s-8.3,1.4-8.9,1.9s-2.3,1.3-2.9,0.8
					s-3.1-1.8-3.9-1.4s-5.8,2.4-7.5,2.4s-6.8,0.6-7.8,1.2S343.4,584.8,342.6,583.6z"/>
				<path class="st1" d="M166.5,595.6c0.4,0.5,0.4,1.3,0,1.8c-1,1.4-1.6,3-1.8,4.7c0,1.6-1.1,5.7-2.4,5.9s-5.4-0.6-6.4-2.6l-3.8-7.4
					c-1-2-1-4.3-0.1-5.3s4.9-2.8,6.6-2S166.1,595,166.5,595.6z"/>
				<path class="st1" d="M92.5,613.6c-0.4,0.3-0.8,0.4-1.2,0.5c-1.2,0.1-2.5-0.1-3.7-0.5c-0.8-0.5-2.8-4-3.8-6l-3.1-7.5
					c-1-1.9-1.4-3.8-0.8-4.2s3.4-0.7,5.3-0.8s6.9,0.3,7.2,0.6s0.6,2.8,0.6,5v8.2C92.9,611.1,92.8,613.4,92.5,613.6z"/>
				<path class="st1" d="M297.9,622.7c-1.8,0-3.4-1-3.4-2.3s0.6-5.6,1.4-6.2s4.7-1.7,6.3-0.4s5.2,5.5,4.4,6.2
					S299.7,622.7,297.9,622.7z"/>
				<path class="st1" d="M329.9,632.7c-1.4,1.7-3.6,2-4.7,0.7s-3.1-4.4-3.1-5.6s1.4-4.1,3.1-4.3s7-0.2,7.6,0.5s1.4,3.7,0.2,5.2
					L329.9,632.7z"/>
				<path class="st1" d="M267.1,450.8c-0.4-0.5,0-1.1,0.8-1.5s4.8-2,6.9-2.8c1-0.2,2-0.3,3.1-0.3c2.2-0.1,2.8-0.1,2.8-0.1
					c2.2,0.1,4.6,0.7,5.3,1.4s2.4,2.9,2.1,3.4s-2.8,0.8-5,0.8h-10.9C270,451.6,267.5,451.2,267.1,450.8z"/>
				<path class="st1" d="M371.1,622.2c-0.5,1.8-2.2,3.2-3.7,3.2s-6-0.7-6.7-1.5s4.7-6.8,5.7-6.8S371.6,620.5,371.1,622.2z"/>
				<path class="st1" d="M225.6,586.5c0.3-1.3,1.1-2.4,1.7-2.4c1.2,0.1,2.4,0.5,3.4,1.3c0.6,0.7,2.7,3.7,2.7,4.8s-0.6,4.5-1.3,4.7
					s-3.1-0.1-3.8-0.8S225.3,587.8,225.6,586.5z"/>
				<path class="st1" d="M232.2,642.5c0.7,1.1-0.5,1.9-2.7,1.9h-5.3c-2.2,0-4.1-0.6-4.2-1.3c0.2-1.4,1.2-2.6,2.6-2.9
					C224.4,640,231.5,641.4,232.2,642.5z"/>
				<path class="st1" d="M251.6,650.3c-0.7,0-2.8-0.1-4.7-0.2s-4.6-4.4-4.3-4.9l0.4-0.1l0.9-0.2c1,0,3.6-0.1,5.8-0.1h4.2
					c2.2,0,3.4,0.9,2.8,1.9S252.3,650.3,251.6,650.3z"/>
				<path class="st1" d="M158.1,674.1c1,1.3,0.1,2.7-2.1,3.2c-1.3,0.5-2.8,0.6-4.2,0.4c-2-0.4-3.1-1.6-2.3-2.6
					S157.1,672.8,158.1,674.1z"/>
				<path class="st1" d="M360.8,592.9c-1.5-0.2-2.8-1.1-2.8-2.2s1-3,2.3-3.2s5.1-0.2,5.3,0.7S362.3,593.1,360.8,592.9z"/>
				<path class="st1" d="M192.4,650.9c1.4,0.4,0.8,1.1-1.4,1.6c-0.8,0.2-1.5,0.4-2.2,0.6l-1.4,0.4c-1.6,1.2-3,1.6-3.2,0.8
					S191,650.5,192.4,650.9z"/>
				<path class="st1" d="M297.1,588.2c-0.8,0.8-2,0.8-2.8,0h-0.1c-0.8-0.9-1.8-3.3-1.1-4.1s3.1-2.2,3.9-1.5S297.9,587.4,297.1,588.2
					z"/>
				<path class="st1" d="M396.4,588.3c-0.5,0.8-1.4,1.3-2.4,1.3c-0.8-0.1-2.7-1-2.8-1.6c0.2-1.5,1-2.8,2.3-3.5
					C395,583.8,396.9,587.4,396.4,588.3z"/>
				<path class="st1" d="M103.6,454.5c-1.4-0.1-2.5-1-2.3-2.1s1.7-3,3.1-1.7l0.8,1l0.4,0.5c0.3,0.8-0.1,1.7-0.9,2l-0.8,0.2
					L103.6,454.5z"/>
				<path class="st1" d="M355.8,648.2c-0.5-1.4-0.3-2.7,0.5-2.9s3.7-0.1,3.8,0.9S356.4,649.5,355.8,648.2z"/>
				<path class="st1" d="M94.2,678.5c1.1,0.6,1.2,1.5,0.2,2.1s-3.7,1.7-3.8,1S93.1,677.9,94.2,678.5z"/>
				<path class="st1" d="M358.8,597.8c1.2-0.2,1.9,0.6,1.7,1.9s-1.5,3.5-2.5,2.5S357.6,598,358.8,597.8z"/>
				<path class="st1" d="M133.9,455.5c-0.6,1-1.6,1.8-2.2,1.7s-1.8-1.2-1-2S134.5,454.4,133.9,455.5z"/>
				<path class="st1" d="M272.2,665.5c1.8-2,3.7-2,5.5,0C275.9,667.4,274.1,667.4,272.2,665.5z"/>
				<path class="st1" d="M382.6,588.2c-1.8,2-3.7,2-5.5,0C378.9,586.2,380.7,586.2,382.6,588.2z"/>
				<path class="st1" d="M58.5,311c-2-1.8-2-3.7,0-5.5C60.4,307.3,60.4,309.1,58.5,311z"/>
				<path class="st1" d="M233.6,644.8c1.8,0.5,4.3-1.3,5.3,1.6C235.2,647.6,235.2,647.6,233.6,644.8z"/>
				<path class="st1" d="M137.5,593.5c0-0.3,1.1-0.8,2.4-1.1l1.2,0.1c0.4,0,0.8,1.1,1,1.7l0.1,0.2c-0.6,0.4-1.4,0.6-2.2,0.5
					C139,594.7,138.2,594.2,137.5,593.5z"/>
				<path class="st1" d="M100.8,651.9c0,0.3-1.1,0.8-2.4,1.1l-1.2-0.1c-0.4,0-0.8-1.1-1-1.7c-0.1-0.2,0.6-0.9,0.9-0.9h1.2
					C99.3,650.5,100.2,651.1,100.8,651.9z"/>
				<path class="st1" d="M333.6,662.1c0.3-0.2,0.6-0.2,0.9,0s0.9,1.1,0.5,1.6h-0.2l-0.6-0.2C333.5,663,333.4,662.2,333.6,662.1z"/>
				<path class="st1" d="M141.9,675.6c0.3,0.5,0.1,1.2-0.4,1.6l0,0l-0.1,0.1l-0.6,0.1h-0.2c-0.3-0.5-0.1-1.3,0.4-1.6l0.1-0.1
					l0.6-0.1H141.9z"/>
				<path class="st1" d="M290.9,634.2c0.3,0.5,0.2,1.2-0.4,1.6l0,0l-0.1,0.1l-0.6,0.1h-0.2c-0.3-0.6-0.1-1.2,0.4-1.6l0.1-0.1
					l0.6-0.1H290.9z"/>
			</g>
		</g>
	</g>
</g>
</svg>
