<svg xmlns="http://www.w3.org/2000/svg" viewBox="0 0 371.89 252.06"><defs><style>.cls-1,.cls-2{fill:none;stroke-width:3px;}.cls-1,.cls-2,.cls-3{stroke:#fff;}.cls-1{stroke-linecap:round;stroke-linejoin:round;}.cls-2,.cls-3,.cls-4{stroke-miterlimit:10;}.cls-3,.cls-4{fill:#fff;}.cls-4{stroke:#4cbdcc;}</style></defs><g id="Layer_2" data-name="Layer 2"><g id="Layer_1-2" data-name="Layer 1"><polyline class="cls-1" points="351.22 245.68 349.65 243.59 360.29 245.09 358.71 243.01"/><polyline class="cls-1" points="308.98 239.46 307.4 237.37 329.27 240.52 327.7 238.43"/><polyline class="cls-1" points="266.73 233.23 265.16 231.14 284.82 235.9 281.62 231.65"/><polyline class="cls-1" points="224.49 227.01 222.91 224.92 234.2 228.44 231.01 224.2 244.77 228.16 243.12 225.97"/><polyline class="cls-1" points="182.24 220.78 180.67 218.69 202.54 221.84 200.96 219.76"/><polyline class="cls-1" points="140 214.55 138.42 212.47 160.29 215.62 158.72 213.53"/><polyline class="cls-1" points="97.75 208.33 96.18 206.24 118.05 209.39 116.47 207.31"/><polyline class="cls-1" points="66.74 203.76 65.16 201.67 75.8 203.17 74.23 201.08"/><polyline class="cls-1" points="358.62 234.95 360.13 236.62 358.03 243.73 359.52 245.39"/><polyline class="cls-1" points="351.83 194.91 353.33 196.58 350.69 200.62 354.8 205.19 352.96 213.86 354.45 215.52"/><polyline class="cls-1" points="345.04 154.88 346.54 156.55 346.17 173.83 347.66 175.48"/><polyline class="cls-1" points="338.24 114.85 339.74 116.51 339.37 133.79 340.87 135.45"/><polyline class="cls-1" points="331.45 74.81 332.95 76.48 332.58 93.76 334.07 95.42"/><polyline class="cls-1" points="326.38 44.94 327.88 46.61 325.78 53.72 327.28 55.39"/><path class="cls-2" d="M267.79,227.77s5.63-57.44,73.22-65.16"/><path class="cls-3" d="M33,187.05c-.36-.78-.81-1.56-1.18-2.38a7.1,7.1,0,0,1-.42-.88c-.1-.34-.6-.41-.54-.84-.52-.78-.81-1.7-1.33-2.49,0-.38-.34-.47-.51-.72a2.49,2.49,0,0,0-.47-1.25c-.3-.26-.36-.66-.6-1-.06-.09,0-.26,0-.49l-1.07-.89v-.67c-.17-.26-.5-.36-.54-.73s-.17-.46-.27-.68c-.18-.62-.58-1.16-.8-1.78-.1-.27-.47-.35-.52-.72a1.51,1.51,0,0,0-.33-.64c-.2-.23-.14-.6-.45-.75a.53.53,0,0,0-.18-.46c-.1-.11-.09-.33-.2-.44a1.19,1.19,0,0,1-.11-.72l.33-.33h1.06l.28-.28h1l.4-.33.58.35.43-.29h1.26l.29-.28H31l.23-.23h1.06l.27-.26h1.12a.09.09,0,0,1,.09.09v.26c1,.84,1.29,2.11,2,3.26l.38.14.06.61.48.48v.5l.27.3a5.07,5.07,0,0,1,.55,1.09l.38.9a3.25,3.25,0,0,1,.4.5c.2.35.35.74.54,1.1a4.87,4.87,0,0,0,.55,1,7.41,7.41,0,0,1,.77,1.41,9.34,9.34,0,0,0,.66,1.3,5.3,5.3,0,0,1,.73,1.29c.54.4.59,1.1,1,1.58,0,.38.44.46.47.72s.3.41.32.67.39.44.52.69,0,.42.11.64a8.43,8.43,0,0,0,.59,1.06c.31.32.4.75.73,1s.31.86.66,1.18c0,.4.34.57.56.83V190c.69.42.62,1.39,1.33,1.81a1.57,1.57,0,0,0,0,.53c.07.19.33.29.26.56.52.39.61,1.14,1.22,1.45h1l.5-.5h1.09c.14.13.33.31.5.5s.38.31.44.62.32.4.5.6v.25l1,1c.15.35.27.66.42,1a1.64,1.64,0,0,0,.29.3h.82c.54-.67,1.48-.78,2.17-1.31h.67l.93-.52h2l.28.26h.52l.29.27h.52l1.69,1.69v.25c.3.21.16.68.52.8v2.15l-.19.2c-.13.24,0,.51-.07.81-.4.48-.46,1.23-1,1.61v.29l-1,.93a.6.6,0,0,0-.44.18c-.13.12-.23.08-.38.13l-.73.72a.87.87,0,0,0-.81.29h-.52l-.28.26H57.88l-.23-.23-.58,0-.22-.22H55.17l-.46.66c-.24.16,0,.55-.36.73a1.62,1.62,0,0,0,.1.18c.27.41.78.51,1.11.84a3.16,3.16,0,0,0,1.09.57l.09.36c.32.11.62.21.76.59.21.62.61,1.15.83,1.77a2.32,2.32,0,0,0,.46.73,5.73,5.73,0,0,0,.56.54c-.13.38.4.49.28.84a8.36,8.36,0,0,1,1.3,2.24,4.27,4.27,0,0,0,.56,1,6.19,6.19,0,0,1,.76,1.41c.42.79.81,1.6,1.22,2.4.13.26.18.58.46.74s.11.51.38.64c0,.38.49.61.31,1,.12.38.6.46.54.89.31.2.23.64.53.84,0,.2.11.3.2.45a8.14,8.14,0,0,0,.39.89,6.55,6.55,0,0,0,.74.75v.54l.49.48a3.36,3.36,0,0,0,.83,1.75c.35.56.47,1.26,1,1.71v.47l.17.23c.15.2.46.3.38.64.32.18.25.61.54.84s.29.51.49.71.23.45.38.64.21.63.53.85a1.54,1.54,0,0,1,.43.74c.12.31.32.57.43.88a4.32,4.32,0,0,0,.19.45l.36.1c.22.15-.1.62.36.56v.64c.44.17.43.7.76,1,0,.4.34.57.56.83v.53l.28.27c.06.07.18.13.18.19,0,.45.45.6.6,1a8,8,0,0,0,.53,1.1,4.72,4.72,0,0,0,1,1.7v.82l-.35.37h-.7c-.48.27-.87.62-1.43.55l-.29.26h-.51l-.29.27h-.41a4,4,0,0,1-.87.46c-.26.15-.65.07-.91.34-.42-.1-.68.28-1,.34-.1.25-.42.1-.54.28s-.51.07-.71.2-.32.26-.57.24-.56.44-1,.26c-.23.31-.61.22-.92.33a1.09,1.09,0,0,0-.27.21,5.07,5.07,0,0,1-.82-.38c-.11,0-.19-.18-.29-.28v-.51l-.55-.57v-.48c-.62-.79-.76-2-1.58-2.71v-.39c-.21-.49-.6-.91-.58-1.49l-.47-.46A2.52,2.52,0,0,0,62,243a7.9,7.9,0,0,1-.86-1.5c-.06-.09,0-.26,0-.47l-.53-.35V240l-.47-.47a2.38,2.38,0,0,0-.85-1.64c.19-.42-.31-.67-.27-1.07-.47-.33-.54-1-1-1.28.15-.43-.26-.7-.27-1.08-.34-.37-.4-.91-.74-1.28,0-.51-.63-.68-.65-1.19-.35-.46-.43-1.1-.94-1.46a3,3,0,0,0-.84-1.38c.14-.35-.42-.45-.28-.81a6.89,6.89,0,0,1-.46-.73,6,6,0,0,0-.65-1.19c-.28-.31-.38-.76-.73-1v-.6l-.87-.87.12-.11-.31-.66a2.61,2.61,0,0,1-.31-.94c0-.29-.4-.55-.46-.85s-.37-.47-.55-.72v-.52c-.67-.44-.64-1.39-1.32-1.83v-.59l-.54-.38v-.66a.56.56,0,0,1-.28-.54c-.33-.29-.33-.78-.58-1.08a5,5,0,0,1-.64-.94c-.11-.21-.14-.48-.36-.65v-3.16c-.28-.23-.6-.06-.9-.11l-.29.26h-.52l-.27.26H42.77c-.42-.38-.72-.88-1.42-.94l-.28.26v3.18c-.17.18-.48.34-.51.55a1.25,1.25,0,0,1-.41.64c-.28,0-.62-.06-.81.28h-.78l-.26.24c-.31.15-.71-.06-1.06.06l-.27-.27a12.5,12.5,0,0,0-1.62,0l-.19-.38h-.53a2.73,2.73,0,0,0-.92-.66c-.19-.08-.27-.3-.51-.38a12.64,12.64,0,0,1-1.29-.61,5.34,5.34,0,0,0-1.07-1,15.24,15.24,0,0,1-2.13-1.88v-.28c-.29-.23-.44-.62-.89-.7-.17,0-.36-.27-.41-.45a1.34,1.34,0,0,0-.26-.43c-.11-.12-.26-.26-.28-.4s-.18-.29-.28-.42a3.52,3.52,0,0,1-.52-1.11c0-.2-.13-.3-.22-.44s0-.25-.06-.37a5.89,5.89,0,0,0-.24-.58V202.3c.18-.16.19-.45.34-.62s.14-.6.46-.75l.74-.37h.42l.28-.26h1.59l.24.24h1.32l.26.26h1.06a2.19,2.19,0,0,0,1,.72c.38.15.71.48,1.18.37l1.3,1.32H36l1,1h.26c.27.17.2.53.47.73a2,2,0,0,1,.39.6h.29l.12.43.38.31h.54c.16-.26.06-.53.09-.78-.26-.62-.72-1.11-1-1.8V203l.26-.28v-.52L39,202v-1l.55-1c-.16-.46.48-.74.18-1.28l-2-2v-.49c-.31-.64-.56-1.21-.87-1.73s-.42-1.2-1-1.55v-.43c-.05-.36-.59-.41-.53-.84a.93.93,0,0,1-.27-.82c-.59-.79-.77-1.83-1.47-2.57a1.43,1.43,0,0,1-.19-.44m3.78,18.66v-.31l.23-.25-.24-.62c-.32-.2-.55-.62-1-.85a6.85,6.85,0,0,1-1.21-1h-.33v.89l-.25.25v1.29l-.29.37v1.28c-.18.17-.36.31-.18.57a1.87,1.87,0,0,0,.88,0c.24-.16.35-.46.7-.54s.46-.34.66-.5h.44a2.42,2.42,0,0,1,.7-.48v.4c-.36.08-.4.66-.91.61l-.85.81H35c-.12.19-.39.26-.37.66,0,.11.26.18.37.36.22.35.75.24.93.65a.3.3,0,0,0,.19.16c.48.12.86.46,1.42.61l.94,1c.28-.11.37.19.51.24h.87a1.16,1.16,0,0,1,.07-.37,1.32,1.32,0,0,1,.25-.28V210.3c-.11-.22-.18-.37-.26-.51a2.26,2.26,0,0,1-.26-.42c-.06-.2,0-.4-.12-.62a4.24,4.24,0,0,0-1.22-1.7v-.29c-.18-.12-.25-.36-.5-.39l-.23.08c-.17,0-.27.11-.39.07Zm-.61-25.6a1.8,1.8,0,0,1,.29-.26.32.32,0,0,0,.24-.07,1.64,1.64,0,0,0,.26-.2h.81l.29-.26h.65l.57-.38a2.8,2.8,0,0,0-.83-1.35v-.54l-.54-.26V177c-.62-.32-.62-1.06-1-1.54-.09-.1,0-.34,0-.5a2,2,0,0,1-.28-.3.66.66,0,0,1,0-.28l-.73-.38h-.67l-.29.26h-.51l-.29.27H34l-.29.27H32.16l-.3.27H30l-.32.28H29.1l-.78.61a1.83,1.83,0,0,1,.26.36c.12.26.2.53.33.78s.42.49.43.74.27.42.32.67a1.38,1.38,0,0,0,.38.76c.27.25,0,.62.26.82.13.5.64.77.76,1.27,0,.08.11.14.18.19l.16.1h.79l.21-.21a9.08,9.08,0,0,1,1.38,0l.23-.23h1.57l.29-.27h.92c0,.07,0,.18-.09.21s-.47.21-.71.3H34.85l-.31.27H34l-.3.27H32.41l-.36.4v1.1a3.11,3.11,0,0,1,.62.82c.11.19.09.41.24.57a2.4,2.4,0,0,1,.46.59,12.88,12.88,0,0,0,1,2c0,.39.46.64.26,1.06l.39.39H36.3l.86-.61h2c-.13.11-.2.23-.3.26a2.7,2.7,0,0,0-.5.07.89.89,0,0,0-.29.22c-.27.07-.54-.12-.78,0l-.2.19H36c-.14.25-.44.23-.64.37a.51.51,0,0,1,0,.19l.27.4a3,3,0,0,0,.46,1.21,2.14,2.14,0,0,1,.37.52c.2.53.52,1,.76,1.53.06.11,0,.26,0,.46.48.16.47.73.8,1.06-.08.45.25.77.4,1.14h1.32a2.23,2.23,0,0,1,1.6-.56l.29-.23h1l1-.56h1.23l.22-.23h.79l.3-.28h.77l.4-.39c-.06-.23.1-.51-.19-.71s-.06-.4-.27-.55a1.13,1.13,0,0,1-.36-.5c-.58-1.22-1.24-2.4-1.82-3.62a1.81,1.81,0,0,0-.44-.55H42.67l-.25.25H41.13l-.38.29H40l-.22.22-.28-.25h-.4l.12-.27h1.35l.23-.24h.59l.22-.23h1.87l.36-.41-.23-.26v-.5l-.54-.57v-.56c-.83-.45-.89-1.51-1.58-2.09-.15-.69-.68-1.21-.79-1.64l-1.12-1.13a.6.6,0,0,0-.6.26h-.52l-.29.28Zm30.66,68.83c.09-.09.14-.19.21-.2.38,0,.63-.47,1.06-.33a1.76,1.76,0,0,1,.65-.34c.08,0,.12-.12.19-.18s.08,0,.13,0h.7l.94-.54H72l1.51-.78h.65l.42-.27.5-.26h.71l.39-.39v-.78c-.19-.16-.19-.47-.35-.63a14.42,14.42,0,0,1-1.21-1.89c-.4-.51-.5-1.23-1-1.68a.64.64,0,0,1-.08-.14v-.47a2.93,2.93,0,0,1-.85-1.38,8.08,8.08,0,0,0-.66-.65c-.3-.22-.28-.62-.56-.83.11-.41-.26-.69-.3-1.07,0-.06-.12-.1-.16-.13h-.84l-.51.51c-.15,0-.39-.08-.48,0-.25.25-.66.2-.85.52h-.79c-.14.33-.55.2-.74.46s-.49,0-.72.18a3.44,3.44,0,0,1-.75.42h-.67l-.33.28a.65.65,0,0,0-.76.25c-.26-.08-.37.17-.55.25s-.42-.06-.62.11a2.35,2.35,0,0,1-.54.29v.27l.26.28v.55c.22.09.21.33.3.51a1.75,1.75,0,0,0,.46.48,1,1,0,0,0,.1.61,11.12,11.12,0,0,1,.55,1.09c.19.37.36.74.55,1.1a7.38,7.38,0,0,0,.58,1.07c.19.25,0,.53.34.91l.3.28c-.1.28.16.38.27.58v.7l.51.27v.6l.39.37ZM64.57,228h-.79l-.29.27H63c-.07.07-.12.16-.2.19-.3.12-.69,0-.92.34-.54-.21-1,.32-1.47.28-.13,0-.27.17-.37.25h-.68l-.93.53h-.72c-.25.3-.74.27-.92.65.31.19.23.63.52.83-.06.43.44.51.53.84v.26c.16.37.34.74.52,1.11V234c.13.12.3.26.45.42s.05.43.29.54c.51,1.15,1.1,2.27,1.65,3.4.18.37.28.8.68,1s.84-.4,1.33-.31c.08,0,.19-.16.3-.25h.65c.4-.2.68-.46,1-.48a5.84,5.84,0,0,0,1-.38c.2-.37.65,0,.92-.35s.68,0,.9-.35c.42.17.68-.3,1.08-.28s.55-.43.92-.26l.79-.7a12.53,12.53,0,0,0-.79-1.44c-.25-.3-.33-.68-.6-1,.07-.46-.61-.5-.53-1-.27-.17-.22-.52-.43-.75s-.13-.48-.36-.63c.07-.33-.3-.48-.33-.8s-.32-.38-.46-.59a1.27,1.27,0,0,1-.26-.55c0-.27-.39-.38-.28-.68-.3-.25-.26-.73-.65-.92a1.87,1.87,0,0,0-.88.06Zm-9.93-1.45a2.09,2.09,0,0,0,0,.5c0,.16.24.21.27.42.08.46.6.6.78,1V229l.89.9.29-.24h.49l.3-.27h.52l.29-.27h.77l.31-.28h.77l.52-.52H62a1,1,0,0,1,.44-.26c.14-.08.27-.19.37-.26h.71l.29-.27h1.05l.39-.39v-.8a6.09,6.09,0,0,1-1.07-1.8c-.21-.4-.33-.89-.78-1.1v-.72l-.54-.36v-.55c-.18-.26-.57-.35-.52-.74-.34-.42-.44-1-.79-1.39,0-.47-.45-.61-.68-.9h-.19l-.37.27h-1l-.22.22-.57.06-.34.27H56.59l-.22.22h-1l-.3.28h-.51l-.3.27h-.51l-.3.27h-.94l-.75.38v.78c.2.28.58.43.56.84.27.14.19.46.37.65s.38.3.42.62.33.39.51.58v.67l.34.71ZM60.53,218c-.15-.3-.23-.49-.33-.67-.22-.39-.38-.82-.6-1.2a7.83,7.83,0,0,0-.72-1.3c.07-.33-.22-.45-.39-.62s-.11-.52-.37-.65c0-.4-.35-.57-.56-.82v-.48c-.34-.18-.24-.63-.56-.83s-.26-.74-.66-.88H55.06c-.2.45-.8,0-1,.48l-1.12.07-.22.21-.58.05-.23.23h-.75l-.95.55H49.3c-.62.38-1.4.31-1.78,1v.24c.33.3.33.76.56,1.09a6.86,6.86,0,0,1,.63,1.2,2.3,2.3,0,0,1,.42,1.16c0,.11.15.29.23.42a7.32,7.32,0,0,0,.77.9v.42c.12.21.18.36.27.5a1.68,1.68,0,0,0,.3.4c.19.15.2.36.28.55a1.66,1.66,0,0,0,.25.34H52.4l.24-.24H54l.52-.53h1.67l.3-.27H57l.29-.27H58l.3-.28h.76l.32-.27h.71ZM51.16,201.3h1l1-.54h1.25l.2-.2.71-.14v-.58c-.22-.25-.56-.43-.56-.82-.27-.14-.18-.46-.37-.65s-.38-.3-.42-.62-.34-.39-.52-.57l-.69-.69L52,195H50.08l-.26.26H48.76l-.23.23H48l-.3.28h-.55l-.27.24-.28-.23a.8.8,0,0,0-.75.2,2.33,2.33,0,0,1-.72.32,4.82,4.82,0,0,0-.93,0l-.22.22h-.52l-.3.28H42.12l-.09.09v.59l.22.23v.61a4.29,4.29,0,0,0,.56.48c.25.16.25.44.35.65a4.78,4.78,0,0,1,.43.88c.09.33.59.41.52.85.53.39.62,1.13,1.23,1.45h1.55l.3-.26a2.53,2.53,0,0,0,.55,0c.36-.08.66-.34,1.06-.32l.09-.09.14-.14h1.06l.23-.23h.57ZM31.49,174.83,33,174h1.45l.31-.24h.69l.68-.47a2.42,2.42,0,0,1-.32-1.08l-.69-.65c0-.15-.11-.3-.17-.44s-.28-.5-.43-.75c.17-.39-.15-.66-.29-.93a2.79,2.79,0,0,0-.58-1c-.25-.22-.22-.65-.58-.82l-.28.25H31.26l-.29.28H28.6l-.24.24H27l-.28.28H25.16l-.61.61v.09l.48.48v.6c.45.11.52.58.72.94a9.59,9.59,0,0,1,.6,1.2,4.68,4.68,0,0,1,.55,1.23c.3.2.28.51.27.81l.76.39q.63,0,1.26,0l.22-.23ZM44,209.24h.46l1-.54h.88l.75-.38v-.44l.37-.73.58-.05.23-.23h.52l.29-.28h1l.27-.25h1l1.54.79a2.09,2.09,0,0,0,1-1.29c.11-.25-.07-.52.09-.76l.19-.2v-.52l.27-.29v-.51l.27-.29c-.09-.6.4-1,.53-1.55l-.45-.42c-.19,0-.44-.1-.6.12s-.7,0-.92.36c0,.08-.32,0-.49,0s-.54-.11-.73.15-.51,0-.72.18l-.19.19h-.52l-.29.28h-1l-.29.27h-.94l-.3.27H46.58c-.13.1-.22.21-.34.24a1,1,0,0,1-.35,0l-.77.63c0,.33.05.58-.21.79s.07.52-.2.7,0,.55-.19.71-.15.47-.36.66-.13.48-.37.63v.82l-.28.39c.1.3.33.38.45.55Zm-4.37-7v1.86c.15.15.38.28.45.46.15.38.45.72.38,1.15l.76.76v.28a3.15,3.15,0,0,1,.37.36,3.45,3.45,0,0,1,.28.54,2.11,2.11,0,0,0,.82,1l.39-.34v-.81c.07-.07.16-.12.19-.2.13-.29,0-.69.34-.91-.17-.39.29-.62.25-1s.25-.44.27-.68,0-.53.26-.69c-.15-.32.31-.4.28-.67a11.22,11.22,0,0,0-.78-1.28,4.12,4.12,0,0,0-.82-1.24v-.41l-.78-.78v-.4c-.2-.28-.55-.39-.51-.77-.19-.16-.28-.46-.63-.41a3.67,3.67,0,0,0-.36.6c-.12.3,0,.67-.32.93-.07.06,0,.26,0,.39a.76.76,0,0,1-.22.57c-.11.16-.07.41-.12.61s-.11.13-.18.19v.56Zm-11.77.13c.19.28.58.41.65.78s.43.54.65.79c.42.45.87.87,1.3,1.31l.14.15.11.39H31l.92,1V207c.17.08.35.16.52.26s.26.35.52.4h.52v-.91l.27-.31v-1.53l.27-.34V203.3l.21-.21a2.61,2.61,0,0,0-1.27-1c-.34.11-.53-.22-.81-.27s-.44-.4-.73-.54h-1.3l-.25-.25H28.05c-.26.33-.75.27-.88.63l.36.69Zm19.45,8.08v1.06l.39.38.28-.25h.77l.29-.27h.52l.29-.27h1.06c.17-.43.63-.14.9-.38s.84,0,1.24-.19l.23-.23h1.06l.61-.61v-.17c-.36-.26-.83-.46-1.22-.79a4.26,4.26,0,0,0-.81-.38c-.2-.56-1-.62-1.44-1.18H50.1l-.21.21h-.58l-.24.24h-.91l-.36.39a1.15,1.15,0,0,1-.33.85v1.31Zm-20.12-4a3.38,3.38,0,0,1,.93,1.19,1.9,1.9,0,0,0,.83,1h2.79l.78-.4c-.05-.11-.08-.23-.13-.34s-.13-.12-.16-.2a1.32,1.32,0,0,1-.08-.33l-.37-.08-.58-.58-.14-.43h-.31L29.45,205h-.29a4,4,0,0,1-.37-.63,1.11,1.11,0,0,0-.28-.55,4.85,4.85,0,0,1-.56-.55c-.31-.31-.61-.63-.9-.93-.24.06-.47-.08-.66.12v2.17l.22.21.06.59.49.49ZM33.29,212a9.67,9.67,0,0,0,1.93,1.09c.23.15.58.08.87.11l.31.26h1.28l.21.21a3,3,0,0,0,1.19-.88v-.07c-.27-.2-.41-.54-.81-.62a1.3,1.3,0,0,1-.73-.43c-.22-.32-.57-.38-.85-.52a4.26,4.26,0,0,1-1.55-1c-.14-.18-.4-.05-.55-.27s-.24-.38-.48-.37-.35.28-.52.4v.79l-.27.28Zm26.14-14.65c-.51-.28-.79.32-1.24.22a.55.55,0,0,0-.31.16c-.08.08-.42,0-.56.27a1,1,0,0,1-.62.4c-.19,0-.11.47-.37.62v.32l.52.43v.35a1.72,1.72,0,0,1,.45.16c.17.13.31.3.47.45s.09,0,.13,0a16.64,16.64,0,0,1,1.51.79h.19L60,201v-2.52l-.27-.29v-.52Zm.88,3.81c.2.12.27.39.65.36.29-.5,1-.6,1.41-1.12a17.71,17.71,0,0,1,1.36-1.38c.07-.49-.22-.82-.39-1.2H63l-.39-.54H61.49l-.34-.29-.32.17-.22.13-.31.11V199l.25.28c.11.3-.2.37-.24.5Zm-3.26,2.29a2,2,0,0,0-1.43,1.32l1,1H59c.07,0,.14-.09.21-.13v-.79l.26-.28v-1l.25-.28-.38-.38-.28.26h-.82c-.13.35-.58.24-.8.52h-.25Zm6.62-3.58c-.33.09-.64.21-.73.6s-.39.51-.73.6l-.13.37a4.12,4.12,0,0,1-.74.34c-.25.05-.25.19-.25.36.31.62,1.06.71,1.45,1.24h.51l1-1v-.24l.27-.29v-.5l.24-.28v-1.3l-.36-.41h-.32a1.93,1.93,0,0,0-.26.52Zm-31,9.07H31.26l-.28.27h-.82l-.38.38c.28.24.46.55.86.7s.58.5.88.77h.36l.35.54c.46-.25.41-.73.72-1v-.71l.38-.55Zm27.07-3.07c.22-.2.32-.37.4-.36.27,0,.4-.26.55-.25.31,0,.4-.3.68-.31a1.25,1.25,0,0,0,.55-.25c.22-.13.45-.25.47-.55-.32-.8-1.21-.83-1.78-1.29h-.24c-.12.21-.13.49-.37.64v.78l-.19.19s-.06.07-.06.11a12.36,12.36,0,0,0,0,1.3Zm-1.2-4.06a2.41,2.41,0,0,0-1-.72,2,2,0,0,0-.34-.12l-.4.42v.7l-.32.59.41.42c.81.12,1.25-.65,1.88-.54l.45-.37-.1-.38Zm-19.17-4.92c.14.15.31.28.27.54l.29.15c.45-.21.47-.68.71-1l-.35-.39c-.28.36-.77.32-.95.71Z"/><path class="cls-3" d="M39.34,196.93c.18-.39.67-.35.92-.67l.35.39c-.24.29-.26.76-.71,1-.09-.05-.3-.12-.29-.15C39.65,197.21,39.48,197.08,39.34,196.93Z"/><path class="cls-3" d="M326.73,20.64c-.36-.78-.81-1.56-1.18-2.38a7.23,7.23,0,0,1-.42-.89c-.1-.34-.6-.4-.54-.83-.52-.79-.81-1.71-1.33-2.5,0-.38-.34-.47-.51-.71a2.52,2.52,0,0,0-.47-1.26c-.3-.26-.36-.65-.59-1-.07-.08,0-.26,0-.49l-1.07-.89V9.07c-.17-.25-.5-.35-.54-.72s-.17-.46-.27-.68c-.18-.63-.58-1.17-.8-1.79-.1-.26-.46-.35-.52-.71a1.61,1.61,0,0,0-.33-.65c-.2-.23-.14-.6-.45-.75a.63.63,0,0,0-.18-.45c-.12-.14-.09-.34-.2-.44a1.19,1.19,0,0,1-.11-.72l.33-.33h1.06l.28-.28h1l.4-.33.58.34.43-.29h1.26l.29-.27h1.85l.23-.23H326l.27-.27h1.12s.08.06.09.09V.86c1,.83,1.29,2.1,2,3.26l.38.13.06.61.48.49v.5l.27.29a4.92,4.92,0,0,1,.55,1.1l.38.9a3.17,3.17,0,0,1,.4.49c.2.36.35.74.54,1.1a4.87,4.87,0,0,0,.55,1,7.09,7.09,0,0,1,.77,1.4,10.57,10.57,0,0,0,.66,1.3,5.36,5.36,0,0,1,.73,1.3c.54.39.59,1.09,1,1.57,0,.38.44.46.47.72s.3.41.32.67.4.44.52.69,0,.43.11.64a7.44,7.44,0,0,0,.59,1.07c.31.31.4.74.73,1s.31.85.66,1.17c0,.4.34.58.56.83v.54c.69.42.62,1.39,1.33,1.82a1.51,1.51,0,0,0,0,.52c.07.19.33.3.26.56.52.39.61,1.14,1.22,1.45h1l.5-.5h1.09c.14.14.33.31.5.51s.38.31.44.62.32.39.5.59v.25l1,1c.15.35.27.65.42.94a1.64,1.64,0,0,0,.29.3h.82c.54-.67,1.48-.78,2.17-1.3h.67l.93-.53h2l.28.26h.52l.29.27H357l1.69,1.69v.25c.3.21.15.69.51.8V35.3l-.19.19c-.13.25,0,.51-.07.81-.4.48-.45,1.23-1.05,1.61v.29l-.95.93a.47.47,0,0,0-.44.19,1.29,1.29,0,0,1-.38.12l-.73.73c-.28,0-.62-.05-.8.28h-.38l-.28.27h-2.12l-.23-.23-.58-.06-.22-.21h-1.68l-.46.65c-.24.17,0,.56-.36.73a1.14,1.14,0,0,0,.1.19c.27.41.78.51,1.12.83a3,3,0,0,0,1.08.57l.09.36c.32.11.62.21.76.59.21.62.61,1.15.83,1.78a2.65,2.65,0,0,0,.46.73,7.14,7.14,0,0,0,.56.54c-.13.37.4.49.28.83a8.8,8.8,0,0,1,1.3,2.24,4.92,4.92,0,0,0,.56,1,6.12,6.12,0,0,1,.76,1.4c.42.79.81,1.61,1.22,2.41.13.25.18.57.46.73s.11.51.38.64c0,.38.49.62.31,1,.12.38.6.47.54.89.31.2.23.64.53.84a.78.78,0,0,0,.2.45,9.07,9.07,0,0,0,.39.89,5.25,5.25,0,0,0,.74.75v.54l.49.49a3.32,3.32,0,0,0,.83,1.75c.34.56.47,1.25,1,1.7v.47l.17.24c.15.19.46.3.38.63.32.19.25.61.54.84s.29.51.49.71.23.46.38.64.21.64.53.86a1.47,1.47,0,0,1,.43.73c.12.31.32.57.43.88a3.71,3.71,0,0,0,.19.46l.36.09c.22.16-.1.62.36.57v.63c.44.17.43.7.76,1,0,.41.34.57.56.83v.54l.28.27c.06.06.18.12.18.19,0,.44.45.59.6.94a11.12,11.12,0,0,0,.53,1.1,5.17,5.17,0,0,0,1,1.71v.81l-.35.37h-.7c-.48.27-.87.62-1.43.56l-.29.26h-.46l-.29.27h-.41a4.69,4.69,0,0,1-.86.45c-.27.16-.66.08-.92.34-.42-.09-.68.29-1,.34-.1.26-.42.1-.54.28s-.51.08-.71.2-.32.27-.57.24-.56.44-.95.26c-.23.32-.61.23-.92.34a.79.79,0,0,0-.27.21,6.1,6.1,0,0,1-.82-.38c-.11,0-.19-.18-.29-.29v-.51l-.55-.57v-.47c-.62-.8-.76-2-1.58-2.71v-.4c-.21-.49-.6-.9-.58-1.48l-.46-.47a2.74,2.74,0,0,0-.48-1.26,7.9,7.9,0,0,1-.86-1.5c-.06-.09,0-.26,0-.46l-.53-.36v-.67L354.1,73a2.37,2.37,0,0,0-.94-1.69c.19-.42-.31-.67-.27-1.06-.47-.33-.54-1-1-1.28.15-.43-.26-.71-.27-1.09-.34-.37-.4-.9-.74-1.28,0-.51-.63-.68-.65-1.18-.35-.47-.43-1.1-.94-1.47a3,3,0,0,0-.84-1.37c.15-.35-.42-.46-.28-.81a8.23,8.23,0,0,1-.46-.74,6,6,0,0,0-.65-1.19c-.28-.31-.38-.75-.73-1v-.61l-.87-.86.12-.11-.31-.66a2.61,2.61,0,0,1-.31-.94c0-.3-.4-.55-.46-.86s-.37-.46-.55-.72v-.52c-.67-.44-.64-1.38-1.32-1.83v-.59l-.54-.38v-.66a.56.56,0,0,1-.28-.54c-.33-.29-.33-.77-.58-1.08a5.3,5.3,0,0,1-.64-.93c-.11-.22-.14-.48-.36-.65V43.73c-.28-.24-.6-.07-.9-.12l-.29.27h-.52l-.27.26h-1.59c-.42-.39-.72-.89-1.42-1l-.28.27v3.18c-.17.17-.48.34-.51.54a1.19,1.19,0,0,1-.41.64c-.28.06-.62-.06-.81.29h-.78l-.26.23c-.31.15-.71,0-1.06.07l-.27-.27a12.35,12.35,0,0,0-1.61,0l-.29-.25h-.53a2.7,2.7,0,0,0-.92-.65c-.19-.09-.27-.31-.51-.39a10.13,10.13,0,0,1-1.29-.61,5.34,5.34,0,0,0-1.07-1,14.56,14.56,0,0,1-2.13-1.87V43c-.29-.23-.44-.63-.89-.7a.68.68,0,0,1-.41-.45,1.06,1.06,0,0,0-.26-.43c-.11-.13-.26-.26-.28-.41s-.18-.29-.28-.41a3.52,3.52,0,0,1-.52-1.11c0-.21-.13-.3-.22-.45s0-.25-.06-.37a5.89,5.89,0,0,0-.24-.58V35.9c.18-.16.19-.46.34-.63s.14-.6.46-.74l.74-.38h.42l.28-.26h1.57l.24.25h1.32l.26.25H326a2,2,0,0,0,1,.72c.38.15.71.49,1.18.38l1.3,1.31h.26l1,1H331c.27.16.2.53.47.72s.26.4.39.6h.29l.12.42.38.32h.54c.16-.27.06-.54.09-.79-.26-.61-.72-1.1-1-1.79v-.7l.26-.28v-.52l.24-.23v-1l.55-1c-.16-.45.48-.74.18-1.27l-2-2v-.49c-.31-.64-.56-1.2-.87-1.73s-.42-1.2-1-1.54v-.44c-.05-.36-.59-.41-.53-.84a.91.91,0,0,1-.27-.81c-.59-.8-.77-1.83-1.47-2.57a1.49,1.49,0,0,1-.19-.45M331,40.07v-.31l.23-.24-.32-.65c-.32-.2-.55-.62-1-.86a7.75,7.75,0,0,1-1.21-1h-.33v.9l-.25.24v1.3l-.29.36v1.28c-.18.18-.36.32-.18.57a1.75,1.75,0,0,0,.88.05c.24-.16.35-.46.7-.53s.46-.35.66-.51h.44a2.42,2.42,0,0,1,.7-.48v.4c-.36.08-.4.67-.91.61l-.85.81h-.51c-.12.19-.39.26-.37.66,0,.12.26.19.37.37.22.35.75.24.93.65a.32.32,0,0,0,.19.15c.48.12.86.46,1.42.61l.94,1c.29-.1.37.2.51.24h.87a.89.89,0,0,1,.07-.36,1.16,1.16,0,0,1,.25-.29V43.81c-.11-.22-.18-.37-.26-.51a2.26,2.26,0,0,1-.26-.42c-.06-.19,0-.39-.12-.61a4.28,4.28,0,0,0-1.21-1.7V40.3c-.18-.12-.26-.37-.51-.39a.9.9,0,0,0-.23.08c-.19.07-.29.15-.41.11Zm-.61-25.6c.13-.11.2-.2.29-.26s.17,0,.24-.06a1.33,1.33,0,0,0,.26-.21h.73l.29-.26h.65l.57-.38a2.77,2.77,0,0,0-.83-1.34v-.55l-.54-.26v-.57c-.62-.31-.61-1-1-1.53-.09-.1,0-.34,0-.51a1.33,1.33,0,0,1-.28-.3.66.66,0,0,1,0-.28L330,7.59h-.67l-.29.26h-.51l-.29.27h-.51l-.29.27h-1.57l-.3.27h-1.95l-.32.27h-.62l-.78.61a2.36,2.36,0,0,1,.26.36c.12.26.2.54.33.79s.42.48.43.73.27.42.32.68a1.35,1.35,0,0,0,.38.75c.27.25,0,.63.26.82.13.5.64.77.76,1.28,0,.07.11.13.18.18a.91.91,0,0,0,.16.11h.79L326,15a10.59,10.59,0,0,1,1.38,0l.23-.23h1.53l.29-.27h.92c0,.08,0,.19-.09.22l-.71.3h-1.14l-.27.26h-.5l-.3.27H326l-.37.39v1.1a3.16,3.16,0,0,1,.62.83c.11.18.09.4.24.56a2.46,2.46,0,0,1,.46.6A13.18,13.18,0,0,0,328,21c0,.4.46.64.26,1.06l.39.39h1.28l.91-.52h2c-.13.12-.2.23-.3.26a2.7,2.7,0,0,0-.5.07,1.09,1.09,0,0,0-.29.23c-.27.06-.54-.12-.78,0l-.2.19h-1c-.14.26-.44.23-.64.38a.48.48,0,0,1-.05.18l.27.41a3.13,3.13,0,0,0,.46,1.21,2.08,2.08,0,0,1,.37.51c.2.53.52,1,.76,1.53.06.11,0,.26,0,.47.48.15.47.72.8,1-.08.46.26.77.4,1.15h1.32a2.13,2.13,0,0,1,1.6-.56l.29-.23h1l1-.57h1.23l.22-.23h.79l.3-.27h.77l.4-.4c-.06-.23.1-.5-.18-.71s-.07-.4-.28-.55a1.06,1.06,0,0,1-.36-.5c-.58-1.22-1.24-2.39-1.82-3.61a1.74,1.74,0,0,0-.44-.56h-1.58l-.25.25H334.8l-.38.29h-.74l-.22.23-.28-.26h-.4l.12-.27h1.35l.23-.23.59-.06.23-.23h1.86l.36-.4-.22-.27v-.5l-.55-.57v-.56c-.83-.44-.89-1.5-1.58-2.08-.15-.7-.68-1.22-.79-1.65l-1.12-1.12a.57.57,0,0,0-.6.26h-.5l-.29.27ZM361,83.3c.09-.08.14-.19.21-.2.38,0,.63-.47,1.06-.32a1.63,1.63,0,0,1,.65-.34c.08,0,.12-.13.19-.18s.08,0,.13,0h.61l.94-.54h.89l1.51-.79h.65l.42-.26.5-.27h.71l.39-.38V79.3c-.19-.15-.19-.47-.35-.62a14.42,14.42,0,0,1-1.21-1.89c-.4-.51-.5-1.23-1-1.69a.21.21,0,0,0-.08-.14v-.47a2.93,2.93,0,0,1-.85-1.38,8.08,8.08,0,0,0-.66-.65c-.29-.21-.28-.62-.56-.83.11-.41-.26-.69-.3-1.06,0-.06-.12-.11-.16-.14h-.78l-.51.51c-.15,0-.39-.07-.48,0-.25.25-.66.19-.85.51h-.79c-.14.33-.54.2-.74.47s-.49,0-.72.18a3,3,0,0,1-.75.41h-.67l-.32.29a.65.65,0,0,0-.77.24c-.26-.08-.37.17-.55.26s-.42-.07-.62.11a2.77,2.77,0,0,1-.54.28V74l.26.29v.54c.22.1.21.33.3.51a2,2,0,0,0,.46.49,1,1,0,0,0,.1.61,11.12,11.12,0,0,1,.55,1.09c.19.36.36.73.55,1.09a7.48,7.48,0,0,0,.58,1.08c.19.24,0,.52.34.9l.3.29c-.1.28.16.38.27.57v.71l.51.27V83l.39.37Zm-2.65-21.7h-.79l-.29.27h-.51c-.07.07-.12.16-.2.19-.3.11-.69,0-.92.33-.54-.21-1,.32-1.47.28-.13,0-.27.18-.37.25h-.63l-.93.53h-.72c-.25.31-.73.27-.92.66.31.19.23.62.52.83-.06.43.45.5.53.84a.57.57,0,0,0,0,.26c.16.37.34.73.52,1.1v.46a4.38,4.38,0,0,1,.45.41c.14.15.05.43.29.54.51,1.16,1.1,2.27,1.65,3.41.18.36.28.8.68,1s.84-.4,1.33-.31c.08,0,.19-.15.3-.24h.65c.4-.21.68-.47,1-.48s.68-.3,1-.38c.2-.38.65,0,.92-.36s.68,0,.9-.35c.42.17.68-.3,1.08-.27s.55-.44.92-.27l.79-.69a11.29,11.29,0,0,0-.79-1.45c-.25-.29-.33-.68-.6-.94.07-.46-.61-.51-.53-1-.27-.18-.22-.53-.43-.75s-.13-.49-.36-.64c.07-.33-.3-.47-.33-.8s-.32-.38-.46-.59a1.27,1.27,0,0,1-.26-.55c0-.27-.39-.37-.28-.68-.3-.25-.26-.73-.65-.92a1.87,1.87,0,0,0-.88.06Zm-9.93-1.46a2.17,2.17,0,0,0,0,.51c0,.16.24.21.27.41.08.46.6.6.78,1v.5l.89.89.29-.24h.52l.3-.27H352l.29-.27H353l.31-.27h.81l.52-.53h1.11a1.31,1.31,0,0,1,.44-.26,2.26,2.26,0,0,0,.37-.26h.71l.29-.27h1l.39-.38v-.79A6,6,0,0,1,358,58.12c-.21-.4-.33-.9-.78-1.11V56.3l-.54-.36v-.55c-.18-.27-.57-.36-.52-.75-.34-.41-.44-1-.79-1.39,0-.46-.45-.6-.68-.9h-.19l-.37.28h-1l-.22.21-.57.07-.34.26h-1.54l-.22.23h-1l-.3.27h-.51l-.3.27h-.51l-.3.27h-.94l-.75.39v.77c.2.29.58.44.56.85.27.13.19.45.37.64s.38.31.42.63.33.38.51.58v.66l.34.72Zm5.89-8.5c-.15-.31-.23-.5-.33-.68-.22-.39-.38-.82-.6-1.2a8.16,8.16,0,0,0-.72-1.29c.07-.33-.22-.45-.39-.63s-.11-.51-.37-.64c0-.41-.35-.57-.56-.83v-.53c-.34-.17-.24-.63-.56-.83s-.26-.73-.66-.88h-1.32c-.2.46-.79,0-1,.48l-1.12.07-.22.21-.58.06-.23.23h-.73l-1,.54H343c-.62.39-1.4.31-1.78,1V47c.33.3.33.75.57,1.09a6.82,6.82,0,0,1,.62,1.2,2.3,2.3,0,0,1,.42,1.16c0,.11.15.28.23.42a7.32,7.32,0,0,0,.77.9v.41c.12.22.18.37.27.51a1.68,1.68,0,0,0,.3.4c.19.15.2.36.28.55a1.66,1.66,0,0,0,.25.34h1.23l.24-.25h1.33l.52-.53h1.57l.3-.27h.51l.3-.27h.77l.3-.27h.76l.32-.27h.71Zm-9.46-16.78h1l1-.55h1.25l.2-.2L349,34V33.4c-.22-.26-.56-.43-.56-.83-.27-.13-.18-.46-.37-.64a1,1,0,0,1-.42-.63c0-.32-.33-.38-.52-.57l-.69-.69-.71-1.51h-1.92l-.26.26h-1.06l-.23.24h-.52l-.3.27h-.51l-.27.24-.28-.23a.82.82,0,0,0-.75.2,2.33,2.33,0,0,1-.72.32,4.82,4.82,0,0,0-.93,0l-.22.23h-.6l-.3.27h-1.05s-.06,0-.09.09V31l.22.22v.6a4.29,4.29,0,0,0,.56.48c.25.16.25.43.35.65a4,4,0,0,1,.43.88c.09.32.59.4.52.84.53.39.62,1.14,1.23,1.45h1.55l.3-.26a2.53,2.53,0,0,0,.55,0c.36-.07.66-.34,1.06-.31l.09-.09.14-.14h1.06l.23-.24h.57ZM325.16,8.41l1.54-.82h1.46l.31-.24h.69l.74-.44a2.42,2.42,0,0,1-.32-1.08l-.69-.65a3.34,3.34,0,0,0-.17-.44c-.14-.26-.28-.5-.43-.75.17-.39-.15-.66-.29-.94a2.79,2.79,0,0,0-.58-1c-.25-.21-.22-.65-.58-.82l-.27.26H325l-.29.27h-2.37l-.24.24h-1.33l-.28.28H318.9l-.61.61V3l.48.48v.61c.45.1.52.57.72.93s.42.8.6,1.21a4.25,4.25,0,0,1,.55,1.23c.3.19.28.5.27.81l.76.39q.63,0,1.26,0l.22-.23Zm12.52,34.42h.48l1-.54H340l.75-.39v-.44l.37-.73h.58l.23-.23h.52l.3-.27h1l.27-.25h1l1.54.79a2.14,2.14,0,0,0,1-1.3c.11-.25-.07-.52.09-.76l.19-.19V38l.27-.29v-.52l.27-.29c-.09-.6.4-1,.53-1.54l-.45-.43c-.19,0-.44-.1-.6.12s-.7,0-.92.36c0,.09-.32,0-.49.06s-.53-.12-.73.14-.51,0-.72.19l-.19.19h-.52l-.29.27h-1l-.29.27H342l-.3.27H340.4c-.13.1-.22.22-.33.24a1.09,1.09,0,0,1-.36,0l-.77.63a1,1,0,0,1-.21.79c-.21.21.07.52-.2.71s0,.54-.19.7-.15.48-.36.66-.13.49-.37.63v.75l-.28.38c0,.28.24.37.36.54Zm-4.37-7V37.7c.15.14.38.27.45.46.15.38.45.71.38,1.15l.76.76v.23a3.15,3.15,0,0,1,.37.36,3.45,3.45,0,0,1,.28.54,2.11,2.11,0,0,0,.82,1l.39-.34v-.81c.07-.06.16-.12.19-.19.13-.3,0-.7.34-.92-.17-.39.29-.61.25-.94s.25-.45.27-.69,0-.52.26-.69c-.15-.32.31-.4.28-.67a10.29,10.29,0,0,0-.78-1.27,3.94,3.94,0,0,0-.82-1.24V34l-.78-.78v-.4c-.2-.28-.55-.4-.51-.78-.19-.15-.28-.46-.63-.41a3.67,3.67,0,0,0-.36.6c-.12.31,0,.67-.32.94-.07.06,0,.25,0,.38a.8.8,0,0,1-.22.58c-.11.15-.07.4-.12.6s-.11.13-.18.19v.56ZM321.54,36c.19.29.58.41.65.79s.43.53.66.78c.41.46.86.88,1.3,1.31a1,1,0,0,1,.13.16l.11.38h.32l.92,1v.21a5.12,5.12,0,0,1,.52.27c.18.11.27.35.52.4h.52v-.9l.27-.32V38.51l.27-.34V36.9l.21-.22a2.61,2.61,0,0,0-1.27-1c-.34.12-.53-.21-.81-.26s-.44-.4-.73-.55h-1.28l-.25-.25h-1.86c-.26.33-.75.28-.88.64l.36.68ZM341,44V45.1l.39.38.28-.24h.77l.29-.28h.52l.3-.27h1c.17-.43.63-.13.9-.37s.84,0,1.24-.2l.24-.23h1l.61-.61v-.17a14,14,0,0,1-1.22-.78,4.31,4.31,0,0,0-.81-.39c-.2-.55-1-.61-1.44-1.18h-1.39l-.21.22h-.58l-.24.24h-.8l-.36.39a1.17,1.17,0,0,1-.33.85v1.31Zm-20.12-4a3.5,3.5,0,0,1,.93,1.2,1.9,1.9,0,0,0,.83,1h2.79l.78-.39a3.62,3.62,0,0,0-.13-.35c0-.07-.13-.12-.16-.19a1.3,1.3,0,0,1-.08-.34l-.37-.08-.58-.58-.14-.43h-.31l-1.3-1.3h-.26a4.09,4.09,0,0,1-.37-.64,1,1,0,0,0-.28-.54,7.4,7.4,0,0,1-.56-.56l-.9-.92c-.24,0-.47-.09-.66.11V38.2l.22.21.06.59.49.5ZM327,45.63a9.67,9.67,0,0,0,1.93,1.09,2.32,2.32,0,0,0,.87.11l.31.26h1.28l.21.2a2.82,2.82,0,0,0,1.19-.88v-.07c-.27-.2-.41-.53-.81-.62a1.26,1.26,0,0,1-.78-.42c-.22-.33-.57-.39-.85-.53a4.18,4.18,0,0,1-1.55-1c-.14-.18-.4-.06-.55-.28s-.24-.38-.48-.36-.35.28-.52.4v.77l-.27.28ZM353.16,31c-.51-.27-.79.32-1.24.22a.51.51,0,0,0-.31.17c-.08.09-.42,0-.56.26a1,1,0,0,1-.62.4c-.19,0-.11.47-.37.62V33l.52.42v.35a1.74,1.74,0,0,1,.45.17c.17.12.31.3.47.44s.09,0,.13,0a16.64,16.64,0,0,1,1.51.79h.19l.41-.52V32.1l-.27-.28V31.3Zm.88,3.81c.2.13.27.39.65.36.29-.49,1-.6,1.41-1.11s.92-.94,1.36-1.39a2,2,0,0,0-.39-1.19h-.38l-.39-.55h-1.14l-.34-.28-.32.16c-.08,0-.14.1-.21.13L354,31v1.61l.25.28c.11.3-.2.38-.24.5Zm-3.26,2.29a2,2,0,0,0-1.43,1.33l1,1h2.42c.07,0,.14-.08.21-.13v-.78l.26-.29v-1l.25-.28-.37-.38-.29.26H352c-.13.36-.58.24-.8.52H351Zm6.62-3.58c-.33.09-.64.22-.73.6s-.39.51-.73.6l-.13.37a3.31,3.31,0,0,1-.74.34c-.25,0-.25.19-.25.36.31.62,1.06.71,1.45,1.24h.52l.94-.94v-.24l.27-.3V35l.25-.28v-1.3l-.37-.4h-.32a1.44,1.44,0,0,0-.21.45Zm-31,9.07H325l-.28.27H324l-.38.39c.28.23.46.54.86.7s.58.49.88.77h.36l.35.53c.46-.24.41-.73.72-1v-.71l.38-.55Zm27.08-3.07c.21-.2.31-.36.39-.35.27,0,.4-.27.55-.26.31,0,.4-.29.68-.3a1.38,1.38,0,0,0,.55-.25c.22-.13.45-.26.48-.56-.33-.8-1.22-.82-1.79-1.29h-.24c-.12.21-.13.49-.37.65v.78l-.19.19s-.06.07-.06.1a12.44,12.44,0,0,0,0,1.29Zm-1.21-4.06a2.22,2.22,0,0,0-1-.71,2,2,0,0,0-.34-.13l-.4.42v.71l-.37.58.41.41c.81.12,1.25-.65,1.88-.54l.45-.37-.1-.38ZM333.1,30.51c.14.15.31.28.27.54l.29.15c.45-.21.47-.67.71-1l-.35-.38c-.28.34-.77.3-.95.69Z"/><path class="cls-3" d="M333.07,30.51c.18-.39.67-.35.92-.66l.35.38c-.24.3-.26.76-.71,1-.09,0-.3-.11-.29-.15C333.38,30.79,333.21,30.66,333.07,30.51Z"/><path class="cls-4" d="M16.54,108H11.1l-5.78.25L0,108"/></g></g></svg>