<svg xmlns="http://www.w3.org/2000/svg" viewBox="0 0 240.22 140.21"><defs><style>.cls-1{fill:#4CBDCC;}</style></defs><g id="Layer_2" data-name="Layer 2"><g id="Layer_1-2" data-name="Layer 1"><path class="cls-1" d="M172.93,98.46l-7.39-4.35-14.81-8.7L127.41,71.89l22.73-.09,15-.16,7.51-.08,7.5-.13c20-.32,40-.8,60.06-1.73-20-.92-40-1.4-60.06-1.72l-7.5-.13-7.51-.09-15-.15-21.38-.08,22-12.78L165.5,46l7.39-4.37,7.37-4.4c19.66-11.73,39.24-23.59,58.61-35.83-20.29,10.64-40.35,21.67-60.34,32.84L171,38.46l-7.48,4.22-14.94,8.44-26.71,15.3c0-10.45-.16-20.91-.47-31.37-.33-11.68-.81-23.37-1.73-35-.92,11.68-1.4,23.37-1.73,35.05-.31,10.38-.44,20.75-.47,31.13l-26.3-15c-10-5.6-19.92-11.27-29.94-16.8C41.26,23.24,21.19,12.24.89,1.61c19.38,12.21,39,24,58.66,35.74C69.37,43.24,79.27,49,89.13,54.8l22,12.73-21,.08c-10,.12-20,.17-30,.37-20,.33-40,.81-60,1.72,20,.92,40,1.4,60.05,1.72,10,.21,20,.25,30,.37l22.39.1L89.15,85.46C79.3,91.29,69.41,97.05,59.6,103,39.94,114.68,20.36,126.54,1,138.78c20.28-10.66,40.34-21.69,60.33-32.85,10-5.54,19.95-11.23,29.92-16.85l26.27-15q0,15.55.48,31.12c.32,11.68.8,23.37,1.72,35.05.91-11.68,1.39-23.37,1.72-35.05q.43-15.69.48-31.38l26.73,15.27,15,8.42,7.48,4.21,7.51,4.17C198.59,117,218.67,128,239,138.6c-19.38-12.22-39-24-58.66-35.75Z"/></g></g></svg>
